<svg width="234" height="47" viewBox="0 0 234 47" fill="none" xmlns="http://www.w3.org/2000/svg">
<path d="M0.113636 22.2727C0.113636 17.9773 0.670455 14.0284 1.78409 10.4261C2.90909 6.8125 4.51136 3.48864 6.59091 0.454543H10.1364C9.31818 1.57954 8.55114 2.96591 7.83523 4.61364C7.13068 6.25 6.51136 8.05114 5.97727 10.017C5.44318 11.9716 5.02273 13.9943 4.71591 16.0852C4.42045 18.1761 4.27273 20.2386 4.27273 22.2727C4.27273 24.9773 4.53409 27.7216 5.05682 30.5057C5.57955 33.2898 6.28409 35.875 7.17046 38.2614C8.05682 40.6477 9.04545 42.5909 10.1364 44.0909H6.59091C4.51136 41.0568 2.90909 37.7386 1.78409 34.1364C0.670455 30.5227 0.113636 26.5682 0.113636 22.2727ZM23.777 37.6136C22.1179 37.6136 20.6122 37.3011 19.2599 36.6761C17.9077 36.0398 16.8338 35.125 16.0384 33.9318C15.2429 32.7273 14.8452 31.2727 14.8452 29.5682C14.8452 28.0682 15.1406 26.8523 15.7315 25.9205C16.3224 24.9773 17.1122 24.2386 18.1009 23.7045C19.0895 23.1705 20.1804 22.7727 21.3736 22.5114C22.5781 22.2386 23.7884 22.0227 25.0043 21.8636C26.5952 21.6591 27.8849 21.5057 28.8736 21.4034C29.8736 21.2898 30.6009 21.1023 31.0554 20.8409C31.5213 20.5795 31.7543 20.125 31.7543 19.4773V19.3409C31.7543 17.6591 31.294 16.3523 30.3736 15.4205C29.4645 14.4886 28.0838 14.0227 26.2315 14.0227C24.3111 14.0227 22.8054 14.4432 21.7145 15.2841C20.6236 16.125 19.8565 17.0227 19.4134 17.9773L15.5952 16.6136C16.277 15.0227 17.1861 13.7841 18.3224 12.8977C19.4702 12 20.7202 11.375 22.0724 11.0227C23.4361 10.6591 24.777 10.4773 26.0952 10.4773C26.9361 10.4773 27.902 10.5795 28.9929 10.7841C30.0952 10.9773 31.1577 11.3807 32.1804 11.9943C33.2145 12.608 34.0724 13.5341 34.7543 14.7727C35.4361 16.0114 35.777 17.6705 35.777 19.75V37H31.7543V33.4545H31.5497C31.277 34.0227 30.8224 34.6307 30.1861 35.2784C29.5497 35.9261 28.7031 36.4773 27.6463 36.9318C26.5895 37.3864 25.2997 37.6136 23.777 37.6136ZM24.3906 34C25.9815 34 27.3224 33.6875 28.4134 33.0625C29.5156 32.4375 30.3452 31.6307 30.902 30.642C31.4702 29.6534 31.7543 28.6136 31.7543 27.5227V23.8409C31.5838 24.0455 31.2088 24.233 30.6293 24.4034C30.0611 24.5625 29.402 24.7045 28.652 24.8295C27.9134 24.9432 27.1918 25.0455 26.4872 25.1364C25.794 25.2159 25.2315 25.2841 24.7997 25.3409C23.7543 25.4773 22.777 25.6989 21.8679 26.0057C20.9702 26.3011 20.2429 26.75 19.6861 27.3523C19.1406 27.9432 18.8679 28.75 18.8679 29.7727C18.8679 31.1705 19.3849 32.2273 20.419 32.9432C21.4645 33.6477 22.7884 34 24.3906 34ZM43.1193 37V10.8182H47.0057V14.7727H47.2784C47.7557 13.4773 48.6193 12.4261 49.8693 11.6193C51.1193 10.8125 52.5284 10.4091 54.0966 10.4091C54.392 10.4091 54.7614 10.4148 55.2045 10.4261C55.6477 10.4375 55.983 10.4545 56.2102 10.4773V14.5682C56.0739 14.5341 55.7614 14.483 55.2727 14.4148C54.7955 14.3352 54.2898 14.2955 53.7557 14.2955C52.483 14.2955 51.3466 14.5625 50.3466 15.0966C49.358 15.6193 48.5739 16.3466 47.9943 17.2784C47.4261 18.1989 47.142 19.25 47.142 20.4318V37H43.1193ZM60.9787 37V10.8182H64.8651V14.7727H65.1378C65.6151 13.4773 66.4787 12.4261 67.7287 11.6193C68.9787 10.8125 70.3878 10.4091 71.956 10.4091C72.2514 10.4091 72.6207 10.4148 73.0639 10.4261C73.5071 10.4375 73.8423 10.4545 74.0696 10.4773V14.5682C73.9332 14.5341 73.6207 14.483 73.1321 14.4148C72.6548 14.3352 72.1491 14.2955 71.6151 14.2955C70.3423 14.2955 69.206 14.5625 68.206 15.0966C67.2173 15.6193 66.4332 16.3466 65.8537 17.2784C65.2855 18.1989 65.0014 19.25 65.0014 20.4318V37H60.9787ZM86.5426 37.6136C84.8835 37.6136 83.3778 37.3011 82.0256 36.6761C80.6733 36.0398 79.5994 35.125 78.804 33.9318C78.0085 32.7273 77.6108 31.2727 77.6108 29.5682C77.6108 28.0682 77.9063 26.8523 78.4972 25.9205C79.0881 24.9773 79.8778 24.2386 80.8665 23.7045C81.8551 23.1705 82.946 22.7727 84.1392 22.5114C85.3438 22.2386 86.554 22.0227 87.7699 21.8636C89.3608 21.6591 90.6506 21.5057 91.6392 21.4034C92.6392 21.2898 93.3665 21.1023 93.821 20.8409C94.2869 20.5795 94.5199 20.125 94.5199 19.4773V19.3409C94.5199 17.6591 94.0597 16.3523 93.1392 15.4205C92.2301 14.4886 90.8494 14.0227 88.9972 14.0227C87.0767 14.0227 85.571 14.4432 84.4801 15.2841C83.3892 16.125 82.6222 17.0227 82.179 17.9773L78.3608 16.6136C79.0426 15.0227 79.9517 13.7841 81.0881 12.8977C82.2358 12 83.4858 11.375 84.8381 11.0227C86.2017 10.6591 87.5426 10.4773 88.8608 10.4773C89.7017 10.4773 90.6676 10.5795 91.7585 10.7841C92.8608 10.9773 93.9233 11.3807 94.946 11.9943C95.9801 12.608 96.8381 13.5341 97.5199 14.7727C98.2017 16.0114 98.5426 17.6705 98.5426 19.75V37H94.5199V33.4545H94.3153C94.0426 34.0227 93.5881 34.6307 92.9517 35.2784C92.3153 35.9261 91.4688 36.4773 90.4119 36.9318C89.3551 37.3864 88.0653 37.6136 86.5426 37.6136ZM87.1562 34C88.7472 34 90.0881 33.6875 91.179 33.0625C92.2813 32.4375 93.1108 31.6307 93.6676 30.642C94.2358 29.6534 94.5199 28.6136 94.5199 27.5227V23.8409C94.3494 24.0455 93.9744 24.233 93.3949 24.4034C92.8267 24.5625 92.1676 24.7045 91.4176 24.8295C90.679 24.9432 89.9574 25.0455 89.2528 25.1364C88.5597 25.2159 87.9972 25.2841 87.5653 25.3409C86.5199 25.4773 85.5426 25.6989 84.6335 26.0057C83.7358 26.3011 83.0085 26.75 82.4517 27.3523C81.9063 27.9432 81.6335 28.75 81.6335 29.7727C81.6335 31.1705 82.1506 32.2273 83.1847 32.9432C84.2301 33.6477 85.554 34 87.1562 34ZM107.538 46.8182C106.857 46.8182 106.249 46.7614 105.714 46.6477C105.18 46.5455 104.811 46.4432 104.607 46.3409L105.629 42.7955C106.607 43.0455 107.47 43.1364 108.22 43.0682C108.97 43 109.635 42.6648 110.214 42.0625C110.805 41.4716 111.345 40.5114 111.834 39.1818L112.584 37.1364L102.902 10.8182H107.266L114.493 31.6818H114.766L121.993 10.8182H126.357L115.243 40.8182C114.743 42.1705 114.124 43.2898 113.385 44.1761C112.646 45.0739 111.788 45.7386 110.811 46.1705C109.845 46.6023 108.754 46.8182 107.538 46.8182ZM140.257 22.2727C140.257 26.5682 139.695 30.5227 138.57 34.1364C137.456 37.7386 135.859 41.0568 133.78 44.0909H130.234C131.053 42.9659 131.814 41.5795 132.518 39.9318C133.234 38.2955 133.859 36.5 134.393 34.5455C134.928 32.5795 135.342 30.5511 135.638 28.4602C135.945 26.358 136.098 24.2955 136.098 22.2727C136.098 19.5682 135.837 16.8239 135.314 14.0398C134.791 11.2557 134.087 8.67045 133.2 6.28409C132.314 3.89773 131.325 1.95454 130.234 0.454543H133.78C135.859 3.48864 137.456 6.8125 138.57 10.4261C139.695 14.0284 140.257 17.9773 140.257 22.2727ZM184.682 37L182.057 34.4091L194.739 21.7273L182.057 9.07955L184.682 6.45455L199.955 21.7273L184.682 37ZM164.875 27.6591V23.9091H195.25L191.5 27.6591H164.875ZM164.875 19.5455V15.7955H191.5L195.25 19.5455H164.875ZM219.945 22.3409V20.2273C221.842 20.2273 223.166 19.8295 223.916 19.0341C224.678 18.2386 225.058 16.9091 225.058 15.0455V9.59091C225.058 8.02273 225.206 6.66477 225.501 5.51704C225.808 4.36932 226.303 3.42045 226.984 2.67045C227.666 1.92045 228.575 1.36364 229.712 1C230.848 0.636362 232.251 0.454543 233.922 0.454543V3.79545C232.604 3.79545 231.564 4 230.803 4.40909C230.053 4.81818 229.518 5.45455 229.2 6.31818C228.893 7.17045 228.74 8.26136 228.74 9.59091V16.4091C228.74 17.2955 228.621 18.1023 228.382 18.8295C228.155 19.5568 227.729 20.1818 227.104 20.7045C226.479 21.2273 225.587 21.6307 224.428 21.9148C223.28 22.1989 221.786 22.3409 219.945 22.3409ZM233.922 44.0909C232.251 44.0909 230.848 43.9091 229.712 43.5455C228.575 43.1818 227.666 42.625 226.984 41.875C226.303 41.125 225.808 40.1761 225.501 39.0284C225.206 37.8807 225.058 36.5227 225.058 34.9545V29.5C225.058 27.6364 224.678 26.3068 223.916 25.5114C223.166 24.7159 221.842 24.3182 219.945 24.3182V22.2045C221.786 22.2045 223.28 22.3466 224.428 22.6307C225.587 22.9148 226.479 23.3182 227.104 23.8409C227.729 24.3636 228.155 24.9886 228.382 25.7159C228.621 26.4432 228.74 27.25 228.74 28.1364V34.9545C228.74 36.2841 228.893 37.375 229.2 38.2273C229.518 39.0795 230.053 39.7102 230.803 40.1193C231.564 40.5398 232.604 40.75 233.922 40.75V44.0909ZM219.945 24.3182V20.2273H223.967V24.3182H219.945Z" fill="#343434"/>
</svg>
