<svg xmlns="http://www.w3.org/2000/svg" xmlns:xlink="http://www.w3.org/1999/xlink" width="1920" zoomAndPan="magnify" viewBox="0 0 1440 809.999993" height="1080" preserveAspectRatio="xMidYMid meet" version="1.0"><defs><g/><clipPath id="56e22b76dd"><path d="M 861.460938 278 L 894 278 L 894 290 L 861.460938 290 Z M 861.460938 278 " clip-rule="nonzero"/></clipPath><clipPath id="d441e6c9ec"><path d="M 977.144531 322.207031 L 985.929688 322.207031 L 985.929688 330.496094 L 977.144531 330.496094 Z M 977.144531 322.207031 " clip-rule="nonzero"/></clipPath><clipPath id="01dbc4102e"><path d="M 979.683594 306.753906 L 991.886719 306.753906 L 991.886719 313.597656 L 979.683594 313.597656 Z M 979.683594 306.753906 " clip-rule="nonzero"/></clipPath></defs><rect x="-144" width="1728" fill="#ffffff" y="-80.999999" height="971.999992" fill-opacity="1"/><rect x="-144" width="1728" fill="#334155" y="-80.999999" height="971.999992" fill-opacity="1"/><path fill="#633828" d="M 977.199219 251.941406 C 976.542969 251.730469 975.898438 251.53125 975.265625 251.339844 C 975.0625 251.261719 974.863281 251.1875 974.652344 251.125 C 973.855469 250.90625 973.058594 250.695312 972.261719 250.488281 C 969.96875 249.878906 967.746094 249.378906 965.515625 248.980469 C 959.335938 247.8125 953.152344 247.246094 946.960938 247.480469 C 946.933594 247.480469 946.910156 247.476562 946.882812 247.476562 C 944.601562 237.53125 939.777344 226.402344 933.75 218.96875 C 929.105469 213.242188 920.589844 213.570312 917.949219 217.792969 C 917.945312 217.796875 917.945312 217.800781 917.941406 217.804688 C 917.75 218.039062 917.566406 218.289062 917.398438 218.558594 C 911.710938 227.65625 907.238281 236.859375 904.839844 246.246094 C 904.601562 247.175781 903.710938 247.773438 902.753906 247.691406 C 892.34375 246.789062 881.957031 248.234375 871.582031 251.125 C 866.976562 252.410156 865.074219 257.953125 867.996094 261.746094 C 873.863281 269.359375 881.496094 276.316406 891.394531 282.492188 C 892.277344 283.042969 892.664062 284.125 892.328125 285.109375 C 888.734375 295.636719 886.46875 305.464844 885.871094 315.816406 C 885.699219 318.765625 887.394531 321.273438 889.789062 322.390625 C 893.058594 324.53125 898.773438 325.441406 903.054688 324.140625 C 913.769531 320.882812 920.707031 316.757812 927.179688 309.628906 C 932.867188 314.820312 939.933594 318.617188 947.929688 321.464844 C 950.929688 322.800781 954.089844 323.976562 957.394531 325.003906 C 961.898438 326.40625 966.382812 322.828125 966.113281 318.113281 C 965.480469 307.214844 963.003906 296.886719 959.070312 285.722656 C 969.707031 279.316406 976.785156 272.957031 982.949219 264.960938 C 985.871094 261.167969 984.640625 254.324219 977.199219 251.941406 " fill-opacity="1" fill-rule="nonzero"/><path fill="#633828" d="M 924.707031 210.402344 L 924.707031 214.644531 L 924.707031 210.402344 C 920.347656 210.402344 916.558594 212.230469 914.507812 215.3125 C 914.253906 215.632812 914.019531 215.964844 913.808594 216.308594 C 907.773438 225.964844 903.652344 234.824219 901.242188 243.324219 C 899.683594 243.230469 898.101562 243.179688 896.523438 243.179688 C 888.292969 243.179688 879.765625 244.441406 870.449219 247.039062 C 866.902344 248.027344 864.09375 250.707031 862.933594 254.203125 C 861.78125 257.664062 862.421875 261.457031 864.644531 264.339844 C 870.71875 272.222656 878.507812 279.25 887.8125 285.246094 C 884.167969 296.246094 882.199219 305.921875 881.644531 315.570312 C 881.386719 320.019531 883.761719 324.117188 887.722656 326.097656 C 890.617188 327.910156 894.6875 328.984375 898.683594 328.984375 C 900.6875 328.984375 902.570312 328.722656 904.285156 328.199219 C 914.269531 325.164062 921.261719 321.34375 927.46875 315.410156 C 932.652344 319.4375 938.875 322.726562 946.359375 325.40625 C 949.398438 326.753906 952.6875 327.980469 956.136719 329.054688 C 957.203125 329.386719 958.296875 329.554688 959.394531 329.554688 C 962.382812 329.554688 965.285156 328.292969 967.355469 326.09375 C 969.457031 323.863281 970.515625 320.941406 970.339844 317.867188 C 969.785156 308.265625 967.8125 298.554688 964.167969 287.546875 C 973.328125 281.671875 980.242188 275.414062 986.300781 267.554688 C 988.574219 264.601562 989.246094 260.636719 988.097656 256.9375 C 986.789062 252.730469 983.285156 249.4375 978.488281 247.898438 C 977.859375 247.699219 977.242188 247.507812 976.628906 247.320312 C 976.394531 247.230469 976.113281 247.128906 975.789062 247.039062 C 975.050781 246.835938 974.246094 246.621094 973.332031 246.386719 C 970.929688 245.746094 968.621094 245.226562 966.28125 244.808594 C 960.746094 243.761719 955.328125 243.21875 950.164062 243.1875 C 947.375 233.082031 942.488281 223.015625 937.039062 216.296875 C 934 212.550781 929.503906 210.402344 924.707031 210.402344 Z M 924.707031 214.644531 C 927.851562 214.644531 931.328125 215.984375 933.75 218.96875 C 939.777344 226.402344 944.601562 237.53125 946.882812 247.476562 C 946.910156 247.476562 946.933594 247.480469 946.960938 247.480469 C 947.878906 247.445312 948.792969 247.425781 949.710938 247.425781 C 954.984375 247.425781 960.25 247.984375 965.515625 248.980469 C 967.746094 249.378906 969.96875 249.878906 972.261719 250.488281 C 973.058594 250.695312 973.855469 250.90625 974.652344 251.125 C 974.863281 251.1875 975.0625 251.261719 975.265625 251.339844 C 975.898438 251.53125 976.542969 251.730469 977.199219 251.941406 C 984.640625 254.324219 985.871094 261.167969 982.949219 264.960938 C 976.785156 272.957031 969.707031 279.316406 959.070312 285.722656 C 963.003906 296.886719 965.480469 307.214844 966.113281 318.113281 C 966.34375 322.125 963.132812 325.3125 959.394531 325.3125 C 958.738281 325.3125 958.066406 325.210938 957.394531 325.003906 C 954.089844 323.976562 950.929688 322.800781 947.929688 321.464844 C 939.933594 318.617188 932.867188 314.820312 927.179688 309.628906 C 920.707031 316.757812 913.769531 320.882812 903.054688 324.140625 C 901.699219 324.554688 900.203125 324.742188 898.683594 324.742188 C 895.402344 324.742188 892.023438 323.855469 889.789062 322.390625 C 887.394531 321.273438 885.699219 318.765625 885.871094 315.816406 C 886.46875 305.464844 888.734375 295.636719 892.328125 285.109375 C 892.664062 284.125 892.277344 283.042969 891.394531 282.492188 C 881.496094 276.316406 873.863281 269.359375 867.996094 261.746094 C 865.074219 257.953125 866.976562 252.410156 871.582031 251.125 C 879.886719 248.8125 888.199219 247.421875 896.523438 247.421875 C 898.601562 247.421875 900.679688 247.511719 902.753906 247.691406 C 902.8125 247.695312 902.875 247.699219 902.929688 247.699219 C 903.816406 247.699219 904.617188 247.117188 904.839844 246.246094 C 907.238281 236.859375 911.710938 227.65625 917.398438 218.558594 C 917.566406 218.289062 917.75 218.039062 917.941406 217.804688 C 917.945312 217.800781 917.945312 217.796875 917.949219 217.792969 C 919.210938 215.773438 921.820312 214.644531 924.707031 214.644531 " fill-opacity="1" fill-rule="nonzero"/><path fill="#f2b80e" d="M 977.199219 251.941406 C 966.914062 248.648438 959.195312 247.648438 946.882812 247.476562 C 944.601562 237.53125 939.777344 226.402344 933.75 218.96875 C 929.105469 213.242188 920.589844 213.570312 917.949219 217.792969 C 911.9375 227.414062 912.476562 240.210938 910.199219 250.152344 C 899.21875 248.929688 888.269531 250.375 877.332031 253.421875 C 872.722656 254.707031 870.820312 260.25 873.746094 264.042969 C 879.910156 272.042969 888.023438 279.316406 898.660156 285.722656 C 894.726562 296.886719 887.835938 307.441406 887.207031 318.339844 C 886.933594 323.058594 896.617188 326.097656 903.054688 324.140625 C 914.707031 320.597656 921.890625 316.042969 928.863281 307.703125 C 935.839844 316.042969 945.769531 321.386719 957.394531 325.003906 C 961.898438 326.40625 966.382812 322.828125 966.113281 318.113281 C 965.480469 307.214844 963.003906 296.886719 959.070312 285.722656 C 969.707031 279.316406 976.785156 272.957031 982.949219 264.960938 C 985.871094 261.167969 984.640625 254.324219 977.199219 251.941406 " fill-opacity="1" fill-rule="nonzero"/><path fill="#ffe816" d="M 974.652344 251.125 C 964.277344 248.234375 953.890625 246.789062 943.480469 247.691406 C 942.523438 247.773438 941.632812 247.175781 941.394531 246.246094 C 938.996094 236.859375 934.523438 227.65625 928.839844 218.558594 C 926.199219 214.332031 920.039062 214.332031 917.398438 218.558594 C 911.710938 227.65625 907.238281 236.859375 904.839844 246.246094 C 904.601562 247.175781 903.710938 247.773438 902.753906 247.691406 C 892.34375 246.789062 881.957031 248.234375 871.582031 251.125 C 866.976562 252.410156 865.074219 257.953125 867.996094 261.746094 C 873.863281 269.359375 881.496094 276.316406 891.394531 282.492188 C 892.277344 283.042969 892.664062 284.125 892.328125 285.109375 C 888.734375 295.636719 886.46875 305.464844 885.871094 315.816406 C 885.597656 320.53125 890.085938 324.109375 894.589844 322.707031 C 905.335938 319.359375 914.632812 314.542969 921.488281 307.246094 C 922.375 306.300781 923.859375 306.300781 924.75 307.246094 C 931.601562 314.542969 940.898438 319.359375 951.644531 322.707031 C 956.148438 324.109375 960.636719 320.53125 960.363281 315.816406 C 959.734375 304.914062 957.257812 294.589844 953.324219 283.425781 C 963.960938 277.019531 972.074219 269.742188 978.238281 261.746094 C 981.160156 257.953125 979.261719 252.410156 974.652344 251.125 " fill-opacity="1" fill-rule="nonzero"/><path fill="#ffffff" d="M 881.355469 256.226562 C 880.664062 256.226562 880.039062 255.746094 879.882812 255.039062 C 879.699219 254.222656 880.214844 253.414062 881.027344 253.230469 C 882.207031 252.96875 883.410156 252.738281 884.605469 252.546875 C 885.433594 252.414062 886.207031 252.980469 886.335938 253.804688 C 886.46875 254.628906 885.90625 255.40625 885.082031 255.539062 C 883.945312 255.71875 882.804688 255.9375 881.6875 256.1875 C 881.578125 256.210938 881.464844 256.226562 881.355469 256.226562 " fill-opacity="1" fill-rule="nonzero"/><path fill="#ffffff" d="M 892.109375 314.648438 C 892.078125 314.648438 892.042969 314.648438 892.007812 314.644531 C 891.175781 314.589844 890.542969 313.867188 890.597656 313.035156 C 890.679688 311.828125 890.796875 310.609375 890.953125 309.402344 C 891.058594 308.574219 891.816406 307.984375 892.648438 308.09375 C 893.476562 308.199219 894.058594 308.960938 893.953125 309.789062 C 893.804688 310.933594 893.695312 312.09375 893.617188 313.234375 C 893.566406 314.035156 892.898438 314.648438 892.109375 314.648438 " fill-opacity="1" fill-rule="nonzero"/><path fill="#ffffff" d="M 905.523438 255.378906 C 905.355469 255.378906 905.179688 255.367188 905.007812 255.351562 C 900.214844 254.882812 896.480469 254.71875 892.898438 254.824219 C 892.035156 254.835938 891.371094 254.1875 891.34375 253.351562 C 891.320312 252.515625 891.980469 251.816406 892.8125 251.792969 C 896.527344 251.6875 900.378906 251.855469 905.300781 252.335938 C 906.339844 252.4375 907.289062 251.792969 907.546875 250.796875 C 909.683594 242.570312 912.632812 235.371094 916.5625 228.78125 C 916.992188 228.0625 917.921875 227.828125 918.636719 228.257812 C 919.351562 228.6875 919.585938 229.617188 919.160156 230.335938 C 915.378906 236.671875 912.539062 243.617188 910.476562 251.558594 C 909.886719 253.835938 907.847656 255.378906 905.523438 255.378906 " fill-opacity="1" fill-rule="nonzero"/><path fill="#ffffff" d="M 961.554688 255.914062 C 961.488281 255.914062 961.421875 255.910156 961.351562 255.902344 C 955.6875 255.148438 950.519531 255.003906 945.550781 255.453125 C 944.730469 255.53125 943.984375 254.914062 943.910156 254.082031 C 943.832031 253.25 944.445312 252.511719 945.277344 252.4375 C 950.46875 251.964844 955.859375 252.117188 961.75 252.898438 C 962.578125 253.007812 963.160156 253.769531 963.050781 254.597656 C 962.949219 255.359375 962.300781 255.914062 961.554688 255.914062 " fill-opacity="1" fill-rule="nonzero"/><path fill="#381d14" d="M 923.117188 289.636719 C 926.960938 289.636719 930.144531 285.40625 930.691406 279.894531 C 930.78125 278.992188 930.089844 278.207031 929.1875 278.207031 L 917.046875 278.207031 C 916.144531 278.207031 915.453125 278.992188 915.542969 279.894531 C 916.089844 285.40625 919.273438 289.636719 923.117188 289.636719 " fill-opacity="1" fill-rule="nonzero"/><path fill="#381d14" d="M 915.460938 272.371094 C 914.820312 272.371094 914.226562 271.960938 914.019531 271.316406 C 913.296875 269.054688 910.855469 267.476562 908.085938 267.476562 C 905.359375 267.476562 902.929688 269.027344 902.179688 271.25 C 901.910156 272.039062 901.054688 272.464844 900.257812 272.199219 C 899.46875 271.929688 899.042969 271.066406 899.3125 270.277344 C 900.492188 266.789062 904.019531 264.449219 908.085938 264.449219 C 912.15625 264.449219 915.777344 266.890625 916.902344 270.390625 C 917.15625 271.1875 916.71875 272.039062 915.921875 272.296875 C 915.769531 272.34375 915.613281 272.371094 915.460938 272.371094 " fill-opacity="1" fill-rule="nonzero"/><path fill="#381d14" d="M 945.488281 272.371094 C 944.851562 272.371094 944.253906 271.960938 944.050781 271.316406 C 943.324219 269.054688 940.886719 267.476562 938.117188 267.476562 C 935.390625 267.476562 932.957031 269.027344 932.207031 271.25 C 931.9375 272.039062 931.082031 272.464844 930.289062 272.199219 C 929.5 271.929688 929.074219 271.066406 929.34375 270.277344 C 930.523438 266.789062 934.046875 264.449219 938.117188 264.449219 C 942.183594 264.449219 945.808594 266.890625 946.929688 270.390625 C 947.1875 271.1875 946.746094 272.039062 945.953125 272.296875 C 945.796875 272.34375 945.644531 272.371094 945.488281 272.371094 " fill-opacity="1" fill-rule="nonzero"/><path fill="#ec4731" d="M 923.117188 288.566406 C 925.285156 288.566406 927.183594 286.859375 928.253906 284.304688 C 927.605469 283.648438 926.710938 283.242188 925.71875 283.242188 C 924.691406 283.242188 923.769531 283.679688 923.117188 284.375 C 922.46875 283.679688 921.542969 283.242188 920.515625 283.242188 C 919.523438 283.242188 918.628906 283.648438 917.984375 284.304688 C 919.050781 286.859375 920.949219 288.566406 923.117188 288.566406 " fill-opacity="1" fill-rule="nonzero"/><path fill="#381d14" d="M 947.480469 302.285156 C 945.527344 302.285156 943.777344 301.8125 942.261719 300.863281 C 940.179688 299.558594 939.042969 297.652344 938.464844 296.328125 L 936.003906 297.015625 C 935.195312 297.238281 934.363281 296.765625 934.140625 295.957031 C 933.917969 295.152344 934.390625 294.316406 935.195312 294.09375 L 939.011719 293.03125 C 939.410156 292.921875 939.835938 292.980469 940.191406 293.191406 C 940.546875 293.40625 940.800781 293.753906 940.890625 294.15625 C 941.050781 294.824219 942.667969 300.675781 950.117188 298.925781 C 957.628906 297.160156 955.511719 285.632812 955.492188 285.515625 C 955.335938 284.695312 955.871094 283.902344 956.691406 283.742188 C 957.511719 283.589844 958.304688 284.125 958.460938 284.945312 C 959.421875 289.957031 959.050781 299.9375 950.804688 301.875 C 949.640625 302.148438 948.53125 302.285156 947.480469 302.285156 " fill-opacity="1" fill-rule="nonzero"/><g clip-path="url(#56e22b76dd)"><path fill="#381d14" d="M 879.683594 289.898438 C 878.359375 289.898438 877.070312 289.734375 875.816406 289.40625 C 870.863281 288.105469 867.820312 284.566406 866.421875 282.523438 L 864.121094 284.15625 C 863.4375 284.640625 862.496094 284.476562 862.011719 283.796875 C 861.527344 283.113281 861.691406 282.167969 862.371094 281.683594 L 865.992188 279.113281 C 866.355469 278.855469 866.808594 278.773438 867.234375 278.882812 C 867.664062 278.988281 868.023438 279.277344 868.222656 279.675781 C 868.246094 279.722656 870.96875 285.015625 876.617188 286.484375 C 880.902344 287.59375 885.828125 286.285156 891.257812 282.59375 C 891.949219 282.125 892.890625 282.304688 893.359375 282.996094 C 893.828125 283.6875 893.648438 284.628906 892.957031 285.101562 C 888.261719 288.292969 883.8125 289.898438 879.683594 289.898438 " fill-opacity="1" fill-rule="nonzero"/></g><path fill="#ffe816" d="M 868.386719 241.3125 C 867.546875 241.3125 866.707031 240.964844 866.109375 240.28125 L 863.46875 237.261719 C 862.367188 236.003906 862.492188 234.089844 863.75 232.988281 C 865.003906 231.882812 866.917969 232.007812 868.019531 233.265625 L 870.660156 236.285156 C 871.761719 237.542969 871.636719 239.457031 870.378906 240.5625 C 869.804688 241.066406 869.09375 241.3125 868.386719 241.3125 " fill-opacity="1" fill-rule="nonzero"/><path fill="#ffe816" d="M 881.015625 238.296875 C 879.492188 238.296875 878.179688 237.144531 878.011719 235.589844 L 877.214844 228.191406 C 877.035156 226.527344 878.238281 225.035156 879.898438 224.855469 C 881.558594 224.675781 883.050781 225.878906 883.230469 227.542969 L 884.027344 234.941406 C 884.207031 236.605469 883.003906 238.097656 881.34375 238.277344 C 881.234375 238.289062 881.125 238.296875 881.015625 238.296875 " fill-opacity="1" fill-rule="nonzero"/><path fill="#ffe816" d="M 952.660156 219.8125 C 951.988281 219.8125 951.3125 219.589844 950.753906 219.132812 C 949.457031 218.078125 949.261719 216.167969 950.316406 214.871094 L 953.269531 211.238281 C 954.324219 209.941406 956.226562 209.746094 957.523438 210.800781 C 958.820312 211.855469 959.015625 213.765625 957.960938 215.0625 L 955.007812 218.699219 C 954.410156 219.433594 953.539062 219.8125 952.660156 219.8125 " fill-opacity="1" fill-rule="nonzero"/><path fill="#ffe816" d="M 958.9375 232.953125 C 957.628906 232.953125 956.417969 232.09375 956.035156 230.769531 C 955.566406 229.164062 956.488281 227.480469 958.089844 227.011719 L 966.621094 224.519531 C 968.226562 224.050781 969.90625 224.972656 970.371094 226.582031 C 970.839844 228.1875 969.917969 229.871094 968.316406 230.339844 L 959.785156 232.832031 C 959.503906 232.914062 959.214844 232.953125 958.9375 232.953125 " fill-opacity="1" fill-rule="nonzero"/><path fill="#ffe816" d="M 979.613281 299.355469 C 978.542969 299.355469 977.507812 298.789062 976.957031 297.785156 C 976.152344 296.320312 976.6875 294.476562 978.152344 293.671875 L 981.765625 291.683594 C 983.230469 290.878906 985.070312 291.414062 985.875 292.878906 C 986.679688 294.347656 986.144531 296.1875 984.679688 296.992188 L 981.066406 298.984375 C 980.605469 299.238281 980.105469 299.355469 979.613281 299.355469 " fill-opacity="1" fill-rule="nonzero"/><g clip-path="url(#d441e6c9ec)"><path fill="#ffe816" d="M 982.746094 330.496094 C 982.050781 330.496094 981.355469 330.257812 980.785156 329.777344 L 978.253906 327.621094 C 976.980469 326.539062 976.824219 324.625 977.90625 323.347656 C 978.988281 322.074219 980.898438 321.917969 982.171875 323 L 984.703125 325.15625 C 985.976562 326.238281 986.132812 328.152344 985.050781 329.429688 C 984.453125 330.132812 983.601562 330.496094 982.746094 330.496094 " fill-opacity="1" fill-rule="nonzero"/></g><g clip-path="url(#01dbc4102e)"><path fill="#ffe816" d="M 982.742188 313.554688 C 981.199219 313.554688 979.882812 312.382812 979.734375 310.8125 C 979.574219 309.148438 980.792969 307.667969 982.453125 307.507812 L 988.570312 306.917969 C 990.234375 306.761719 991.710938 307.980469 991.871094 309.644531 C 992.03125 311.3125 990.8125 312.792969 989.148438 312.953125 L 983.035156 313.539062 C 982.9375 313.550781 982.839844 313.554688 982.742188 313.554688 " fill-opacity="1" fill-rule="nonzero"/></g><g fill="#f19020" fill-opacity="1"><g transform="translate(345.831229, 140.499858)"><g><path d="M 54.8125 0 L 42.9375 0 L 38.640625 -13.171875 L 16.765625 -13.171875 L 12.46875 0 L 0.859375 0 L 20.59375 -57.109375 L 35.078125 -57.109375 Z M 27.15625 -45.203125 L 19.8125 -22.65625 L 35.515625 -22.65625 L 28.125 -45.203125 Z M 27.15625 -45.203125 "/></g></g></g><g fill="#f19020" fill-opacity="1"><g transform="translate(401.489853, 140.499858)"><g><path d="M 6.21875 0 L 6.21875 -43.09375 L 16.609375 -43.09375 L 16.609375 -36.765625 L 17.421875 -36.5625 C 20.109375 -41.457031 24.457031 -43.90625 30.46875 -43.90625 C 35.445312 -43.90625 39.097656 -42.550781 41.421875 -39.84375 C 43.753906 -37.132812 44.921875 -33.191406 44.921875 -28.015625 L 44.921875 0 L 34.109375 0 L 34.109375 -26.6875 C 34.109375 -29.550781 33.535156 -31.613281 32.390625 -32.875 C 31.242188 -34.132812 29.40625 -34.765625 26.875 -34.765625 C 23.78125 -34.765625 21.363281 -33.757812 19.625 -31.75 C 17.894531 -29.75 17.03125 -26.601562 17.03125 -22.3125 L 17.03125 0 Z M 6.21875 0 "/></g></g></g><g fill="#f19020" fill-opacity="1"><g transform="translate(451.953671, 140.499858)"><g><path d="M 21.296875 0.828125 C 17.878906 0.828125 14.863281 0 12.25 -1.65625 C 9.632812 -3.3125 7.582031 -5.8125 6.09375 -9.15625 C 4.613281 -12.507812 3.875 -16.632812 3.875 -21.53125 C 3.875 -26.445312 4.632812 -30.578125 6.15625 -33.921875 C 7.675781 -37.273438 9.785156 -39.773438 12.484375 -41.421875 C 15.179688 -43.078125 18.300781 -43.90625 21.84375 -43.90625 C 24.519531 -43.90625 26.84375 -43.441406 28.8125 -42.515625 C 30.78125 -41.597656 32.441406 -40.160156 33.796875 -38.203125 L 34.609375 -38.40625 L 34.609375 -60.390625 L 45.4375 -60.390625 L 45.4375 0 L 34.609375 0 L 34.609375 -5.59375 L 33.796875 -5.75 C 32.597656 -3.71875 30.957031 -2.113281 28.875 -0.9375 C 26.789062 0.238281 24.265625 0.828125 21.296875 0.828125 Z M 24.8125 -8.359375 C 27.851562 -8.359375 30.257812 -9.445312 32.03125 -11.625 C 33.800781 -13.800781 34.6875 -17.101562 34.6875 -21.53125 C 34.6875 -25.957031 33.800781 -29.265625 32.03125 -31.453125 C 30.257812 -33.640625 27.851562 -34.734375 24.8125 -34.734375 C 21.632812 -34.734375 19.203125 -33.671875 17.515625 -31.546875 C 15.835938 -29.421875 15 -26.082031 15 -21.53125 C 15 -17 15.835938 -13.671875 17.515625 -11.546875 C 19.203125 -9.421875 21.632812 -8.359375 24.8125 -8.359375 Z M 24.8125 -8.359375 "/></g></g></g><g fill="#f19020" fill-opacity="1"><g transform="translate(503.589251, 140.499858)"><g/></g></g><g fill="#f19020" fill-opacity="1"><g transform="translate(522.454595, 140.499858)"><g><path d="M 29.734375 -10.28125 L 32.546875 -2.265625 C 31.367188 -1.304688 29.894531 -0.550781 28.125 0 C 26.351562 0.550781 24.347656 0.828125 22.109375 0.828125 C 17.453125 0.828125 13.910156 -0.441406 11.484375 -2.984375 C 9.066406 -5.523438 7.859375 -9.21875 7.859375 -14.0625 L 7.859375 -34.53125 L 1.296875 -34.53125 L 1.296875 -43.125 L 7.859375 -43.125 L 7.859375 -51.53125 L 18.671875 -53.28125 L 18.671875 -43.125 L 30.90625 -43.125 L 30.90625 -34.53125 L 18.671875 -34.53125 L 18.671875 -14.84375 C 18.671875 -12.707031 19.113281 -11.148438 20 -10.171875 C 20.882812 -9.203125 22.175781 -8.71875 23.875 -8.71875 C 25.800781 -8.71875 27.476562 -9.238281 28.90625 -10.28125 Z M 29.734375 -10.28125 "/></g></g></g><g fill="#f19020" fill-opacity="1"><g transform="translate(555.927898, 140.499858)"><g><path d="M 6.21875 0 L 6.21875 -60.390625 L 17.03125 -60.390625 L 17.03125 -37.46875 L 17.859375 -37.3125 C 19.285156 -39.414062 21.039062 -41.039062 23.125 -42.1875 C 25.207031 -43.332031 27.722656 -43.90625 30.671875 -43.90625 C 40.171875 -43.90625 44.921875 -38.515625 44.921875 -27.734375 L 44.921875 0 L 34.109375 0 L 34.109375 -26.375 C 34.109375 -29.3125 33.519531 -31.441406 32.34375 -32.765625 C 31.175781 -34.097656 29.351562 -34.765625 26.875 -34.765625 C 23.851562 -34.765625 21.457031 -33.753906 19.6875 -31.734375 C 17.914062 -29.722656 17.03125 -26.582031 17.03125 -22.3125 L 17.03125 0 Z M 6.21875 0 "/></g></g></g><g fill="#f19020" fill-opacity="1"><g transform="translate(606.391716, 140.499858)"><g><path d="M 16.796875 0.828125 C 14.035156 0.828125 11.640625 0.316406 9.609375 -0.703125 C 7.578125 -1.722656 6.015625 -3.210938 4.921875 -5.171875 C 3.828125 -7.140625 3.28125 -9.503906 3.28125 -12.265625 C 3.28125 -14.816406 3.828125 -16.957031 4.921875 -18.6875 C 6.015625 -20.425781 7.707031 -21.847656 10 -22.953125 C 12.289062 -24.054688 15.285156 -24.910156 18.984375 -25.515625 C 21.566406 -25.929688 23.523438 -26.382812 24.859375 -26.875 C 26.203125 -27.375 27.109375 -27.9375 27.578125 -28.5625 C 28.046875 -29.1875 28.28125 -29.976562 28.28125 -30.9375 C 28.28125 -32.320312 27.796875 -33.378906 26.828125 -34.109375 C 25.867188 -34.835938 24.269531 -35.203125 22.03125 -35.203125 C 19.632812 -35.203125 17.351562 -34.664062 15.1875 -33.59375 C 13.03125 -32.53125 11.160156 -31.125 9.578125 -29.375 L 8.796875 -29.375 L 4.265625 -36.21875 C 6.453125 -38.632812 9.117188 -40.519531 12.265625 -41.875 C 15.421875 -43.226562 18.859375 -43.90625 22.578125 -43.90625 C 28.285156 -43.90625 32.414062 -42.691406 34.96875 -40.265625 C 37.519531 -37.847656 38.796875 -34.414062 38.796875 -29.96875 L 38.796875 -11.25 C 38.796875 -9.320312 39.640625 -8.359375 41.328125 -8.359375 C 41.984375 -8.359375 42.625 -8.476562 43.25 -8.71875 L 43.796875 -8.5625 L 44.578125 -1.015625 C 43.972656 -0.628906 43.132812 -0.3125 42.0625 -0.0625 C 41 0.1875 39.832031 0.3125 38.5625 0.3125 C 35.976562 0.3125 33.960938 -0.179688 32.515625 -1.171875 C 31.078125 -2.160156 30.046875 -3.710938 29.421875 -5.828125 L 28.59375 -5.90625 C 26.488281 -1.414062 22.554688 0.828125 16.796875 0.828125 Z M 20.234375 -7.265625 C 22.734375 -7.265625 24.734375 -8.101562 26.234375 -9.78125 C 27.734375 -11.46875 28.484375 -13.804688 28.484375 -16.796875 L 28.484375 -21.171875 L 27.734375 -21.328125 C 27.085938 -20.804688 26.234375 -20.367188 25.171875 -20.015625 C 24.117188 -19.671875 22.601562 -19.328125 20.625 -18.984375 C 18.28125 -18.597656 16.59375 -17.925781 15.5625 -16.96875 C 14.539062 -16.019531 14.03125 -14.675781 14.03125 -12.9375 C 14.03125 -11.082031 14.578125 -9.671875 15.671875 -8.703125 C 16.765625 -7.742188 18.285156 -7.265625 20.234375 -7.265625 Z M 20.234375 -7.265625 "/></g></g></g><g fill="#f19020" fill-opacity="1"><g transform="translate(651.816977, 140.499858)"><g><path d="M 29.734375 -10.28125 L 32.546875 -2.265625 C 31.367188 -1.304688 29.894531 -0.550781 28.125 0 C 26.351562 0.550781 24.347656 0.828125 22.109375 0.828125 C 17.453125 0.828125 13.910156 -0.441406 11.484375 -2.984375 C 9.066406 -5.523438 7.859375 -9.21875 7.859375 -14.0625 L 7.859375 -34.53125 L 1.296875 -34.53125 L 1.296875 -43.125 L 7.859375 -43.125 L 7.859375 -51.53125 L 18.671875 -53.28125 L 18.671875 -43.125 L 30.90625 -43.125 L 30.90625 -34.53125 L 18.671875 -34.53125 L 18.671875 -14.84375 C 18.671875 -12.707031 19.113281 -11.148438 20 -10.171875 C 20.882812 -9.203125 22.175781 -8.71875 23.875 -8.71875 C 25.800781 -8.71875 27.476562 -9.238281 28.90625 -10.28125 Z M 29.734375 -10.28125 "/></g></g></g><g fill="#f19020" fill-opacity="1"><g transform="translate(685.290257, 140.499858)"><g><path d="M 1.875 -37.109375 C 4.269531 -38.410156 6.273438 -39.914062 7.890625 -41.625 C 9.503906 -43.332031 10.429688 -45.082031 10.671875 -46.875 C 8.660156 -46.957031 7.085938 -47.570312 5.953125 -48.71875 C 4.828125 -49.863281 4.265625 -51.347656 4.265625 -53.171875 C 4.265625 -54.390625 4.535156 -55.476562 5.078125 -56.4375 C 5.628906 -57.40625 6.410156 -58.171875 7.421875 -58.734375 C 8.441406 -59.296875 9.613281 -59.578125 10.9375 -59.578125 C 13.019531 -59.578125 14.695312 -58.847656 15.96875 -57.390625 C 17.25 -55.929688 17.890625 -53.898438 17.890625 -51.296875 C 17.890625 -46.941406 16.738281 -43.210938 14.4375 -40.109375 C 12.132812 -37.015625 9.003906 -34.347656 5.046875 -32.109375 Z M 1.875 -37.109375 "/></g></g></g><g fill="#f19020" fill-opacity="1"><g transform="translate(707.006884, 140.499858)"><g><path d="M 20.15625 0.828125 C 17.21875 0.828125 14.523438 0.484375 12.078125 -0.203125 C 9.628906 -0.898438 7.535156 -1.851562 5.796875 -3.0625 C 4.066406 -4.28125 2.785156 -5.671875 1.953125 -7.234375 L 7.96875 -13.71875 L 8.796875 -13.71875 C 10.222656 -11.789062 11.910156 -10.34375 13.859375 -9.375 C 15.816406 -8.414062 17.941406 -7.9375 20.234375 -7.9375 C 22.347656 -7.9375 23.9375 -8.3125 25 -9.0625 C 26.070312 -9.820312 26.609375 -10.90625 26.609375 -12.3125 C 26.609375 -13.40625 26.222656 -14.320312 25.453125 -15.0625 C 24.679688 -15.800781 23.4375 -16.378906 21.71875 -16.796875 L 16.015625 -18.171875 C 11.742188 -19.179688 8.625 -20.734375 6.65625 -22.828125 C 4.695312 -24.929688 3.71875 -27.597656 3.71875 -30.828125 C 3.71875 -33.503906 4.398438 -35.832031 5.765625 -37.8125 C 7.128906 -39.789062 9.054688 -41.300781 11.546875 -42.34375 C 14.035156 -43.382812 16.929688 -43.90625 20.234375 -43.90625 C 24.117188 -43.90625 27.335938 -43.34375 29.890625 -42.21875 C 32.441406 -41.101562 34.429688 -39.609375 35.859375 -37.734375 L 30.078125 -31.484375 L 29.296875 -31.484375 C 28.097656 -32.835938 26.75 -33.828125 25.25 -34.453125 C 23.757812 -35.078125 22.085938 -35.390625 20.234375 -35.390625 C 15.960938 -35.390625 13.828125 -34.0625 13.828125 -31.40625 C 13.828125 -30.289062 14.222656 -29.378906 15.015625 -28.671875 C 15.816406 -27.972656 17.21875 -27.398438 19.21875 -26.953125 L 24.53125 -25.78125 C 28.90625 -24.84375 32.101562 -23.335938 34.125 -21.265625 C 36.144531 -19.203125 37.15625 -16.425781 37.15625 -12.9375 C 37.15625 -10.195312 36.476562 -7.785156 35.125 -5.703125 C 33.769531 -3.617188 31.816406 -2.007812 29.265625 -0.875 C 26.710938 0.257812 23.675781 0.828125 20.15625 0.828125 Z M 20.15625 0.828125 "/></g></g></g><g fill="#f19020" fill-opacity="1"><g transform="translate(746.729554, 140.499858)"><g/></g></g><g fill="#f19020" fill-opacity="1"><g transform="translate(765.59491, 140.499858)"><g><path d="M 6.21875 0 L 6.21875 -60.390625 L 17.03125 -60.390625 L 17.03125 -37.46875 L 17.859375 -37.3125 C 19.285156 -39.414062 21.039062 -41.039062 23.125 -42.1875 C 25.207031 -43.332031 27.722656 -43.90625 30.671875 -43.90625 C 40.171875 -43.90625 44.921875 -38.515625 44.921875 -27.734375 L 44.921875 0 L 34.109375 0 L 34.109375 -26.375 C 34.109375 -29.3125 33.519531 -31.441406 32.34375 -32.765625 C 31.175781 -34.097656 29.351562 -34.765625 26.875 -34.765625 C 23.851562 -34.765625 21.457031 -33.753906 19.6875 -31.734375 C 17.914062 -29.722656 17.03125 -26.582031 17.03125 -22.3125 L 17.03125 0 Z M 6.21875 0 "/></g></g></g><g fill="#f19020" fill-opacity="1"><g transform="translate(816.058728, 140.499858)"><g><path d="M 25.046875 0.828125 C 20.828125 0.828125 17.117188 -0.0351562 13.921875 -1.765625 C 10.734375 -3.503906 8.257812 -6.046875 6.5 -9.390625 C 4.75 -12.742188 3.875 -16.789062 3.875 -21.53125 C 3.875 -26.269531 4.75 -30.316406 6.5 -33.671875 C 8.257812 -37.035156 10.734375 -39.582031 13.921875 -41.3125 C 17.117188 -43.039062 20.828125 -43.90625 25.046875 -43.90625 C 29.265625 -43.90625 32.96875 -43.039062 36.15625 -41.3125 C 39.34375 -39.582031 41.820312 -37.035156 43.59375 -33.671875 C 45.363281 -30.316406 46.25 -26.269531 46.25 -21.53125 C 46.25 -16.789062 45.363281 -12.742188 43.59375 -9.390625 C 41.820312 -6.046875 39.34375 -3.503906 36.15625 -1.765625 C 32.96875 -0.0351562 29.265625 0.828125 25.046875 0.828125 Z M 25.046875 -8.359375 C 31.734375 -8.359375 35.078125 -12.75 35.078125 -21.53125 C 35.078125 -26.082031 34.21875 -29.421875 32.5 -31.546875 C 30.78125 -33.671875 28.296875 -34.734375 25.046875 -34.734375 C 18.347656 -34.734375 15 -30.332031 15 -21.53125 C 15 -12.75 18.347656 -8.359375 25.046875 -8.359375 Z M 25.046875 -8.359375 "/></g></g></g><g fill="#f19020" fill-opacity="1"><g transform="translate(866.131983, 140.499858)"><g><path d="M 23.125 0 L 11.796875 0 L 1.5625 -43.09375 L 11.609375 -43.09375 L 17.9375 -13.953125 L 18.75 -13.953125 L 26.953125 -43.09375 L 36.328125 -43.09375 L 44.8125 -13.953125 L 45.625 -13.953125 L 51.71875 -43.09375 L 61.484375 -43.09375 L 51.375 0 L 40 0 L 31.84375 -29.34375 L 31.015625 -29.34375 Z M 23.125 0 "/></g></g></g><g fill="#f19020" fill-opacity="1"><g transform="translate(929.133628, 140.499858)"><g/></g></g><g fill="#f19020" fill-opacity="1"><g transform="translate(947.998984, 140.499858)"><g><path d="M 9.53125 18.28125 C 7.6875 18.28125 6.015625 18.132812 4.515625 17.84375 C 3.015625 17.5625 1.796875 17.1875 0.859375 16.71875 L 2.578125 7.96875 L 3.28125 7.734375 C 3.9375 8.078125 4.742188 8.351562 5.703125 8.5625 C 6.671875 8.769531 7.660156 8.875 8.671875 8.875 C 10.421875 8.875 11.875 8.644531 13.03125 8.1875 C 14.1875 7.726562 15.164062 6.972656 15.96875 5.921875 C 16.78125 4.867188 17.5 3.40625 18.125 1.53125 L 0.9375 -43.09375 L 12.265625 -43.09375 L 22.96875 -13.125 L 23.90625 -13.125 L 34.34375 -43.09375 L 45.359375 -43.09375 L 28.046875 2.703125 C 26.671875 6.398438 25.15625 9.375 23.5 11.625 C 21.84375 13.875 19.890625 15.546875 17.640625 16.640625 C 15.390625 17.734375 12.6875 18.28125 9.53125 18.28125 Z M 9.53125 18.28125 "/></g></g></g><g fill="#f19020" fill-opacity="1"><g transform="translate(994.244465, 140.499858)"><g><path d="M 25.046875 0.828125 C 20.828125 0.828125 17.117188 -0.0351562 13.921875 -1.765625 C 10.734375 -3.503906 8.257812 -6.046875 6.5 -9.390625 C 4.75 -12.742188 3.875 -16.789062 3.875 -21.53125 C 3.875 -26.269531 4.75 -30.316406 6.5 -33.671875 C 8.257812 -37.035156 10.734375 -39.582031 13.921875 -41.3125 C 17.117188 -43.039062 20.828125 -43.90625 25.046875 -43.90625 C 29.265625 -43.90625 32.96875 -43.039062 36.15625 -41.3125 C 39.34375 -39.582031 41.820312 -37.035156 43.59375 -33.671875 C 45.363281 -30.316406 46.25 -26.269531 46.25 -21.53125 C 46.25 -16.789062 45.363281 -12.742188 43.59375 -9.390625 C 41.820312 -6.046875 39.34375 -3.503906 36.15625 -1.765625 C 32.96875 -0.0351562 29.265625 0.828125 25.046875 0.828125 Z M 25.046875 -8.359375 C 31.734375 -8.359375 35.078125 -12.75 35.078125 -21.53125 C 35.078125 -26.082031 34.21875 -29.421875 32.5 -31.546875 C 30.78125 -33.671875 28.296875 -34.734375 25.046875 -34.734375 C 18.347656 -34.734375 15 -30.332031 15 -21.53125 C 15 -12.75 18.347656 -8.359375 25.046875 -8.359375 Z M 25.046875 -8.359375 "/></g></g></g><g fill="#f19020" fill-opacity="1"><g transform="translate(1044.317674, 140.499858)"><g><path d="M 19.734375 0.828125 C 14.890625 0.828125 11.3125 -0.492188 9 -3.140625 C 6.695312 -5.785156 5.546875 -9.582031 5.546875 -14.53125 L 5.546875 -43.09375 L 16.375 -43.09375 L 16.375 -15.90625 C 16.375 -13.269531 16.9375 -11.347656 18.0625 -10.140625 C 19.195312 -8.929688 20.953125 -8.328125 23.328125 -8.328125 C 26.316406 -8.328125 28.644531 -9.304688 30.3125 -11.265625 C 31.976562 -13.234375 32.8125 -16.328125 32.8125 -20.546875 L 32.8125 -43.09375 L 43.640625 -43.09375 L 43.640625 0 L 33.25 0 L 33.25 -6.328125 L 32.421875 -6.53125 C 31.046875 -4.050781 29.359375 -2.203125 27.359375 -0.984375 C 25.367188 0.222656 22.828125 0.828125 19.734375 0.828125 Z M 19.734375 0.828125 "/></g></g></g><g fill="#ffffff" fill-opacity="1"><g transform="translate(251.949985, 296.250005)"><g><path d="M 16.375 -49.96875 L 16.375 -8.265625 L 38.828125 -8.265625 L 38.828125 0 L 6.5 0 L 6.5 -49.96875 Z M 16.375 -49.96875 "/></g></g></g><g fill="#ffffff" fill-opacity="1"><g transform="translate(292.416474, 296.250005)"><g><path d="M 37.25 -16.71875 L 13.015625 -16.71875 C 13.296875 -13.4375 14.234375 -11.046875 15.828125 -9.546875 C 17.421875 -8.054688 19.597656 -7.3125 22.359375 -7.3125 C 24.515625 -7.3125 26.265625 -7.710938 27.609375 -8.515625 C 28.960938 -9.328125 30.046875 -10.554688 30.859375 -12.203125 L 31.578125 -12.203125 L 37.875 -8.171875 C 36.644531 -5.523438 34.785156 -3.378906 32.296875 -1.734375 C 29.816406 -0.0976562 26.503906 0.71875 22.359375 0.71875 C 18.460938 0.71875 15.09375 -0.0195312 12.25 -1.5 C 9.414062 -2.976562 7.226562 -5.179688 5.6875 -8.109375 C 4.15625 -11.046875 3.390625 -14.617188 3.390625 -18.828125 C 3.390625 -23.117188 4.195312 -26.734375 5.8125 -29.671875 C 7.425781 -32.609375 9.613281 -34.800781 12.375 -36.25 C 15.132812 -37.695312 18.234375 -38.421875 21.671875 -38.421875 C 27.003906 -38.421875 31.085938 -37.003906 33.921875 -34.171875 C 36.753906 -31.347656 38.171875 -27.203125 38.171875 -21.734375 C 38.171875 -19.753906 38.101562 -18.21875 37.96875 -17.125 Z M 29.125 -22.828125 C 29.03125 -25.703125 28.363281 -27.789062 27.125 -29.09375 C 25.882812 -30.40625 24.066406 -31.0625 21.671875 -31.0625 C 16.890625 -31.0625 14.078125 -28.316406 13.234375 -22.828125 Z M 29.125 -22.828125 "/></g></g></g><g fill="#ffffff" fill-opacity="1"><g transform="translate(333.395636, 296.250005)"><g><path d="M 14.703125 0.71875 C 12.285156 0.71875 10.1875 0.273438 8.40625 -0.609375 C 6.632812 -1.503906 5.269531 -2.8125 4.3125 -4.53125 C 3.351562 -6.25 2.875 -8.316406 2.875 -10.734375 C 2.875 -12.960938 3.351562 -14.832031 4.3125 -16.34375 C 5.269531 -17.863281 6.75 -19.109375 8.75 -20.078125 C 10.757812 -21.046875 13.378906 -21.789062 16.609375 -22.3125 C 18.867188 -22.675781 20.582031 -23.078125 21.75 -23.515625 C 22.925781 -23.953125 23.71875 -24.441406 24.125 -24.984375 C 24.539062 -25.535156 24.75 -26.234375 24.75 -27.078125 C 24.75 -28.273438 24.328125 -29.191406 23.484375 -29.828125 C 22.640625 -30.472656 21.238281 -30.796875 19.28125 -30.796875 C 17.1875 -30.796875 15.191406 -30.328125 13.296875 -29.390625 C 11.398438 -28.460938 9.757812 -27.234375 8.375 -25.703125 L 7.6875 -25.703125 L 3.71875 -31.6875 C 5.632812 -33.800781 7.972656 -35.453125 10.734375 -36.640625 C 13.492188 -37.828125 16.5 -38.421875 19.75 -38.421875 C 24.738281 -38.421875 28.347656 -37.359375 30.578125 -35.234375 C 32.816406 -33.117188 33.9375 -30.113281 33.9375 -26.21875 L 33.9375 -9.84375 C 33.9375 -8.15625 34.675781 -7.3125 36.15625 -7.3125 C 36.726562 -7.3125 37.289062 -7.414062 37.84375 -7.625 L 38.3125 -7.484375 L 39 -0.890625 C 38.476562 -0.546875 37.75 -0.265625 36.8125 -0.046875 C 35.875 0.171875 34.847656 0.28125 33.734375 0.28125 C 31.484375 0.28125 29.722656 -0.148438 28.453125 -1.015625 C 27.191406 -1.890625 26.285156 -3.25 25.734375 -5.09375 L 25.015625 -5.15625 C 23.171875 -1.238281 19.734375 0.71875 14.703125 0.71875 Z M 17.703125 -6.359375 C 19.890625 -6.359375 21.640625 -7.09375 22.953125 -8.5625 C 24.265625 -10.03125 24.921875 -12.078125 24.921875 -14.703125 L 24.921875 -18.53125 L 24.265625 -18.65625 C 23.691406 -18.207031 22.941406 -17.828125 22.015625 -17.515625 C 21.097656 -17.210938 19.773438 -16.910156 18.046875 -16.609375 C 15.992188 -16.265625 14.515625 -15.675781 13.609375 -14.84375 C 12.710938 -14.019531 12.265625 -12.84375 12.265625 -11.3125 C 12.265625 -9.695312 12.742188 -8.46875 13.703125 -7.625 C 14.660156 -6.78125 15.992188 -6.359375 17.703125 -6.359375 Z M 17.703125 -6.359375 "/></g></g></g><g fill="#ffffff" fill-opacity="1"><g transform="translate(373.144398, 296.250005)"><g><path d="M 5.4375 0 L 5.4375 -37.703125 L 14.625 -37.703125 L 14.625 -32.09375 L 15.34375 -31.953125 C 16.257812 -34.054688 17.457031 -35.597656 18.9375 -36.578125 C 20.414062 -37.554688 22.21875 -38.046875 24.34375 -38.046875 C 26.476562 -38.046875 28.101562 -37.679688 29.21875 -36.953125 L 27.625 -28.78125 L 26.90625 -28.640625 C 26.289062 -28.890625 25.695312 -29.070312 25.125 -29.1875 C 24.550781 -29.300781 23.851562 -29.359375 23.03125 -29.359375 C 20.394531 -29.359375 18.378906 -28.429688 16.984375 -26.578125 C 15.597656 -24.722656 14.90625 -21.742188 14.90625 -17.640625 L 14.90625 0 Z M 5.4375 0 "/></g></g></g><g fill="#ffffff" fill-opacity="1"><g transform="translate(402.708182, 296.250005)"><g><path d="M 5.4375 0 L 5.4375 -37.703125 L 14.53125 -37.703125 L 14.53125 -32.15625 L 15.25 -32 C 17.59375 -36.28125 21.394531 -38.421875 26.65625 -38.421875 C 31.007812 -38.421875 34.207031 -37.234375 36.25 -34.859375 C 38.289062 -32.492188 39.3125 -29.039062 39.3125 -24.5 L 39.3125 0 L 29.84375 0 L 29.84375 -23.34375 C 29.84375 -25.851562 29.335938 -27.660156 28.328125 -28.765625 C 27.328125 -29.867188 25.722656 -30.421875 23.515625 -30.421875 C 20.804688 -30.421875 18.691406 -29.539062 17.171875 -27.78125 C 15.660156 -26.03125 14.90625 -23.273438 14.90625 -19.515625 L 14.90625 0 Z M 5.4375 0 "/></g></g></g><g fill="#ffffff" fill-opacity="1"><g transform="translate(446.865883, 296.250005)"><g/></g></g><g fill="#ffffff" fill-opacity="1"><g transform="translate(463.373756, 296.250005)"><g><path d="M 22.15625 0.71875 C 18.6875 0.71875 15.601562 0.289062 12.90625 -0.5625 C 10.207031 -1.414062 7.957031 -2.535156 6.15625 -3.921875 C 4.351562 -5.316406 2.972656 -6.847656 2.015625 -8.515625 L 7.453125 -15.140625 L 8.3125 -15.140625 C 9.8125 -12.910156 11.71875 -11.132812 14.03125 -9.8125 C 16.34375 -8.488281 19.050781 -7.828125 22.15625 -7.828125 C 24.789062 -7.828125 26.78125 -8.382812 28.125 -9.5 C 29.46875 -10.613281 30.140625 -12.148438 30.140625 -14.109375 C 30.140625 -15.296875 29.921875 -16.285156 29.484375 -17.078125 C 29.054688 -17.878906 28.34375 -18.566406 27.34375 -19.140625 C 26.34375 -19.710938 24.988281 -20.203125 23.28125 -20.609375 L 16.84375 -22.078125 C 12.363281 -23.109375 9.019531 -24.8125 6.8125 -27.1875 C 4.613281 -29.570312 3.515625 -32.664062 3.515625 -36.46875 C 3.515625 -39.289062 4.222656 -41.773438 5.640625 -43.921875 C 7.054688 -46.066406 9.113281 -47.726562 11.8125 -48.90625 C 14.507812 -50.09375 17.738281 -50.6875 21.5 -50.6875 C 25.351562 -50.6875 28.648438 -50.175781 31.390625 -49.15625 C 34.140625 -48.144531 36.457031 -46.59375 38.34375 -44.5 L 33.46875 -37.796875 L 32.609375 -37.796875 C 31.191406 -39.285156 29.570312 -40.398438 27.75 -41.140625 C 25.925781 -41.878906 23.84375 -42.25 21.5 -42.25 C 18.789062 -42.25 16.726562 -41.769531 15.3125 -40.8125 C 13.894531 -39.851562 13.1875 -38.53125 13.1875 -36.84375 C 13.1875 -35.269531 13.679688 -34.015625 14.671875 -33.078125 C 15.671875 -32.148438 17.390625 -31.425781 19.828125 -30.90625 L 26.390625 -29.53125 C 31.242188 -28.507812 34.765625 -26.769531 36.953125 -24.3125 C 39.140625 -21.863281 40.234375 -18.671875 40.234375 -14.734375 C 40.234375 -11.609375 39.5625 -8.890625 38.21875 -6.578125 C 36.875 -4.265625 34.84375 -2.46875 32.125 -1.1875 C 29.414062 0.0820312 26.09375 0.71875 22.15625 0.71875 Z M 22.15625 0.71875 "/></g></g></g><g fill="#ffffff" fill-opacity="1"><g transform="translate(506.301046, 296.250005)"><g><path d="M 8.34375 16 C 6.71875 16 5.25 15.875 3.9375 15.625 C 2.632812 15.375 1.570312 15.039062 0.75 14.625 L 2.25 6.96875 L 2.875 6.765625 C 3.4375 7.066406 4.140625 7.304688 4.984375 7.484375 C 5.828125 7.671875 6.695312 7.765625 7.59375 7.765625 C 9.113281 7.765625 10.378906 7.5625 11.390625 7.15625 C 12.410156 6.757812 13.273438 6.097656 13.984375 5.171875 C 14.691406 4.253906 15.316406 2.972656 15.859375 1.328125 L 0.828125 -37.703125 L 10.734375 -37.703125 L 20.09375 -11.484375 L 20.921875 -11.484375 L 30.046875 -37.703125 L 39.6875 -37.703125 L 24.546875 2.359375 C 23.335938 5.597656 22.007812 8.203125 20.5625 10.171875 C 19.113281 12.140625 17.398438 13.601562 15.421875 14.5625 C 13.453125 15.519531 11.09375 16 8.34375 16 Z M 8.34375 16 "/></g></g></g><g fill="#ffffff" fill-opacity="1"><g transform="translate(546.767535, 296.250005)"><g><path d="M 5.4375 0 L 5.4375 -37.703125 L 14.53125 -37.703125 L 14.53125 -32.15625 L 15.25 -32 C 17.59375 -36.28125 21.394531 -38.421875 26.65625 -38.421875 C 31.007812 -38.421875 34.207031 -37.234375 36.25 -34.859375 C 38.289062 -32.492188 39.3125 -29.039062 39.3125 -24.5 L 39.3125 0 L 29.84375 0 L 29.84375 -23.34375 C 29.84375 -25.851562 29.335938 -27.660156 28.328125 -28.765625 C 27.328125 -29.867188 25.722656 -30.421875 23.515625 -30.421875 C 20.804688 -30.421875 18.691406 -29.539062 17.171875 -27.78125 C 15.660156 -26.03125 14.90625 -23.273438 14.90625 -19.515625 L 14.90625 0 Z M 5.4375 0 "/></g></g></g><g fill="#ffffff" fill-opacity="1"><g transform="translate(590.925225, 296.250005)"><g><path d="M 26.015625 -8.984375 L 28.46875 -1.984375 C 27.445312 -1.140625 26.160156 -0.476562 24.609375 0 C 23.054688 0.476562 21.300781 0.71875 19.34375 0.71875 C 15.269531 0.71875 12.171875 -0.390625 10.046875 -2.609375 C 7.929688 -4.835938 6.875 -8.070312 6.875 -12.3125 L 6.875 -30.21875 L 1.125 -30.21875 L 1.125 -37.734375 L 6.875 -37.734375 L 6.875 -45.078125 L 16.34375 -46.625 L 16.34375 -37.734375 L 27.03125 -37.734375 L 27.03125 -30.21875 L 16.34375 -30.21875 L 16.34375 -12.984375 C 16.34375 -11.117188 16.726562 -9.757812 17.5 -8.90625 C 18.269531 -8.050781 19.398438 -7.625 20.890625 -7.625 C 22.566406 -7.625 24.035156 -8.078125 25.296875 -8.984375 Z M 26.015625 -8.984375 "/></g></g></g><g fill="#ffffff" fill-opacity="1"><g transform="translate(620.215575, 296.250005)"><g><path d="M 14.703125 0.71875 C 12.285156 0.71875 10.1875 0.273438 8.40625 -0.609375 C 6.632812 -1.503906 5.269531 -2.8125 4.3125 -4.53125 C 3.351562 -6.25 2.875 -8.316406 2.875 -10.734375 C 2.875 -12.960938 3.351562 -14.832031 4.3125 -16.34375 C 5.269531 -17.863281 6.75 -19.109375 8.75 -20.078125 C 10.757812 -21.046875 13.378906 -21.789062 16.609375 -22.3125 C 18.867188 -22.675781 20.582031 -23.078125 21.75 -23.515625 C 22.925781 -23.953125 23.71875 -24.441406 24.125 -24.984375 C 24.539062 -25.535156 24.75 -26.234375 24.75 -27.078125 C 24.75 -28.273438 24.328125 -29.191406 23.484375 -29.828125 C 22.640625 -30.472656 21.238281 -30.796875 19.28125 -30.796875 C 17.1875 -30.796875 15.191406 -30.328125 13.296875 -29.390625 C 11.398438 -28.460938 9.757812 -27.234375 8.375 -25.703125 L 7.6875 -25.703125 L 3.71875 -31.6875 C 5.632812 -33.800781 7.972656 -35.453125 10.734375 -36.640625 C 13.492188 -37.828125 16.5 -38.421875 19.75 -38.421875 C 24.738281 -38.421875 28.347656 -37.359375 30.578125 -35.234375 C 32.816406 -33.117188 33.9375 -30.113281 33.9375 -26.21875 L 33.9375 -9.84375 C 33.9375 -8.15625 34.675781 -7.3125 36.15625 -7.3125 C 36.726562 -7.3125 37.289062 -7.414062 37.84375 -7.625 L 38.3125 -7.484375 L 39 -0.890625 C 38.476562 -0.546875 37.75 -0.265625 36.8125 -0.046875 C 35.875 0.171875 34.847656 0.28125 33.734375 0.28125 C 31.484375 0.28125 29.722656 -0.148438 28.453125 -1.015625 C 27.191406 -1.890625 26.285156 -3.25 25.734375 -5.09375 L 25.015625 -5.15625 C 23.171875 -1.238281 19.734375 0.71875 14.703125 0.71875 Z M 17.703125 -6.359375 C 19.890625 -6.359375 21.640625 -7.09375 22.953125 -8.5625 C 24.265625 -10.03125 24.921875 -12.078125 24.921875 -14.703125 L 24.921875 -18.53125 L 24.265625 -18.65625 C 23.691406 -18.207031 22.941406 -17.828125 22.015625 -17.515625 C 21.097656 -17.210938 19.773438 -16.910156 18.046875 -16.609375 C 15.992188 -16.265625 14.515625 -15.675781 13.609375 -14.84375 C 12.710938 -14.019531 12.265625 -12.84375 12.265625 -11.3125 C 12.265625 -9.695312 12.742188 -8.46875 13.703125 -7.625 C 14.660156 -6.78125 15.992188 -6.359375 17.703125 -6.359375 Z M 17.703125 -6.359375 "/></g></g></g><g fill="#ffffff" fill-opacity="1"><g transform="translate(659.964337, 296.250005)"><g><path d="M 10.625 0 L 0.65625 0 L 11.421875 -19.546875 L 1.234375 -37.703125 L 11.34375 -37.703125 L 17.875 -25.296875 L 18.65625 -25.296875 L 25.21875 -37.703125 L 35.03125 -37.703125 L 25.15625 -19.546875 L 35.609375 0 L 25.53125 0 L 18.421875 -13.78125 L 17.640625 -13.78125 Z M 10.625 0 "/></g></g></g></svg>