<svg xmlns="http://www.w3.org/2000/svg" xmlns:xlink="http://www.w3.org/1999/xlink" width="1920" zoomAndPan="magnify" viewBox="0 0 1440 809.999993" height="1080" preserveAspectRatio="xMidYMid meet" version="1.0"><defs><g/><clipPath id="da01eec433"><path d="M 551 346.789062 L 894.394531 346.789062 L 894.394531 747 L 551 747 Z M 551 346.789062 " clip-rule="nonzero"/></clipPath></defs><rect x="-144" width="1728" fill="#ffffff" y="-80.999999" height="971.999992" fill-opacity="1"/><rect x="-144" width="1728" fill="#334155" y="-80.999999" height="971.999992" fill-opacity="1"/><g clip-path="url(#da01eec433)"><path fill="#f19020" d="M 583.996094 502.015625 C 583.996094 416.367188 653.480469 346.9375 739.199219 346.9375 C 824.914062 346.9375 894.402344 416.367188 894.402344 502.015625 C 894.402344 544.863281 876.988281 583.675781 848.890625 611.722656 L 856.875 683.53125 C 858.40625 697.289062 849.414062 710.023438 835.929688 713.195312 L 698.832031 745.425781 C 682.625 749.234375 666.792969 737.832031 665.285156 721.265625 L 662.765625 693.582031 L 629.640625 693.582031 C 609.472656 693.582031 593.125 677.246094 593.125 657.09375 L 593.125 618.886719 L 571.847656 613.570312 C 555.34375 609.449219 546.554688 591.441406 553.464844 575.90625 L 584.074219 507.082031 C 584.023438 505.398438 583.996094 503.710938 583.996094 502.015625 Z M 739.199219 383.425781 C 673.648438 383.425781 620.511719 436.519531 620.511719 502.015625 C 620.511719 504.625 620.597656 507.214844 620.761719 509.777344 C 621.027344 513.859375 619.941406 517.703125 617.898438 520.886719 L 591.246094 580.804688 L 608.898438 585.214844 C 621.089844 588.257812 629.640625 599.207031 629.640625 611.765625 L 629.640625 657.09375 L 671.101562 657.09375 C 685.269531 657.09375 697.097656 667.886719 698.378906 681.984375 L 700.703125 707.5 L 819.6875 679.527344 L 812.113281 611.40625 C 811.113281 602.429688 814.625 593.957031 820.699219 588.222656 C 843.617188 566.578125 857.882812 535.976562 857.882812 502.015625 C 857.882812 436.519531 804.746094 383.425781 739.199219 383.425781 Z M 739.199219 383.425781 " fill-opacity="1" fill-rule="evenodd"/></g><path fill="#f19020" d="M 730.0625 438.160156 C 719.976562 438.160156 711.800781 446.328125 711.800781 456.40625 L 711.800781 474.648438 L 675.28125 474.648438 L 675.28125 456.40625 C 675.28125 426.175781 699.808594 401.671875 730.0625 401.671875 L 748.320312 401.671875 C 778.574219 401.671875 803.097656 426.175781 803.097656 456.40625 L 803.097656 457.113281 C 803.097656 473.738281 795.53125 489.464844 782.539062 499.851562 L 764.300781 514.429688 C 759.972656 517.890625 757.449219 523.132812 757.449219 528.675781 L 757.449219 547.628906 L 720.929688 547.628906 L 720.929688 528.675781 C 720.929688 512.046875 728.496094 496.324219 741.488281 485.9375 L 759.726562 471.359375 C 764.058594 467.894531 766.578125 462.652344 766.578125 457.113281 L 766.578125 456.40625 C 766.578125 446.328125 758.40625 438.160156 748.320312 438.160156 Z M 730.0625 438.160156 " fill-opacity="1" fill-rule="evenodd"/><path fill="#f19020" d="M 720.929688 584.117188 L 757.449219 584.117188 L 757.449219 611.484375 L 720.929688 611.484375 Z M 720.929688 584.117188 " fill-opacity="1" fill-rule="evenodd"/><g fill="#ffffff" fill-opacity="1"><g transform="translate(318.096744, 159.249972)"><g><path d="M 18.71875 -25.078125 L 18.71875 -9.453125 L 45.984375 -9.453125 L 45.984375 0 L 7.421875 0 L 7.421875 -57.109375 L 45.359375 -57.109375 L 45.359375 -47.65625 L 18.71875 -47.65625 L 18.71875 -34.296875 L 42 -34.296875 L 42 -25.078125 Z M 18.71875 -25.078125 "/></g></g></g><g fill="#ffffff" fill-opacity="1"><g transform="translate(367.193509, 159.249972)"><g><path d="M 29.65625 0 L 16.765625 0 L 0.828125 -43.09375 L 12.15625 -43.09375 L 22.859375 -12.390625 L 23.75 -12.390625 L 34.5 -43.09375 L 45.546875 -43.09375 Z M 29.65625 0 "/></g></g></g><g fill="#ffffff" fill-opacity="1"><g transform="translate(413.517107, 159.249972)"><g><path d="M 42.578125 -19.109375 L 14.890625 -19.109375 C 15.203125 -15.359375 16.269531 -12.628906 18.09375 -10.921875 C 19.914062 -9.210938 22.398438 -8.359375 25.546875 -8.359375 C 28.023438 -8.359375 30.03125 -8.820312 31.5625 -9.75 C 33.101562 -10.675781 34.34375 -12.078125 35.28125 -13.953125 L 36.09375 -13.953125 L 43.28125 -9.34375 C 41.875 -6.320312 39.75 -3.867188 36.90625 -1.984375 C 34.070312 -0.109375 30.285156 0.828125 25.546875 0.828125 C 21.097656 0.828125 17.25 -0.0195312 14 -1.71875 C 10.757812 -3.414062 8.257812 -5.9375 6.5 -9.28125 C 4.75 -12.625 3.875 -16.707031 3.875 -21.53125 C 3.875 -26.425781 4.796875 -30.550781 6.640625 -33.90625 C 8.492188 -37.269531 10.992188 -39.773438 14.140625 -41.421875 C 17.296875 -43.078125 20.835938 -43.90625 24.765625 -43.90625 C 30.859375 -43.90625 35.523438 -42.289062 38.765625 -39.0625 C 42.015625 -35.832031 43.640625 -31.09375 43.640625 -24.84375 C 43.640625 -22.582031 43.5625 -20.828125 43.40625 -19.578125 Z M 33.28125 -26.09375 C 33.175781 -29.375 32.414062 -31.765625 31 -33.265625 C 29.582031 -34.765625 27.503906 -35.515625 24.765625 -35.515625 C 19.296875 -35.515625 16.082031 -32.375 15.125 -26.09375 Z M 33.28125 -26.09375 "/></g></g></g><g fill="#ffffff" fill-opacity="1"><g transform="translate(460.348469, 159.249972)"><g><path d="M 6.21875 0 L 6.21875 -43.09375 L 16.71875 -43.09375 L 16.71875 -36.6875 L 17.546875 -36.53125 C 18.585938 -38.925781 19.953125 -40.679688 21.640625 -41.796875 C 23.335938 -42.921875 25.394531 -43.484375 27.8125 -43.484375 C 30.257812 -43.484375 32.125 -43.066406 33.40625 -42.234375 L 31.5625 -32.890625 L 30.75 -32.734375 C 30.039062 -33.023438 29.359375 -33.234375 28.703125 -33.359375 C 28.054688 -33.492188 27.265625 -33.5625 26.328125 -33.5625 C 23.304688 -33.5625 21 -32.5 19.40625 -30.375 C 17.820312 -28.25 17.03125 -24.84375 17.03125 -20.15625 L 17.03125 0 Z M 6.21875 0 "/></g></g></g><g fill="#ffffff" fill-opacity="1"><g transform="translate(494.13423, 159.249972)"><g/></g></g><g fill="#ffffff" fill-opacity="1"><g transform="translate(512.999574, 159.249972)"><g><path d="M 6.21875 0 L 6.21875 -60.390625 L 17.03125 -60.390625 L 17.03125 -37.46875 L 17.859375 -37.3125 C 19.285156 -39.414062 21.039062 -41.039062 23.125 -42.1875 C 25.207031 -43.332031 27.722656 -43.90625 30.671875 -43.90625 C 40.171875 -43.90625 44.921875 -38.515625 44.921875 -27.734375 L 44.921875 0 L 34.109375 0 L 34.109375 -26.375 C 34.109375 -29.3125 33.519531 -31.441406 32.34375 -32.765625 C 31.175781 -34.097656 29.351562 -34.765625 26.875 -34.765625 C 23.851562 -34.765625 21.457031 -33.753906 19.6875 -31.734375 C 17.914062 -29.722656 17.03125 -26.582031 17.03125 -22.3125 L 17.03125 0 Z M 6.21875 0 "/></g></g></g><g fill="#ffffff" fill-opacity="1"><g transform="translate(563.463392, 159.249972)"><g><path d="M 16.796875 0.828125 C 14.035156 0.828125 11.640625 0.316406 9.609375 -0.703125 C 7.578125 -1.722656 6.015625 -3.210938 4.921875 -5.171875 C 3.828125 -7.140625 3.28125 -9.503906 3.28125 -12.265625 C 3.28125 -14.816406 3.828125 -16.957031 4.921875 -18.6875 C 6.015625 -20.425781 7.707031 -21.847656 10 -22.953125 C 12.289062 -24.054688 15.285156 -24.910156 18.984375 -25.515625 C 21.566406 -25.929688 23.523438 -26.382812 24.859375 -26.875 C 26.203125 -27.375 27.109375 -27.9375 27.578125 -28.5625 C 28.046875 -29.1875 28.28125 -29.976562 28.28125 -30.9375 C 28.28125 -32.320312 27.796875 -33.378906 26.828125 -34.109375 C 25.867188 -34.835938 24.269531 -35.203125 22.03125 -35.203125 C 19.632812 -35.203125 17.351562 -34.664062 15.1875 -33.59375 C 13.03125 -32.53125 11.160156 -31.125 9.578125 -29.375 L 8.796875 -29.375 L 4.265625 -36.21875 C 6.453125 -38.632812 9.117188 -40.519531 12.265625 -41.875 C 15.421875 -43.226562 18.859375 -43.90625 22.578125 -43.90625 C 28.285156 -43.90625 32.414062 -42.691406 34.96875 -40.265625 C 37.519531 -37.847656 38.796875 -34.414062 38.796875 -29.96875 L 38.796875 -11.25 C 38.796875 -9.320312 39.640625 -8.359375 41.328125 -8.359375 C 41.984375 -8.359375 42.625 -8.476562 43.25 -8.71875 L 43.796875 -8.5625 L 44.578125 -1.015625 C 43.972656 -0.628906 43.132812 -0.3125 42.0625 -0.0625 C 41 0.1875 39.832031 0.3125 38.5625 0.3125 C 35.976562 0.3125 33.960938 -0.179688 32.515625 -1.171875 C 31.078125 -2.160156 30.046875 -3.710938 29.421875 -5.828125 L 28.59375 -5.90625 C 26.488281 -1.414062 22.554688 0.828125 16.796875 0.828125 Z M 20.234375 -7.265625 C 22.734375 -7.265625 24.734375 -8.101562 26.234375 -9.78125 C 27.734375 -11.46875 28.484375 -13.804688 28.484375 -16.796875 L 28.484375 -21.171875 L 27.734375 -21.328125 C 27.085938 -20.804688 26.234375 -20.367188 25.171875 -20.015625 C 24.117188 -19.671875 22.601562 -19.328125 20.625 -18.984375 C 18.28125 -18.597656 16.59375 -17.925781 15.5625 -16.96875 C 14.539062 -16.019531 14.03125 -14.675781 14.03125 -12.9375 C 14.03125 -11.082031 14.578125 -9.671875 15.671875 -8.703125 C 16.765625 -7.742188 18.285156 -7.265625 20.234375 -7.265625 Z M 20.234375 -7.265625 "/></g></g></g><g fill="#ffffff" fill-opacity="1"><g transform="translate(608.88863, 159.249972)"><g><path d="M 21.296875 0.828125 C 17.878906 0.828125 14.863281 0 12.25 -1.65625 C 9.632812 -3.3125 7.582031 -5.8125 6.09375 -9.15625 C 4.613281 -12.507812 3.875 -16.632812 3.875 -21.53125 C 3.875 -26.445312 4.632812 -30.578125 6.15625 -33.921875 C 7.675781 -37.273438 9.785156 -39.773438 12.484375 -41.421875 C 15.179688 -43.078125 18.300781 -43.90625 21.84375 -43.90625 C 24.519531 -43.90625 26.84375 -43.441406 28.8125 -42.515625 C 30.78125 -41.597656 32.441406 -40.160156 33.796875 -38.203125 L 34.609375 -38.40625 L 34.609375 -60.390625 L 45.4375 -60.390625 L 45.4375 0 L 34.609375 0 L 34.609375 -5.59375 L 33.796875 -5.75 C 32.597656 -3.71875 30.957031 -2.113281 28.875 -0.9375 C 26.789062 0.238281 24.265625 0.828125 21.296875 0.828125 Z M 24.8125 -8.359375 C 27.851562 -8.359375 30.257812 -9.445312 32.03125 -11.625 C 33.800781 -13.800781 34.6875 -17.101562 34.6875 -21.53125 C 34.6875 -25.957031 33.800781 -29.265625 32.03125 -31.453125 C 30.257812 -33.640625 27.851562 -34.734375 24.8125 -34.734375 C 21.632812 -34.734375 19.203125 -33.671875 17.515625 -31.546875 C 15.835938 -29.421875 15 -26.082031 15 -21.53125 C 15 -17 15.835938 -13.671875 17.515625 -11.546875 C 19.203125 -9.421875 21.632812 -8.359375 24.8125 -8.359375 Z M 24.8125 -8.359375 "/></g></g></g><g fill="#ffffff" fill-opacity="1"><g transform="translate(660.524209, 159.249972)"><g/></g></g><g fill="#ffffff" fill-opacity="1"><g transform="translate(679.389542, 159.249972)"><g><path d="M 16.796875 0.828125 C 14.035156 0.828125 11.640625 0.316406 9.609375 -0.703125 C 7.578125 -1.722656 6.015625 -3.210938 4.921875 -5.171875 C 3.828125 -7.140625 3.28125 -9.503906 3.28125 -12.265625 C 3.28125 -14.816406 3.828125 -16.957031 4.921875 -18.6875 C 6.015625 -20.425781 7.707031 -21.847656 10 -22.953125 C 12.289062 -24.054688 15.285156 -24.910156 18.984375 -25.515625 C 21.566406 -25.929688 23.523438 -26.382812 24.859375 -26.875 C 26.203125 -27.375 27.109375 -27.9375 27.578125 -28.5625 C 28.046875 -29.1875 28.28125 -29.976562 28.28125 -30.9375 C 28.28125 -32.320312 27.796875 -33.378906 26.828125 -34.109375 C 25.867188 -34.835938 24.269531 -35.203125 22.03125 -35.203125 C 19.632812 -35.203125 17.351562 -34.664062 15.1875 -33.59375 C 13.03125 -32.53125 11.160156 -31.125 9.578125 -29.375 L 8.796875 -29.375 L 4.265625 -36.21875 C 6.453125 -38.632812 9.117188 -40.519531 12.265625 -41.875 C 15.421875 -43.226562 18.859375 -43.90625 22.578125 -43.90625 C 28.285156 -43.90625 32.414062 -42.691406 34.96875 -40.265625 C 37.519531 -37.847656 38.796875 -34.414062 38.796875 -29.96875 L 38.796875 -11.25 C 38.796875 -9.320312 39.640625 -8.359375 41.328125 -8.359375 C 41.984375 -8.359375 42.625 -8.476562 43.25 -8.71875 L 43.796875 -8.5625 L 44.578125 -1.015625 C 43.972656 -0.628906 43.132812 -0.3125 42.0625 -0.0625 C 41 0.1875 39.832031 0.3125 38.5625 0.3125 C 35.976562 0.3125 33.960938 -0.179688 32.515625 -1.171875 C 31.078125 -2.160156 30.046875 -3.710938 29.421875 -5.828125 L 28.59375 -5.90625 C 26.488281 -1.414062 22.554688 0.828125 16.796875 0.828125 Z M 20.234375 -7.265625 C 22.734375 -7.265625 24.734375 -8.101562 26.234375 -9.78125 C 27.734375 -11.46875 28.484375 -13.804688 28.484375 -16.796875 L 28.484375 -21.171875 L 27.734375 -21.328125 C 27.085938 -20.804688 26.234375 -20.367188 25.171875 -20.015625 C 24.117188 -19.671875 22.601562 -19.328125 20.625 -18.984375 C 18.28125 -18.597656 16.59375 -17.925781 15.5625 -16.96875 C 14.539062 -16.019531 14.03125 -14.675781 14.03125 -12.9375 C 14.03125 -11.082031 14.578125 -9.671875 15.671875 -8.703125 C 16.765625 -7.742188 18.285156 -7.265625 20.234375 -7.265625 Z M 20.234375 -7.265625 "/></g></g></g><g fill="#ffffff" fill-opacity="1"><g transform="translate(724.814802, 159.249972)"><g/></g></g><g fill="#ffffff" fill-opacity="1"><g transform="translate(743.680158, 159.249972)"><g><path d="M 6.21875 0 L 6.21875 -60.390625 L 17.03125 -60.390625 L 17.03125 -37.46875 L 17.859375 -37.3125 C 19.285156 -39.414062 21.039062 -41.039062 23.125 -42.1875 C 25.207031 -43.332031 27.722656 -43.90625 30.671875 -43.90625 C 40.171875 -43.90625 44.921875 -38.515625 44.921875 -27.734375 L 44.921875 0 L 34.109375 0 L 34.109375 -26.375 C 34.109375 -29.3125 33.519531 -31.441406 32.34375 -32.765625 C 31.175781 -34.097656 29.351562 -34.765625 26.875 -34.765625 C 23.851562 -34.765625 21.457031 -33.753906 19.6875 -31.734375 C 17.914062 -29.722656 17.03125 -26.582031 17.03125 -22.3125 L 17.03125 0 Z M 6.21875 0 "/></g></g></g><g fill="#ffffff" fill-opacity="1"><g transform="translate(794.143977, 159.249972)"><g><path d="M 16.796875 0.828125 C 14.035156 0.828125 11.640625 0.316406 9.609375 -0.703125 C 7.578125 -1.722656 6.015625 -3.210938 4.921875 -5.171875 C 3.828125 -7.140625 3.28125 -9.503906 3.28125 -12.265625 C 3.28125 -14.816406 3.828125 -16.957031 4.921875 -18.6875 C 6.015625 -20.425781 7.707031 -21.847656 10 -22.953125 C 12.289062 -24.054688 15.285156 -24.910156 18.984375 -25.515625 C 21.566406 -25.929688 23.523438 -26.382812 24.859375 -26.875 C 26.203125 -27.375 27.109375 -27.9375 27.578125 -28.5625 C 28.046875 -29.1875 28.28125 -29.976562 28.28125 -30.9375 C 28.28125 -32.320312 27.796875 -33.378906 26.828125 -34.109375 C 25.867188 -34.835938 24.269531 -35.203125 22.03125 -35.203125 C 19.632812 -35.203125 17.351562 -34.664062 15.1875 -33.59375 C 13.03125 -32.53125 11.160156 -31.125 9.578125 -29.375 L 8.796875 -29.375 L 4.265625 -36.21875 C 6.453125 -38.632812 9.117188 -40.519531 12.265625 -41.875 C 15.421875 -43.226562 18.859375 -43.90625 22.578125 -43.90625 C 28.285156 -43.90625 32.414062 -42.691406 34.96875 -40.265625 C 37.519531 -37.847656 38.796875 -34.414062 38.796875 -29.96875 L 38.796875 -11.25 C 38.796875 -9.320312 39.640625 -8.359375 41.328125 -8.359375 C 41.984375 -8.359375 42.625 -8.476562 43.25 -8.71875 L 43.796875 -8.5625 L 44.578125 -1.015625 C 43.972656 -0.628906 43.132812 -0.3125 42.0625 -0.0625 C 41 0.1875 39.832031 0.3125 38.5625 0.3125 C 35.976562 0.3125 33.960938 -0.179688 32.515625 -1.171875 C 31.078125 -2.160156 30.046875 -3.710938 29.421875 -5.828125 L 28.59375 -5.90625 C 26.488281 -1.414062 22.554688 0.828125 16.796875 0.828125 Z M 20.234375 -7.265625 C 22.734375 -7.265625 24.734375 -8.101562 26.234375 -9.78125 C 27.734375 -11.46875 28.484375 -13.804688 28.484375 -16.796875 L 28.484375 -21.171875 L 27.734375 -21.328125 C 27.085938 -20.804688 26.234375 -20.367188 25.171875 -20.015625 C 24.117188 -19.671875 22.601562 -19.328125 20.625 -18.984375 C 18.28125 -18.597656 16.59375 -17.925781 15.5625 -16.96875 C 14.539062 -16.019531 14.03125 -14.675781 14.03125 -12.9375 C 14.03125 -11.082031 14.578125 -9.671875 15.671875 -8.703125 C 16.765625 -7.742188 18.285156 -7.265625 20.234375 -7.265625 Z M 20.234375 -7.265625 "/></g></g></g><g fill="#ffffff" fill-opacity="1"><g transform="translate(839.569237, 159.249972)"><g><path d="M 6.21875 0 L 6.21875 -43.09375 L 16.71875 -43.09375 L 16.71875 -36.6875 L 17.546875 -36.53125 C 18.585938 -38.925781 19.953125 -40.679688 21.640625 -41.796875 C 23.335938 -42.921875 25.394531 -43.484375 27.8125 -43.484375 C 30.257812 -43.484375 32.125 -43.066406 33.40625 -42.234375 L 31.5625 -32.890625 L 30.75 -32.734375 C 30.039062 -33.023438 29.359375 -33.234375 28.703125 -33.359375 C 28.054688 -33.492188 27.265625 -33.5625 26.328125 -33.5625 C 23.304688 -33.5625 21 -32.5 19.40625 -30.375 C 17.820312 -28.25 17.03125 -24.84375 17.03125 -20.15625 L 17.03125 0 Z M 6.21875 0 "/></g></g></g><g fill="#ffffff" fill-opacity="1"><g transform="translate(873.354986, 159.249972)"><g><path d="M 21.296875 0.828125 C 17.878906 0.828125 14.863281 0 12.25 -1.65625 C 9.632812 -3.3125 7.582031 -5.8125 6.09375 -9.15625 C 4.613281 -12.507812 3.875 -16.632812 3.875 -21.53125 C 3.875 -26.445312 4.632812 -30.578125 6.15625 -33.921875 C 7.675781 -37.273438 9.785156 -39.773438 12.484375 -41.421875 C 15.179688 -43.078125 18.300781 -43.90625 21.84375 -43.90625 C 24.519531 -43.90625 26.84375 -43.441406 28.8125 -42.515625 C 30.78125 -41.597656 32.441406 -40.160156 33.796875 -38.203125 L 34.609375 -38.40625 L 34.609375 -60.390625 L 45.4375 -60.390625 L 45.4375 0 L 34.609375 0 L 34.609375 -5.59375 L 33.796875 -5.75 C 32.597656 -3.71875 30.957031 -2.113281 28.875 -0.9375 C 26.789062 0.238281 24.265625 0.828125 21.296875 0.828125 Z M 24.8125 -8.359375 C 27.851562 -8.359375 30.257812 -9.445312 32.03125 -11.625 C 33.800781 -13.800781 34.6875 -17.101562 34.6875 -21.53125 C 34.6875 -25.957031 33.800781 -29.265625 32.03125 -31.453125 C 30.257812 -33.640625 27.851562 -34.734375 24.8125 -34.734375 C 21.632812 -34.734375 19.203125 -33.671875 17.515625 -31.546875 C 15.835938 -29.421875 15 -26.082031 15 -21.53125 C 15 -17 15.835938 -13.671875 17.515625 -11.546875 C 19.203125 -9.421875 21.632812 -8.359375 24.8125 -8.359375 Z M 24.8125 -8.359375 "/></g></g></g><g fill="#ffffff" fill-opacity="1"><g transform="translate(924.990543, 159.249972)"><g/></g></g><g fill="#ffffff" fill-opacity="1"><g transform="translate(943.855899, 159.249972)"><g><path d="M 29.734375 -10.28125 L 32.546875 -2.265625 C 31.367188 -1.304688 29.894531 -0.550781 28.125 0 C 26.351562 0.550781 24.347656 0.828125 22.109375 0.828125 C 17.453125 0.828125 13.910156 -0.441406 11.484375 -2.984375 C 9.066406 -5.523438 7.859375 -9.21875 7.859375 -14.0625 L 7.859375 -34.53125 L 1.296875 -34.53125 L 1.296875 -43.125 L 7.859375 -43.125 L 7.859375 -51.53125 L 18.671875 -53.28125 L 18.671875 -43.125 L 30.90625 -43.125 L 30.90625 -34.53125 L 18.671875 -34.53125 L 18.671875 -14.84375 C 18.671875 -12.707031 19.113281 -11.148438 20 -10.171875 C 20.882812 -9.203125 22.175781 -8.71875 23.875 -8.71875 C 25.800781 -8.71875 27.476562 -9.238281 28.90625 -10.28125 Z M 29.734375 -10.28125 "/></g></g></g><g fill="#ffffff" fill-opacity="1"><g transform="translate(977.329179, 159.249972)"><g><path d="M 11.609375 -48.25 C 9.648438 -48.25 8.054688 -48.835938 6.828125 -50.015625 C 5.609375 -51.203125 5 -52.734375 5 -54.609375 C 5 -56.460938 5.609375 -57.976562 6.828125 -59.15625 C 8.054688 -60.34375 9.648438 -60.9375 11.609375 -60.9375 C 12.910156 -60.9375 14.066406 -60.660156 15.078125 -60.109375 C 16.097656 -59.566406 16.882812 -58.820312 17.4375 -57.875 C 18 -56.925781 18.28125 -55.835938 18.28125 -54.609375 C 18.28125 -53.390625 18 -52.296875 17.4375 -51.328125 C 16.882812 -50.367188 16.097656 -49.613281 15.078125 -49.0625 C 14.066406 -48.519531 12.910156 -48.25 11.609375 -48.25 Z M 6.21875 0 L 6.21875 -43.09375 L 17.03125 -43.09375 L 17.03125 0 Z M 6.21875 0 "/></g></g></g><g fill="#ffffff" fill-opacity="1"><g transform="translate(1000.530059, 159.249972)"><g><path d="M 6.21875 0 L 6.21875 -43.09375 L 16.609375 -43.09375 L 16.609375 -37.3125 L 17.421875 -37.15625 C 18.828125 -39.46875 20.472656 -41.171875 22.359375 -42.265625 C 24.253906 -43.359375 26.671875 -43.90625 29.609375 -43.90625 C 32.867188 -43.90625 35.488281 -43.257812 37.46875 -41.96875 C 39.445312 -40.6875 40.890625 -38.804688 41.796875 -36.328125 L 42.625 -36.328125 C 43.945312 -38.910156 45.65625 -40.816406 47.75 -42.046875 C 49.851562 -43.285156 52.46875 -43.90625 55.59375 -43.90625 C 64.519531 -43.90625 68.984375 -38.929688 68.984375 -28.984375 L 68.984375 0 L 58.171875 0 L 58.171875 -27.625 C 58.171875 -30.144531 57.675781 -31.960938 56.6875 -33.078125 C 55.695312 -34.203125 54.109375 -34.765625 51.921875 -34.765625 C 45.984375 -34.765625 43.015625 -30.796875 43.015625 -22.859375 L 43.015625 0 L 32.1875 0 L 32.1875 -27.625 C 32.1875 -30.144531 31.6875 -31.960938 30.6875 -33.078125 C 29.6875 -34.203125 28.09375 -34.765625 25.90625 -34.765625 C 23.113281 -34.765625 20.9375 -33.832031 19.375 -31.96875 C 17.8125 -30.113281 17.03125 -27.15625 17.03125 -23.09375 L 17.03125 0 Z M 6.21875 0 "/></g></g></g><g fill="#ffffff" fill-opacity="1"><g transform="translate(1075.054027, 159.249972)"><g><path d="M 42.578125 -19.109375 L 14.890625 -19.109375 C 15.203125 -15.359375 16.269531 -12.628906 18.09375 -10.921875 C 19.914062 -9.210938 22.398438 -8.359375 25.546875 -8.359375 C 28.023438 -8.359375 30.03125 -8.820312 31.5625 -9.75 C 33.101562 -10.675781 34.34375 -12.078125 35.28125 -13.953125 L 36.09375 -13.953125 L 43.28125 -9.34375 C 41.875 -6.320312 39.75 -3.867188 36.90625 -1.984375 C 34.070312 -0.109375 30.285156 0.828125 25.546875 0.828125 C 21.097656 0.828125 17.25 -0.0195312 14 -1.71875 C 10.757812 -3.414062 8.257812 -5.9375 6.5 -9.28125 C 4.75 -12.625 3.875 -16.707031 3.875 -21.53125 C 3.875 -26.425781 4.796875 -30.550781 6.640625 -33.90625 C 8.492188 -37.269531 10.992188 -39.773438 14.140625 -41.421875 C 17.296875 -43.078125 20.835938 -43.90625 24.765625 -43.90625 C 30.859375 -43.90625 35.523438 -42.289062 38.765625 -39.0625 C 42.015625 -35.832031 43.640625 -31.09375 43.640625 -24.84375 C 43.640625 -22.582031 43.5625 -20.828125 43.40625 -19.578125 Z M 33.28125 -26.09375 C 33.175781 -29.375 32.414062 -31.765625 31 -33.265625 C 29.582031 -34.765625 27.503906 -35.515625 24.765625 -35.515625 C 19.296875 -35.515625 16.082031 -32.375 15.125 -26.09375 Z M 33.28125 -26.09375 "/></g></g></g><g fill="#ffffff" fill-opacity="1"><g transform="translate(332.042055, 270.999966)"><g><path d="M 6.21875 0 L 6.21875 -43.09375 L 16.609375 -43.09375 L 16.609375 -37.3125 L 17.421875 -37.15625 C 18.828125 -39.46875 20.472656 -41.171875 22.359375 -42.265625 C 24.253906 -43.359375 26.671875 -43.90625 29.609375 -43.90625 C 32.867188 -43.90625 35.488281 -43.257812 37.46875 -41.96875 C 39.445312 -40.6875 40.890625 -38.804688 41.796875 -36.328125 L 42.625 -36.328125 C 43.945312 -38.910156 45.65625 -40.816406 47.75 -42.046875 C 49.851562 -43.285156 52.46875 -43.90625 55.59375 -43.90625 C 64.519531 -43.90625 68.984375 -38.929688 68.984375 -28.984375 L 68.984375 0 L 58.171875 0 L 58.171875 -27.625 C 58.171875 -30.144531 57.675781 -31.960938 56.6875 -33.078125 C 55.695312 -34.203125 54.109375 -34.765625 51.921875 -34.765625 C 45.984375 -34.765625 43.015625 -30.796875 43.015625 -22.859375 L 43.015625 0 L 32.1875 0 L 32.1875 -27.625 C 32.1875 -30.144531 31.6875 -31.960938 30.6875 -33.078125 C 29.6875 -34.203125 28.09375 -34.765625 25.90625 -34.765625 C 23.113281 -34.765625 20.9375 -33.832031 19.375 -31.96875 C 17.8125 -30.113281 17.03125 -27.15625 17.03125 -23.09375 L 17.03125 0 Z M 6.21875 0 "/></g></g></g><g fill="#ffffff" fill-opacity="1"><g transform="translate(406.566023, 270.999966)"><g><path d="M 42.578125 -19.109375 L 14.890625 -19.109375 C 15.203125 -15.359375 16.269531 -12.628906 18.09375 -10.921875 C 19.914062 -9.210938 22.398438 -8.359375 25.546875 -8.359375 C 28.023438 -8.359375 30.03125 -8.820312 31.5625 -9.75 C 33.101562 -10.675781 34.34375 -12.078125 35.28125 -13.953125 L 36.09375 -13.953125 L 43.28125 -9.34375 C 41.875 -6.320312 39.75 -3.867188 36.90625 -1.984375 C 34.070312 -0.109375 30.285156 0.828125 25.546875 0.828125 C 21.097656 0.828125 17.25 -0.0195312 14 -1.71875 C 10.757812 -3.414062 8.257812 -5.9375 6.5 -9.28125 C 4.75 -12.625 3.875 -16.707031 3.875 -21.53125 C 3.875 -26.425781 4.796875 -30.550781 6.640625 -33.90625 C 8.492188 -37.269531 10.992188 -39.773438 14.140625 -41.421875 C 17.296875 -43.078125 20.835938 -43.90625 24.765625 -43.90625 C 30.859375 -43.90625 35.523438 -42.289062 38.765625 -39.0625 C 42.015625 -35.832031 43.640625 -31.09375 43.640625 -24.84375 C 43.640625 -22.582031 43.5625 -20.828125 43.40625 -19.578125 Z M 33.28125 -26.09375 C 33.175781 -29.375 32.414062 -31.765625 31 -33.265625 C 29.582031 -34.765625 27.503906 -35.515625 24.765625 -35.515625 C 19.296875 -35.515625 16.082031 -32.375 15.125 -26.09375 Z M 33.28125 -26.09375 "/></g></g></g><g fill="#ffffff" fill-opacity="1"><g transform="translate(453.397384, 270.999966)"><g><path d="M 6.21875 0 L 6.21875 -43.09375 L 16.609375 -43.09375 L 16.609375 -37.3125 L 17.421875 -37.15625 C 18.828125 -39.46875 20.472656 -41.171875 22.359375 -42.265625 C 24.253906 -43.359375 26.671875 -43.90625 29.609375 -43.90625 C 32.867188 -43.90625 35.488281 -43.257812 37.46875 -41.96875 C 39.445312 -40.6875 40.890625 -38.804688 41.796875 -36.328125 L 42.625 -36.328125 C 43.945312 -38.910156 45.65625 -40.816406 47.75 -42.046875 C 49.851562 -43.285156 52.46875 -43.90625 55.59375 -43.90625 C 64.519531 -43.90625 68.984375 -38.929688 68.984375 -28.984375 L 68.984375 0 L 58.171875 0 L 58.171875 -27.625 C 58.171875 -30.144531 57.675781 -31.960938 56.6875 -33.078125 C 55.695312 -34.203125 54.109375 -34.765625 51.921875 -34.765625 C 45.984375 -34.765625 43.015625 -30.796875 43.015625 -22.859375 L 43.015625 0 L 32.1875 0 L 32.1875 -27.625 C 32.1875 -30.144531 31.6875 -31.960938 30.6875 -33.078125 C 29.6875 -34.203125 28.09375 -34.765625 25.90625 -34.765625 C 23.113281 -34.765625 20.9375 -33.832031 19.375 -31.96875 C 17.8125 -30.113281 17.03125 -27.15625 17.03125 -23.09375 L 17.03125 0 Z M 6.21875 0 "/></g></g></g><g fill="#ffffff" fill-opacity="1"><g transform="translate(527.921364, 270.999966)"><g><path d="M 25.046875 0.828125 C 20.828125 0.828125 17.117188 -0.0351562 13.921875 -1.765625 C 10.734375 -3.503906 8.257812 -6.046875 6.5 -9.390625 C 4.75 -12.742188 3.875 -16.789062 3.875 -21.53125 C 3.875 -26.269531 4.75 -30.316406 6.5 -33.671875 C 8.257812 -37.035156 10.734375 -39.582031 13.921875 -41.3125 C 17.117188 -43.039062 20.828125 -43.90625 25.046875 -43.90625 C 29.265625 -43.90625 32.96875 -43.039062 36.15625 -41.3125 C 39.34375 -39.582031 41.820312 -37.035156 43.59375 -33.671875 C 45.363281 -30.316406 46.25 -26.269531 46.25 -21.53125 C 46.25 -16.789062 45.363281 -12.742188 43.59375 -9.390625 C 41.820312 -6.046875 39.34375 -3.503906 36.15625 -1.765625 C 32.96875 -0.0351562 29.265625 0.828125 25.046875 0.828125 Z M 25.046875 -8.359375 C 31.734375 -8.359375 35.078125 -12.75 35.078125 -21.53125 C 35.078125 -26.082031 34.21875 -29.421875 32.5 -31.546875 C 30.78125 -33.671875 28.296875 -34.734375 25.046875 -34.734375 C 18.347656 -34.734375 15 -30.332031 15 -21.53125 C 15 -12.75 18.347656 -8.359375 25.046875 -8.359375 Z M 25.046875 -8.359375 "/></g></g></g><g fill="#ffffff" fill-opacity="1"><g transform="translate(577.994596, 270.999966)"><g><path d="M 6.21875 0 L 6.21875 -43.09375 L 16.71875 -43.09375 L 16.71875 -36.6875 L 17.546875 -36.53125 C 18.585938 -38.925781 19.953125 -40.679688 21.640625 -41.796875 C 23.335938 -42.921875 25.394531 -43.484375 27.8125 -43.484375 C 30.257812 -43.484375 32.125 -43.066406 33.40625 -42.234375 L 31.5625 -32.890625 L 30.75 -32.734375 C 30.039062 -33.023438 29.359375 -33.234375 28.703125 -33.359375 C 28.054688 -33.492188 27.265625 -33.5625 26.328125 -33.5625 C 23.304688 -33.5625 21 -32.5 19.40625 -30.375 C 17.820312 -28.25 17.03125 -24.84375 17.03125 -20.15625 L 17.03125 0 Z M 6.21875 0 "/></g></g></g><g fill="#ffffff" fill-opacity="1"><g transform="translate(611.780368, 270.999966)"><g><path d="M 11.609375 -48.25 C 9.648438 -48.25 8.054688 -48.835938 6.828125 -50.015625 C 5.609375 -51.203125 5 -52.734375 5 -54.609375 C 5 -56.460938 5.609375 -57.976562 6.828125 -59.15625 C 8.054688 -60.34375 9.648438 -60.9375 11.609375 -60.9375 C 12.910156 -60.9375 14.066406 -60.660156 15.078125 -60.109375 C 16.097656 -59.566406 16.882812 -58.820312 17.4375 -57.875 C 18 -56.925781 18.28125 -55.835938 18.28125 -54.609375 C 18.28125 -53.390625 18 -52.296875 17.4375 -51.328125 C 16.882812 -50.367188 16.097656 -49.613281 15.078125 -49.0625 C 14.066406 -48.519531 12.910156 -48.25 11.609375 -48.25 Z M 6.21875 0 L 6.21875 -43.09375 L 17.03125 -43.09375 L 17.03125 0 Z M 6.21875 0 "/></g></g></g><g fill="#ffffff" fill-opacity="1"><g transform="translate(634.981226, 270.999966)"><g><path d="M 36.171875 0 L 2.265625 0 L 2.265625 -8.953125 L 23.125 -33.71875 L 22.890625 -34.53125 L 3.25 -34.53125 L 3.25 -43.125 L 35.859375 -43.125 L 35.859375 -34.1875 L 15 -9.421875 L 15.28125 -8.59375 L 36.171875 -8.59375 Z M 36.171875 0 "/></g></g></g><g fill="#ffffff" fill-opacity="1"><g transform="translate(673.414971, 270.999966)"><g><path d="M 11.609375 -48.25 C 9.648438 -48.25 8.054688 -48.835938 6.828125 -50.015625 C 5.609375 -51.203125 5 -52.734375 5 -54.609375 C 5 -56.460938 5.609375 -57.976562 6.828125 -59.15625 C 8.054688 -60.34375 9.648438 -60.9375 11.609375 -60.9375 C 12.910156 -60.9375 14.066406 -60.660156 15.078125 -60.109375 C 16.097656 -59.566406 16.882812 -58.820312 17.4375 -57.875 C 18 -56.925781 18.28125 -55.835938 18.28125 -54.609375 C 18.28125 -53.390625 18 -52.296875 17.4375 -51.328125 C 16.882812 -50.367188 16.097656 -49.613281 15.078125 -49.0625 C 14.066406 -48.519531 12.910156 -48.25 11.609375 -48.25 Z M 6.21875 0 L 6.21875 -43.09375 L 17.03125 -43.09375 L 17.03125 0 Z M 6.21875 0 "/></g></g></g><g fill="#ffffff" fill-opacity="1"><g transform="translate(696.615829, 270.999966)"><g><path d="M 6.21875 0 L 6.21875 -43.09375 L 16.609375 -43.09375 L 16.609375 -36.765625 L 17.421875 -36.5625 C 20.109375 -41.457031 24.457031 -43.90625 30.46875 -43.90625 C 35.445312 -43.90625 39.097656 -42.550781 41.421875 -39.84375 C 43.753906 -37.132812 44.921875 -33.191406 44.921875 -28.015625 L 44.921875 0 L 34.109375 0 L 34.109375 -26.6875 C 34.109375 -29.550781 33.535156 -31.613281 32.390625 -32.875 C 31.242188 -34.132812 29.40625 -34.765625 26.875 -34.765625 C 23.78125 -34.765625 21.363281 -33.757812 19.625 -31.75 C 17.894531 -29.75 17.03125 -26.601562 17.03125 -22.3125 L 17.03125 0 Z M 6.21875 0 "/></g></g></g><g fill="#ffffff" fill-opacity="1"><g transform="translate(747.079648, 270.999966)"><g><path d="M 22.34375 18.28125 C 15.238281 18.28125 9.992188 17.238281 6.609375 15.15625 C 3.222656 13.070312 1.53125 10.171875 1.53125 6.453125 C 1.53125 4.179688 2.25 2.320312 3.6875 0.875 C 5.132812 -0.570312 7.210938 -1.539062 9.921875 -2.03125 L 9.921875 -2.859375 C 8.460938 -3.742188 7.414062 -4.722656 6.78125 -5.796875 C 6.144531 -6.878906 5.828125 -8.140625 5.828125 -9.578125 C 5.828125 -13.035156 8.078125 -15.363281 12.578125 -16.5625 L 12.578125 -17.390625 C 10.265625 -18.710938 8.519531 -20.359375 7.34375 -22.328125 C 6.175781 -24.296875 5.59375 -26.671875 5.59375 -29.453125 C 5.59375 -32.316406 6.25 -34.835938 7.5625 -37.015625 C 8.875 -39.191406 10.800781 -40.882812 13.34375 -42.09375 C 15.882812 -43.300781 18.925781 -43.90625 22.46875 -43.90625 C 26.0625 -43.90625 28.925781 -43.28125 31.0625 -42.03125 C 32.382812 -43.957031 33.148438 -46.1875 33.359375 -48.71875 L 34.1875 -49.21875 L 41.953125 -47.3125 C 41.722656 -45.25 41.125 -43.519531 40.15625 -42.125 C 39.195312 -40.738281 37.703125 -39.5 35.671875 -38.40625 L 35.671875 -37.546875 C 38.085938 -35.410156 39.296875 -32.425781 39.296875 -28.59375 C 39.296875 -25.9375 38.628906 -23.550781 37.296875 -21.4375 C 35.972656 -19.332031 34.039062 -17.664062 31.5 -16.4375 C 28.96875 -15.21875 25.957031 -14.609375 22.46875 -14.609375 L 20.828125 -14.65625 C 19.785156 -14.707031 19.054688 -14.734375 18.640625 -14.734375 C 17.648438 -14.734375 16.875 -14.460938 16.3125 -13.921875 C 15.75 -13.390625 15.46875 -12.707031 15.46875 -11.875 C 15.46875 -10.96875 15.832031 -10.257812 16.5625 -9.75 C 17.289062 -9.238281 18.359375 -8.957031 19.765625 -8.90625 L 29.421875 -8.5625 C 38.953125 -8.269531 43.71875 -4.164062 43.71875 3.75 C 43.71875 6.539062 43.003906 9.019531 41.578125 11.1875 C 40.160156 13.363281 37.863281 15.085938 34.6875 16.359375 C 31.507812 17.640625 27.394531 18.28125 22.34375 18.28125 Z M 22.46875 -22.1875 C 24.550781 -22.1875 26.175781 -22.796875 27.34375 -24.015625 C 28.519531 -25.242188 29.109375 -26.992188 29.109375 -29.265625 C 29.109375 -31.523438 28.519531 -33.257812 27.34375 -34.46875 C 26.175781 -35.6875 24.550781 -36.296875 22.46875 -36.296875 C 20.351562 -36.296875 18.722656 -35.6875 17.578125 -34.46875 C 16.429688 -33.257812 15.859375 -31.523438 15.859375 -29.265625 C 15.859375 -26.972656 16.429688 -25.21875 17.578125 -24 C 18.722656 -22.789062 20.351562 -22.1875 22.46875 -22.1875 Z M 22.34375 10.4375 C 26.039062 10.4375 28.726562 9.914062 30.40625 8.875 C 32.09375 7.832031 32.9375 6.476562 32.9375 4.8125 C 32.9375 3.457031 32.503906 2.457031 31.640625 1.8125 C 30.785156 1.175781 29.421875 0.832031 27.546875 0.78125 L 19.03125 0.390625 C 18.738281 0.390625 18.46875 0.375 18.21875 0.34375 C 17.976562 0.320312 17.738281 0.3125 17.5 0.3125 C 15.675781 0.3125 14.289062 0.703125 13.34375 1.484375 C 12.394531 2.265625 11.921875 3.347656 11.921875 4.734375 C 11.921875 6.554688 12.789062 7.960938 14.53125 8.953125 C 16.28125 9.941406 18.882812 10.4375 22.34375 10.4375 Z M 22.34375 10.4375 "/></g></g></g><g fill="#ffffff" fill-opacity="1"><g transform="translate(810.745325, 270.999966)"><g><path d="M 20.15625 0.828125 C 17.21875 0.828125 14.523438 0.484375 12.078125 -0.203125 C 9.628906 -0.898438 7.535156 -1.851562 5.796875 -3.0625 C 4.066406 -4.28125 2.785156 -5.671875 1.953125 -7.234375 L 7.96875 -13.71875 L 8.796875 -13.71875 C 10.222656 -11.789062 11.910156 -10.34375 13.859375 -9.375 C 15.816406 -8.414062 17.941406 -7.9375 20.234375 -7.9375 C 22.347656 -7.9375 23.9375 -8.3125 25 -9.0625 C 26.070312 -9.820312 26.609375 -10.90625 26.609375 -12.3125 C 26.609375 -13.40625 26.222656 -14.320312 25.453125 -15.0625 C 24.679688 -15.800781 23.4375 -16.378906 21.71875 -16.796875 L 16.015625 -18.171875 C 11.742188 -19.179688 8.625 -20.734375 6.65625 -22.828125 C 4.695312 -24.929688 3.71875 -27.597656 3.71875 -30.828125 C 3.71875 -33.503906 4.398438 -35.832031 5.765625 -37.8125 C 7.128906 -39.789062 9.054688 -41.300781 11.546875 -42.34375 C 14.035156 -43.382812 16.929688 -43.90625 20.234375 -43.90625 C 24.117188 -43.90625 27.335938 -43.34375 29.890625 -42.21875 C 32.441406 -41.101562 34.429688 -39.609375 35.859375 -37.734375 L 30.078125 -31.484375 L 29.296875 -31.484375 C 28.097656 -32.835938 26.75 -33.828125 25.25 -34.453125 C 23.757812 -35.078125 22.085938 -35.390625 20.234375 -35.390625 C 15.960938 -35.390625 13.828125 -34.0625 13.828125 -31.40625 C 13.828125 -30.289062 14.222656 -29.378906 15.015625 -28.671875 C 15.816406 -27.972656 17.21875 -27.398438 19.21875 -26.953125 L 24.53125 -25.78125 C 28.90625 -24.84375 32.101562 -23.335938 34.125 -21.265625 C 36.144531 -19.203125 37.15625 -16.425781 37.15625 -12.9375 C 37.15625 -10.195312 36.476562 -7.785156 35.125 -5.703125 C 33.769531 -3.617188 31.816406 -2.007812 29.265625 -0.875 C 26.710938 0.257812 23.675781 0.828125 20.15625 0.828125 Z M 20.15625 0.828125 "/></g></g></g><g fill="#ffffff" fill-opacity="1"><g transform="translate(850.467994, 270.999966)"><g><path d="M 9.53125 18.28125 C 7.6875 18.28125 6.015625 18.132812 4.515625 17.84375 C 3.015625 17.5625 1.796875 17.1875 0.859375 16.71875 L 2.578125 7.96875 L 3.28125 7.734375 C 3.9375 8.078125 4.742188 8.351562 5.703125 8.5625 C 6.671875 8.769531 7.660156 8.875 8.671875 8.875 C 10.421875 8.875 11.875 8.644531 13.03125 8.1875 C 14.1875 7.726562 15.164062 6.972656 15.96875 5.921875 C 16.78125 4.867188 17.5 3.40625 18.125 1.53125 L 0.9375 -43.09375 L 12.265625 -43.09375 L 22.96875 -13.125 L 23.90625 -13.125 L 34.34375 -43.09375 L 45.359375 -43.09375 L 28.046875 2.703125 C 26.671875 6.398438 25.15625 9.375 23.5 11.625 C 21.84375 13.875 19.890625 15.546875 17.640625 16.640625 C 15.390625 17.734375 12.6875 18.28125 9.53125 18.28125 Z M 9.53125 18.28125 "/></g></g></g><g fill="#ffffff" fill-opacity="1"><g transform="translate(896.713476, 270.999966)"><g><path d="M 6.21875 0 L 6.21875 -43.09375 L 16.609375 -43.09375 L 16.609375 -36.765625 L 17.421875 -36.5625 C 20.109375 -41.457031 24.457031 -43.90625 30.46875 -43.90625 C 35.445312 -43.90625 39.097656 -42.550781 41.421875 -39.84375 C 43.753906 -37.132812 44.921875 -33.191406 44.921875 -28.015625 L 44.921875 0 L 34.109375 0 L 34.109375 -26.6875 C 34.109375 -29.550781 33.535156 -31.613281 32.390625 -32.875 C 31.242188 -34.132812 29.40625 -34.765625 26.875 -34.765625 C 23.78125 -34.765625 21.363281 -33.757812 19.625 -31.75 C 17.894531 -29.75 17.03125 -26.601562 17.03125 -22.3125 L 17.03125 0 Z M 6.21875 0 "/></g></g></g><g fill="#ffffff" fill-opacity="1"><g transform="translate(947.177295, 270.999966)"><g><path d="M 29.734375 -10.28125 L 32.546875 -2.265625 C 31.367188 -1.304688 29.894531 -0.550781 28.125 0 C 26.351562 0.550781 24.347656 0.828125 22.109375 0.828125 C 17.453125 0.828125 13.910156 -0.441406 11.484375 -2.984375 C 9.066406 -5.523438 7.859375 -9.21875 7.859375 -14.0625 L 7.859375 -34.53125 L 1.296875 -34.53125 L 1.296875 -43.125 L 7.859375 -43.125 L 7.859375 -51.53125 L 18.671875 -53.28125 L 18.671875 -43.125 L 30.90625 -43.125 L 30.90625 -34.53125 L 18.671875 -34.53125 L 18.671875 -14.84375 C 18.671875 -12.707031 19.113281 -11.148438 20 -10.171875 C 20.882812 -9.203125 22.175781 -8.71875 23.875 -8.71875 C 25.800781 -8.71875 27.476562 -9.238281 28.90625 -10.28125 Z M 29.734375 -10.28125 "/></g></g></g><g fill="#ffffff" fill-opacity="1"><g transform="translate(980.650574, 270.999966)"><g><path d="M 16.796875 0.828125 C 14.035156 0.828125 11.640625 0.316406 9.609375 -0.703125 C 7.578125 -1.722656 6.015625 -3.210938 4.921875 -5.171875 C 3.828125 -7.140625 3.28125 -9.503906 3.28125 -12.265625 C 3.28125 -14.816406 3.828125 -16.957031 4.921875 -18.6875 C 6.015625 -20.425781 7.707031 -21.847656 10 -22.953125 C 12.289062 -24.054688 15.285156 -24.910156 18.984375 -25.515625 C 21.566406 -25.929688 23.523438 -26.382812 24.859375 -26.875 C 26.203125 -27.375 27.109375 -27.9375 27.578125 -28.5625 C 28.046875 -29.1875 28.28125 -29.976562 28.28125 -30.9375 C 28.28125 -32.320312 27.796875 -33.378906 26.828125 -34.109375 C 25.867188 -34.835938 24.269531 -35.203125 22.03125 -35.203125 C 19.632812 -35.203125 17.351562 -34.664062 15.1875 -33.59375 C 13.03125 -32.53125 11.160156 -31.125 9.578125 -29.375 L 8.796875 -29.375 L 4.265625 -36.21875 C 6.453125 -38.632812 9.117188 -40.519531 12.265625 -41.875 C 15.421875 -43.226562 18.859375 -43.90625 22.578125 -43.90625 C 28.285156 -43.90625 32.414062 -42.691406 34.96875 -40.265625 C 37.519531 -37.847656 38.796875 -34.414062 38.796875 -29.96875 L 38.796875 -11.25 C 38.796875 -9.320312 39.640625 -8.359375 41.328125 -8.359375 C 41.984375 -8.359375 42.625 -8.476562 43.25 -8.71875 L 43.796875 -8.5625 L 44.578125 -1.015625 C 43.972656 -0.628906 43.132812 -0.3125 42.0625 -0.0625 C 41 0.1875 39.832031 0.3125 38.5625 0.3125 C 35.976562 0.3125 33.960938 -0.179688 32.515625 -1.171875 C 31.078125 -2.160156 30.046875 -3.710938 29.421875 -5.828125 L 28.59375 -5.90625 C 26.488281 -1.414062 22.554688 0.828125 16.796875 0.828125 Z M 20.234375 -7.265625 C 22.734375 -7.265625 24.734375 -8.101562 26.234375 -9.78125 C 27.734375 -11.46875 28.484375 -13.804688 28.484375 -16.796875 L 28.484375 -21.171875 L 27.734375 -21.328125 C 27.085938 -20.804688 26.234375 -20.367188 25.171875 -20.015625 C 24.117188 -19.671875 22.601562 -19.328125 20.625 -18.984375 C 18.28125 -18.597656 16.59375 -17.925781 15.5625 -16.96875 C 14.539062 -16.019531 14.03125 -14.675781 14.03125 -12.9375 C 14.03125 -11.082031 14.578125 -9.671875 15.671875 -8.703125 C 16.765625 -7.742188 18.285156 -7.265625 20.234375 -7.265625 Z M 20.234375 -7.265625 "/></g></g></g><g fill="#ffffff" fill-opacity="1"><g transform="translate(1026.075835, 270.999966)"><g><path d="M 12.15625 0 L 0.75 0 L 13.046875 -22.34375 L 1.40625 -43.09375 L 12.96875 -43.09375 L 20.4375 -28.90625 L 21.328125 -28.90625 L 28.828125 -43.09375 L 40.046875 -43.09375 L 28.75 -22.34375 L 40.703125 0 L 29.1875 0 L 21.0625 -15.75 L 20.15625 -15.75 Z M 12.15625 0 "/></g></g></g><g fill="#ffffff" fill-opacity="1"><g transform="translate(1067.517086, 270.999966)"><g><path d="M 13.28125 -20.984375 C 13.28125 -22.828125 13.4375 -24.367188 13.75 -25.609375 C 14.0625 -26.847656 14.609375 -27.976562 15.390625 -29 C 16.171875 -30.03125 17.289062 -31.132812 18.75 -32.3125 L 22.15625 -35.078125 C 23.820312 -36.429688 25 -37.664062 25.6875 -38.78125 C 26.375 -39.90625 26.71875 -41.1875 26.71875 -42.625 C 26.71875 -44.363281 26.097656 -45.75 24.859375 -46.78125 C 23.628906 -47.8125 21.828125 -48.328125 19.453125 -48.328125 C 17.085938 -48.328125 15.035156 -47.753906 13.296875 -46.609375 C 11.566406 -45.460938 10.039062 -43.832031 8.71875 -41.71875 L 7.8125 -41.5625 L 1.40625 -48.515625 C 3.570312 -51.617188 6.175781 -53.960938 9.21875 -55.546875 C 12.269531 -57.140625 15.90625 -57.9375 20.125 -57.9375 C 24.101562 -57.9375 27.441406 -57.328125 30.140625 -56.109375 C 32.835938 -54.898438 34.835938 -53.226562 36.140625 -51.09375 C 37.441406 -48.957031 38.09375 -46.523438 38.09375 -43.796875 C 38.09375 -40.796875 37.472656 -38.222656 36.234375 -36.078125 C 34.992188 -33.929688 33.097656 -31.84375 30.546875 -29.8125 L 26.765625 -26.796875 C 25.328125 -25.679688 24.367188 -24.671875 23.890625 -23.765625 C 23.410156 -22.867188 23.171875 -21.679688 23.171875 -20.203125 L 23.171875 -18.953125 L 13.28125 -18.953125 Z M 18.25 0.390625 C 16.894531 0.390625 15.703125 0.117188 14.671875 -0.421875 C 13.640625 -0.972656 12.84375 -1.726562 12.28125 -2.6875 C 11.726562 -3.65625 11.453125 -4.738281 11.453125 -5.9375 C 11.453125 -7.164062 11.726562 -8.265625 12.28125 -9.234375 C 12.84375 -10.210938 13.640625 -10.972656 14.671875 -11.515625 C 15.703125 -12.066406 16.894531 -12.34375 18.25 -12.34375 C 20.28125 -12.34375 21.910156 -11.742188 23.140625 -10.546875 C 24.378906 -9.347656 25 -7.828125 25 -5.984375 C 25 -4.128906 24.378906 -2.601562 23.140625 -1.40625 C 21.910156 -0.207031 20.28125 0.390625 18.25 0.390625 Z M 18.25 0.390625 "/></g></g></g></svg>