<svg xmlns="http://www.w3.org/2000/svg" xmlns:xlink="http://www.w3.org/1999/xlink" width="1920" zoomAndPan="magnify" viewBox="0 0 1440 809.999993" height="1080" preserveAspectRatio="xMidYMid meet" version="1.0"><defs><g/><clipPath id="ac01553f08"><path d="M 562 371.15625 L 722 371.15625 L 722 464 L 562 464 Z M 562 371.15625 " clip-rule="nonzero"/></clipPath></defs><rect x="-144" width="1728" fill="#ffffff" y="-80.999999" height="971.999992" fill-opacity="1"/><rect x="-144" width="1728" fill="#334155" y="-80.999999" height="971.999992" fill-opacity="1"/><path fill="#f19020" d="M 869.425781 454.28125 C 858.855469 478.726562 830.554688 489.941406 806.09375 479.417969 C 781.730469 468.902344 770.503906 440.515625 781.042969 416.175781 C 791.585938 391.730469 819.890625 380.488281 844.257812 391.007812 C 868.734375 401.546875 879.933594 429.878906 869.425781 454.28125 Z M 869.425781 454.28125 " fill-opacity="1" fill-rule="evenodd"/><path fill="#f19020" d="M 735.3125 461.980469 L 642.832031 540.949219 C 631.417969 550.648438 632.695312 564.046875 639.175781 574.496094 L 688.554688 654.367188 L 696.222656 736.558594 C 698.566406 769.824219 748.738281 765.21875 744.949219 732.042969 L 736.789062 644.074219 C 736.410156 640.320312 735.199219 636.6875 733.191406 633.5 L 693.75 569.617188 L 740.484375 531.035156 L 740.484375 614.90625 C 740.484375 642.824219 782.328125 642.824219 782.328125 614.90625 L 782.328125 484.988281 C 782.328125 476.605469 776.667969 468.566406 771.265625 464.527344 C 758.640625 455.101562 746.101562 452.785156 735.3125 461.980469 Z M 735.3125 461.980469 " fill-opacity="1" fill-rule="nonzero"/><path fill="#f19020" d="M 634.851562 594.800781 L 622.164062 654.578125 L 578.492188 720.835938 C 559.734375 748.285156 601.644531 775.886719 619.414062 747.75 L 665.566406 677.644531 C 667.253906 675.109375 668.449219 672.261719 669.074219 669.289062 L 672.144531 655.082031 Z M 634.851562 594.800781 " fill-opacity="1" fill-rule="nonzero"/><g clip-path="url(#ac01553f08)"><path fill="#f19020" d="M 587.183594 383.40625 L 681.519531 383.40625 C 688.578125 383.40625 694.054688 388.910156 694.054688 395.953125 L 694.054688 438.359375 C 694.054688 445.433594 688.578125 450.910156 681.519531 450.910156 L 587.183594 450.910156 C 580.121094 450.910156 574.613281 445.433594 574.613281 438.359375 L 574.613281 395.953125 C 574.613281 388.910156 580.121094 383.40625 587.183594 383.40625 Z M 587.183594 371.101562 C 573.515625 371.101562 562.320312 382.300781 562.320312 395.949219 L 562.320312 438.351562 C 562.320312 452.03125 573.515625 463.234375 587.183594 463.234375 L 681.519531 463.234375 C 694.808594 463.234375 705.6875 452.5625 706.253906 439.417969 L 712.011719 439.417969 C 717.261719 439.417969 721.496094 435.164062 721.496094 429.898438 L 721.496094 404.398438 C 721.496094 399.164062 717.261719 394.910156 712.011719 394.910156 L 706.253906 394.910156 C 705.695312 381.738281 694.8125 371.09375 681.519531 371.09375 L 587.183594 371.09375 Z M 587.183594 371.101562 " fill-opacity="1" fill-rule="evenodd"/></g><path fill="#f19020" d="M 591.441406 391.828125 C 587.242188 391.828125 584.121094 394.949219 584.121094 399.152344 L 584.121094 435.175781 C 584.121094 439.332031 587.273438 442.5 591.441406 442.5 L 607.824219 442.5 C 611.984375 442.5 615.148438 439.339844 615.148438 435.175781 L 615.148438 399.152344 C 615.148438 394.949219 612.019531 391.828125 607.824219 391.828125 Z M 591.441406 391.828125 " fill-opacity="1" fill-rule="evenodd"/><g fill="#ffffff" fill-opacity="1"><g transform="translate(71.976565, 159.249972)"><g><path d="M 31.140625 0.828125 C 25.898438 0.828125 21.28125 -0.238281 17.28125 -2.375 C 13.289062 -4.519531 10.160156 -7.785156 7.890625 -12.171875 C 5.628906 -16.554688 4.5 -22.019531 4.5 -28.5625 C 4.5 -35.09375 5.628906 -40.550781 7.890625 -44.9375 C 10.160156 -49.332031 13.289062 -52.597656 17.28125 -54.734375 C 21.28125 -56.867188 25.898438 -57.9375 31.140625 -57.9375 C 36.367188 -57.9375 40.972656 -56.875 44.953125 -54.75 C 48.941406 -52.625 52.0625 -49.359375 54.3125 -44.953125 C 56.570312 -40.554688 57.703125 -35.09375 57.703125 -28.5625 C 57.703125 -22.019531 56.570312 -16.546875 54.3125 -12.140625 C 52.0625 -7.742188 48.941406 -4.484375 44.953125 -2.359375 C 40.972656 -0.234375 36.367188 0.828125 31.140625 0.828125 Z M 31.140625 -8.984375 C 35.984375 -8.984375 39.679688 -10.539062 42.234375 -13.65625 C 44.785156 -16.769531 46.0625 -21.738281 46.0625 -28.5625 C 46.0625 -35.382812 44.785156 -40.359375 42.234375 -43.484375 C 39.679688 -46.609375 35.984375 -48.171875 31.140625 -48.171875 C 26.265625 -48.171875 22.546875 -46.609375 19.984375 -43.484375 C 17.421875 -40.359375 16.140625 -35.382812 16.140625 -28.5625 C 16.140625 -21.738281 17.421875 -16.769531 19.984375 -13.65625 C 22.546875 -10.539062 26.265625 -8.984375 31.140625 -8.984375 Z M 31.140625 -8.984375 "/></g></g></g><g fill="#ffffff" fill-opacity="1"><g transform="translate(134.197048, 159.249972)"><g><path d="M 6.21875 0 L 6.21875 -43.09375 L 16.71875 -43.09375 L 16.71875 -36.6875 L 17.546875 -36.53125 C 18.585938 -38.925781 19.953125 -40.679688 21.640625 -41.796875 C 23.335938 -42.921875 25.394531 -43.484375 27.8125 -43.484375 C 30.257812 -43.484375 32.125 -43.066406 33.40625 -42.234375 L 31.5625 -32.890625 L 30.75 -32.734375 C 30.039062 -33.023438 29.359375 -33.234375 28.703125 -33.359375 C 28.054688 -33.492188 27.265625 -33.5625 26.328125 -33.5625 C 23.304688 -33.5625 21 -32.5 19.40625 -30.375 C 17.820312 -28.25 17.03125 -24.84375 17.03125 -20.15625 L 17.03125 0 Z M 6.21875 0 "/></g></g></g><g fill="#ffffff" fill-opacity="1"><g transform="translate(167.982809, 159.249972)"><g/></g></g><g fill="#ffffff" fill-opacity="1"><g transform="translate(186.848153, 159.249972)"><g><path d="M 29.734375 -10.28125 L 32.546875 -2.265625 C 31.367188 -1.304688 29.894531 -0.550781 28.125 0 C 26.351562 0.550781 24.347656 0.828125 22.109375 0.828125 C 17.453125 0.828125 13.910156 -0.441406 11.484375 -2.984375 C 9.066406 -5.523438 7.859375 -9.21875 7.859375 -14.0625 L 7.859375 -34.53125 L 1.296875 -34.53125 L 1.296875 -43.125 L 7.859375 -43.125 L 7.859375 -51.53125 L 18.671875 -53.28125 L 18.671875 -43.125 L 30.90625 -43.125 L 30.90625 -34.53125 L 18.671875 -34.53125 L 18.671875 -14.84375 C 18.671875 -12.707031 19.113281 -11.148438 20 -10.171875 C 20.882812 -9.203125 22.175781 -8.71875 23.875 -8.71875 C 25.800781 -8.71875 27.476562 -9.238281 28.90625 -10.28125 Z M 29.734375 -10.28125 "/></g></g></g><g fill="#ffffff" fill-opacity="1"><g transform="translate(220.321445, 159.249972)"><g><path d="M 6.21875 0 L 6.21875 -43.09375 L 16.71875 -43.09375 L 16.71875 -36.6875 L 17.546875 -36.53125 C 18.585938 -38.925781 19.953125 -40.679688 21.640625 -41.796875 C 23.335938 -42.921875 25.394531 -43.484375 27.8125 -43.484375 C 30.257812 -43.484375 32.125 -43.066406 33.40625 -42.234375 L 31.5625 -32.890625 L 30.75 -32.734375 C 30.039062 -33.023438 29.359375 -33.234375 28.703125 -33.359375 C 28.054688 -33.492188 27.265625 -33.5625 26.328125 -33.5625 C 23.304688 -33.5625 21 -32.5 19.40625 -30.375 C 17.820312 -28.25 17.03125 -24.84375 17.03125 -20.15625 L 17.03125 0 Z M 6.21875 0 "/></g></g></g><g fill="#ffffff" fill-opacity="1"><g transform="translate(254.107206, 159.249972)"><g><path d="M 11.609375 -48.25 C 9.648438 -48.25 8.054688 -48.835938 6.828125 -50.015625 C 5.609375 -51.203125 5 -52.734375 5 -54.609375 C 5 -56.460938 5.609375 -57.976562 6.828125 -59.15625 C 8.054688 -60.34375 9.648438 -60.9375 11.609375 -60.9375 C 12.910156 -60.9375 14.066406 -60.660156 15.078125 -60.109375 C 16.097656 -59.566406 16.882812 -58.820312 17.4375 -57.875 C 18 -56.925781 18.28125 -55.835938 18.28125 -54.609375 C 18.28125 -53.390625 18 -52.296875 17.4375 -51.328125 C 16.882812 -50.367188 16.097656 -49.613281 15.078125 -49.0625 C 14.066406 -48.519531 12.910156 -48.25 11.609375 -48.25 Z M 6.21875 0 L 6.21875 -43.09375 L 17.03125 -43.09375 L 17.03125 0 Z M 6.21875 0 "/></g></g></g><g fill="#ffffff" fill-opacity="1"><g transform="translate(277.308053, 159.249972)"><g><path d="M 42.578125 -19.109375 L 14.890625 -19.109375 C 15.203125 -15.359375 16.269531 -12.628906 18.09375 -10.921875 C 19.914062 -9.210938 22.398438 -8.359375 25.546875 -8.359375 C 28.023438 -8.359375 30.03125 -8.820312 31.5625 -9.75 C 33.101562 -10.675781 34.34375 -12.078125 35.28125 -13.953125 L 36.09375 -13.953125 L 43.28125 -9.34375 C 41.875 -6.320312 39.75 -3.867188 36.90625 -1.984375 C 34.070312 -0.109375 30.285156 0.828125 25.546875 0.828125 C 21.097656 0.828125 17.25 -0.0195312 14 -1.71875 C 10.757812 -3.414062 8.257812 -5.9375 6.5 -9.28125 C 4.75 -12.625 3.875 -16.707031 3.875 -21.53125 C 3.875 -26.425781 4.796875 -30.550781 6.640625 -33.90625 C 8.492188 -37.269531 10.992188 -39.773438 14.140625 -41.421875 C 17.296875 -43.078125 20.835938 -43.90625 24.765625 -43.90625 C 30.859375 -43.90625 35.523438 -42.289062 38.765625 -39.0625 C 42.015625 -35.832031 43.640625 -31.09375 43.640625 -24.84375 C 43.640625 -22.582031 43.5625 -20.828125 43.40625 -19.578125 Z M 33.28125 -26.09375 C 33.175781 -29.375 32.414062 -31.765625 31 -33.265625 C 29.582031 -34.765625 27.503906 -35.515625 24.765625 -35.515625 C 19.296875 -35.515625 16.082031 -32.375 15.125 -26.09375 Z M 33.28125 -26.09375 "/></g></g></g><g fill="#ffffff" fill-opacity="1"><g transform="translate(324.139425, 159.249972)"><g><path d="M 21.296875 0.828125 C 17.878906 0.828125 14.863281 0 12.25 -1.65625 C 9.632812 -3.3125 7.582031 -5.8125 6.09375 -9.15625 C 4.613281 -12.507812 3.875 -16.632812 3.875 -21.53125 C 3.875 -26.445312 4.632812 -30.578125 6.15625 -33.921875 C 7.675781 -37.273438 9.785156 -39.773438 12.484375 -41.421875 C 15.179688 -43.078125 18.300781 -43.90625 21.84375 -43.90625 C 24.519531 -43.90625 26.84375 -43.441406 28.8125 -42.515625 C 30.78125 -41.597656 32.441406 -40.160156 33.796875 -38.203125 L 34.609375 -38.40625 L 34.609375 -60.390625 L 45.4375 -60.390625 L 45.4375 0 L 34.609375 0 L 34.609375 -5.59375 L 33.796875 -5.75 C 32.597656 -3.71875 30.957031 -2.113281 28.875 -0.9375 C 26.789062 0.238281 24.265625 0.828125 21.296875 0.828125 Z M 24.8125 -8.359375 C 27.851562 -8.359375 30.257812 -9.445312 32.03125 -11.625 C 33.800781 -13.800781 34.6875 -17.101562 34.6875 -21.53125 C 34.6875 -25.957031 33.800781 -29.265625 32.03125 -31.453125 C 30.257812 -33.640625 27.851562 -34.734375 24.8125 -34.734375 C 21.632812 -34.734375 19.203125 -33.671875 17.515625 -31.546875 C 15.835938 -29.421875 15 -26.082031 15 -21.53125 C 15 -17 15.835938 -13.671875 17.515625 -11.546875 C 19.203125 -9.421875 21.632812 -8.359375 24.8125 -8.359375 Z M 24.8125 -8.359375 "/></g></g></g><g fill="#ffffff" fill-opacity="1"><g transform="translate(375.775005, 159.249972)"><g/></g></g><g fill="#ffffff" fill-opacity="1"><g transform="translate(394.640338, 159.249972)"><g><path d="M 29.734375 -10.28125 L 32.546875 -2.265625 C 31.367188 -1.304688 29.894531 -0.550781 28.125 0 C 26.351562 0.550781 24.347656 0.828125 22.109375 0.828125 C 17.453125 0.828125 13.910156 -0.441406 11.484375 -2.984375 C 9.066406 -5.523438 7.859375 -9.21875 7.859375 -14.0625 L 7.859375 -34.53125 L 1.296875 -34.53125 L 1.296875 -43.125 L 7.859375 -43.125 L 7.859375 -51.53125 L 18.671875 -53.28125 L 18.671875 -43.125 L 30.90625 -43.125 L 30.90625 -34.53125 L 18.671875 -34.53125 L 18.671875 -14.84375 C 18.671875 -12.707031 19.113281 -11.148438 20 -10.171875 C 20.882812 -9.203125 22.175781 -8.71875 23.875 -8.71875 C 25.800781 -8.71875 27.476562 -9.238281 28.90625 -10.28125 Z M 29.734375 -10.28125 "/></g></g></g><g fill="#ffffff" fill-opacity="1"><g transform="translate(428.113617, 159.249972)"><g><path d="M 25.046875 0.828125 C 20.828125 0.828125 17.117188 -0.0351562 13.921875 -1.765625 C 10.734375 -3.503906 8.257812 -6.046875 6.5 -9.390625 C 4.75 -12.742188 3.875 -16.789062 3.875 -21.53125 C 3.875 -26.269531 4.75 -30.316406 6.5 -33.671875 C 8.257812 -37.035156 10.734375 -39.582031 13.921875 -41.3125 C 17.117188 -43.039062 20.828125 -43.90625 25.046875 -43.90625 C 29.265625 -43.90625 32.96875 -43.039062 36.15625 -41.3125 C 39.34375 -39.582031 41.820312 -37.035156 43.59375 -33.671875 C 45.363281 -30.316406 46.25 -26.269531 46.25 -21.53125 C 46.25 -16.789062 45.363281 -12.742188 43.59375 -9.390625 C 41.820312 -6.046875 39.34375 -3.503906 36.15625 -1.765625 C 32.96875 -0.0351562 29.265625 0.828125 25.046875 0.828125 Z M 25.046875 -8.359375 C 31.734375 -8.359375 35.078125 -12.75 35.078125 -21.53125 C 35.078125 -26.082031 34.21875 -29.421875 32.5 -31.546875 C 30.78125 -33.671875 28.296875 -34.734375 25.046875 -34.734375 C 18.347656 -34.734375 15 -30.332031 15 -21.53125 C 15 -12.75 18.347656 -8.359375 25.046875 -8.359375 Z M 25.046875 -8.359375 "/></g></g></g><g fill="#ffffff" fill-opacity="1"><g transform="translate(478.186872, 159.249972)"><g/></g></g><g fill="#ffffff" fill-opacity="1"><g transform="translate(497.052228, 159.249972)"><g><path d="M 22.34375 18.28125 C 15.238281 18.28125 9.992188 17.238281 6.609375 15.15625 C 3.222656 13.070312 1.53125 10.171875 1.53125 6.453125 C 1.53125 4.179688 2.25 2.320312 3.6875 0.875 C 5.132812 -0.570312 7.210938 -1.539062 9.921875 -2.03125 L 9.921875 -2.859375 C 8.460938 -3.742188 7.414062 -4.722656 6.78125 -5.796875 C 6.144531 -6.878906 5.828125 -8.140625 5.828125 -9.578125 C 5.828125 -13.035156 8.078125 -15.363281 12.578125 -16.5625 L 12.578125 -17.390625 C 10.265625 -18.710938 8.519531 -20.359375 7.34375 -22.328125 C 6.175781 -24.296875 5.59375 -26.671875 5.59375 -29.453125 C 5.59375 -32.316406 6.25 -34.835938 7.5625 -37.015625 C 8.875 -39.191406 10.800781 -40.882812 13.34375 -42.09375 C 15.882812 -43.300781 18.925781 -43.90625 22.46875 -43.90625 C 26.0625 -43.90625 28.925781 -43.28125 31.0625 -42.03125 C 32.382812 -43.957031 33.148438 -46.1875 33.359375 -48.71875 L 34.1875 -49.21875 L 41.953125 -47.3125 C 41.722656 -45.25 41.125 -43.519531 40.15625 -42.125 C 39.195312 -40.738281 37.703125 -39.5 35.671875 -38.40625 L 35.671875 -37.546875 C 38.085938 -35.410156 39.296875 -32.425781 39.296875 -28.59375 C 39.296875 -25.9375 38.628906 -23.550781 37.296875 -21.4375 C 35.972656 -19.332031 34.039062 -17.664062 31.5 -16.4375 C 28.96875 -15.21875 25.957031 -14.609375 22.46875 -14.609375 L 20.828125 -14.65625 C 19.785156 -14.707031 19.054688 -14.734375 18.640625 -14.734375 C 17.648438 -14.734375 16.875 -14.460938 16.3125 -13.921875 C 15.75 -13.390625 15.46875 -12.707031 15.46875 -11.875 C 15.46875 -10.96875 15.832031 -10.257812 16.5625 -9.75 C 17.289062 -9.238281 18.359375 -8.957031 19.765625 -8.90625 L 29.421875 -8.5625 C 38.953125 -8.269531 43.71875 -4.164062 43.71875 3.75 C 43.71875 6.539062 43.003906 9.019531 41.578125 11.1875 C 40.160156 13.363281 37.863281 15.085938 34.6875 16.359375 C 31.507812 17.640625 27.394531 18.28125 22.34375 18.28125 Z M 22.46875 -22.1875 C 24.550781 -22.1875 26.175781 -22.796875 27.34375 -24.015625 C 28.519531 -25.242188 29.109375 -26.992188 29.109375 -29.265625 C 29.109375 -31.523438 28.519531 -33.257812 27.34375 -34.46875 C 26.175781 -35.6875 24.550781 -36.296875 22.46875 -36.296875 C 20.351562 -36.296875 18.722656 -35.6875 17.578125 -34.46875 C 16.429688 -33.257812 15.859375 -31.523438 15.859375 -29.265625 C 15.859375 -26.972656 16.429688 -25.21875 17.578125 -24 C 18.722656 -22.789062 20.351562 -22.1875 22.46875 -22.1875 Z M 22.34375 10.4375 C 26.039062 10.4375 28.726562 9.914062 30.40625 8.875 C 32.09375 7.832031 32.9375 6.476562 32.9375 4.8125 C 32.9375 3.457031 32.503906 2.457031 31.640625 1.8125 C 30.785156 1.175781 29.421875 0.832031 27.546875 0.78125 L 19.03125 0.390625 C 18.738281 0.390625 18.46875 0.375 18.21875 0.34375 C 17.976562 0.320312 17.738281 0.3125 17.5 0.3125 C 15.675781 0.3125 14.289062 0.703125 13.34375 1.484375 C 12.394531 2.265625 11.921875 3.347656 11.921875 4.734375 C 11.921875 6.554688 12.789062 7.960938 14.53125 8.953125 C 16.28125 9.941406 18.882812 10.4375 22.34375 10.4375 Z M 22.34375 10.4375 "/></g></g></g><g fill="#ffffff" fill-opacity="1"><g transform="translate(541.852549, 159.249972)"><g><path d="M 42.578125 -19.109375 L 14.890625 -19.109375 C 15.203125 -15.359375 16.269531 -12.628906 18.09375 -10.921875 C 19.914062 -9.210938 22.398438 -8.359375 25.546875 -8.359375 C 28.023438 -8.359375 30.03125 -8.820312 31.5625 -9.75 C 33.101562 -10.675781 34.34375 -12.078125 35.28125 -13.953125 L 36.09375 -13.953125 L 43.28125 -9.34375 C 41.875 -6.320312 39.75 -3.867188 36.90625 -1.984375 C 34.070312 -0.109375 30.285156 0.828125 25.546875 0.828125 C 21.097656 0.828125 17.25 -0.0195312 14 -1.71875 C 10.757812 -3.414062 8.257812 -5.9375 6.5 -9.28125 C 4.75 -12.625 3.875 -16.707031 3.875 -21.53125 C 3.875 -26.425781 4.796875 -30.550781 6.640625 -33.90625 C 8.492188 -37.269531 10.992188 -39.773438 14.140625 -41.421875 C 17.296875 -43.078125 20.835938 -43.90625 24.765625 -43.90625 C 30.859375 -43.90625 35.523438 -42.289062 38.765625 -39.0625 C 42.015625 -35.832031 43.640625 -31.09375 43.640625 -24.84375 C 43.640625 -22.582031 43.5625 -20.828125 43.40625 -19.578125 Z M 33.28125 -26.09375 C 33.175781 -29.375 32.414062 -31.765625 31 -33.265625 C 29.582031 -34.765625 27.503906 -35.515625 24.765625 -35.515625 C 19.296875 -35.515625 16.082031 -32.375 15.125 -26.09375 Z M 33.28125 -26.09375 "/></g></g></g><g fill="#ffffff" fill-opacity="1"><g transform="translate(588.683922, 159.249972)"><g><path d="M 29.734375 -10.28125 L 32.546875 -2.265625 C 31.367188 -1.304688 29.894531 -0.550781 28.125 0 C 26.351562 0.550781 24.347656 0.828125 22.109375 0.828125 C 17.453125 0.828125 13.910156 -0.441406 11.484375 -2.984375 C 9.066406 -5.523438 7.859375 -9.21875 7.859375 -14.0625 L 7.859375 -34.53125 L 1.296875 -34.53125 L 1.296875 -43.125 L 7.859375 -43.125 L 7.859375 -51.53125 L 18.671875 -53.28125 L 18.671875 -43.125 L 30.90625 -43.125 L 30.90625 -34.53125 L 18.671875 -34.53125 L 18.671875 -14.84375 C 18.671875 -12.707031 19.113281 -11.148438 20 -10.171875 C 20.882812 -9.203125 22.175781 -8.71875 23.875 -8.71875 C 25.800781 -8.71875 27.476562 -9.238281 28.90625 -10.28125 Z M 29.734375 -10.28125 "/></g></g></g><g fill="#ffffff" fill-opacity="1"><g transform="translate(622.157202, 159.249972)"><g/></g></g><g fill="#ffffff" fill-opacity="1"><g transform="translate(641.022557, 159.249972)"><g><path d="M 42.578125 -19.109375 L 14.890625 -19.109375 C 15.203125 -15.359375 16.269531 -12.628906 18.09375 -10.921875 C 19.914062 -9.210938 22.398438 -8.359375 25.546875 -8.359375 C 28.023438 -8.359375 30.03125 -8.820312 31.5625 -9.75 C 33.101562 -10.675781 34.34375 -12.078125 35.28125 -13.953125 L 36.09375 -13.953125 L 43.28125 -9.34375 C 41.875 -6.320312 39.75 -3.867188 36.90625 -1.984375 C 34.070312 -0.109375 30.285156 0.828125 25.546875 0.828125 C 21.097656 0.828125 17.25 -0.0195312 14 -1.71875 C 10.757812 -3.414062 8.257812 -5.9375 6.5 -9.28125 C 4.75 -12.625 3.875 -16.707031 3.875 -21.53125 C 3.875 -26.425781 4.796875 -30.550781 6.640625 -33.90625 C 8.492188 -37.269531 10.992188 -39.773438 14.140625 -41.421875 C 17.296875 -43.078125 20.835938 -43.90625 24.765625 -43.90625 C 30.859375 -43.90625 35.523438 -42.289062 38.765625 -39.0625 C 42.015625 -35.832031 43.640625 -31.09375 43.640625 -24.84375 C 43.640625 -22.582031 43.5625 -20.828125 43.40625 -19.578125 Z M 33.28125 -26.09375 C 33.175781 -29.375 32.414062 -31.765625 31 -33.265625 C 29.582031 -34.765625 27.503906 -35.515625 24.765625 -35.515625 C 19.296875 -35.515625 16.082031 -32.375 15.125 -26.09375 Z M 33.28125 -26.09375 "/></g></g></g><g fill="#ffffff" fill-opacity="1"><g transform="translate(687.85393, 159.249972)"><g><path d="M 6.21875 0 L 6.21875 -43.09375 L 16.609375 -43.09375 L 16.609375 -36.765625 L 17.421875 -36.5625 C 20.109375 -41.457031 24.457031 -43.90625 30.46875 -43.90625 C 35.445312 -43.90625 39.097656 -42.550781 41.421875 -39.84375 C 43.753906 -37.132812 44.921875 -33.191406 44.921875 -28.015625 L 44.921875 0 L 34.109375 0 L 34.109375 -26.6875 C 34.109375 -29.550781 33.535156 -31.613281 32.390625 -32.875 C 31.242188 -34.132812 29.40625 -34.765625 26.875 -34.765625 C 23.78125 -34.765625 21.363281 -33.757812 19.625 -31.75 C 17.894531 -29.75 17.03125 -26.601562 17.03125 -22.3125 L 17.03125 0 Z M 6.21875 0 "/></g></g></g><g fill="#ffffff" fill-opacity="1"><g transform="translate(738.317749, 159.249972)"><g><path d="M 25.046875 0.828125 C 20.828125 0.828125 17.117188 -0.0351562 13.921875 -1.765625 C 10.734375 -3.503906 8.257812 -6.046875 6.5 -9.390625 C 4.75 -12.742188 3.875 -16.789062 3.875 -21.53125 C 3.875 -26.269531 4.75 -30.316406 6.5 -33.671875 C 8.257812 -37.035156 10.734375 -39.582031 13.921875 -41.3125 C 17.117188 -43.039062 20.828125 -43.90625 25.046875 -43.90625 C 29.265625 -43.90625 32.96875 -43.039062 36.15625 -41.3125 C 39.34375 -39.582031 41.820312 -37.035156 43.59375 -33.671875 C 45.363281 -30.316406 46.25 -26.269531 46.25 -21.53125 C 46.25 -16.789062 45.363281 -12.742188 43.59375 -9.390625 C 41.820312 -6.046875 39.34375 -3.503906 36.15625 -1.765625 C 32.96875 -0.0351562 29.265625 0.828125 25.046875 0.828125 Z M 25.046875 -8.359375 C 31.734375 -8.359375 35.078125 -12.75 35.078125 -21.53125 C 35.078125 -26.082031 34.21875 -29.421875 32.5 -31.546875 C 30.78125 -33.671875 28.296875 -34.734375 25.046875 -34.734375 C 18.347656 -34.734375 15 -30.332031 15 -21.53125 C 15 -12.75 18.347656 -8.359375 25.046875 -8.359375 Z M 25.046875 -8.359375 "/></g></g></g><g fill="#ffffff" fill-opacity="1"><g transform="translate(788.390958, 159.249972)"><g><path d="M 19.734375 0.828125 C 14.890625 0.828125 11.3125 -0.492188 9 -3.140625 C 6.695312 -5.785156 5.546875 -9.582031 5.546875 -14.53125 L 5.546875 -43.09375 L 16.375 -43.09375 L 16.375 -15.90625 C 16.375 -13.269531 16.9375 -11.347656 18.0625 -10.140625 C 19.195312 -8.929688 20.953125 -8.328125 23.328125 -8.328125 C 26.316406 -8.328125 28.644531 -9.304688 30.3125 -11.265625 C 31.976562 -13.234375 32.8125 -16.328125 32.8125 -20.546875 L 32.8125 -43.09375 L 43.640625 -43.09375 L 43.640625 0 L 33.25 0 L 33.25 -6.328125 L 32.421875 -6.53125 C 31.046875 -4.050781 29.359375 -2.203125 27.359375 -0.984375 C 25.367188 0.222656 22.828125 0.828125 19.734375 0.828125 Z M 19.734375 0.828125 "/></g></g></g><g fill="#ffffff" fill-opacity="1"><g transform="translate(838.229837, 159.249972)"><g><path d="M 22.34375 18.28125 C 15.238281 18.28125 9.992188 17.238281 6.609375 15.15625 C 3.222656 13.070312 1.53125 10.171875 1.53125 6.453125 C 1.53125 4.179688 2.25 2.320312 3.6875 0.875 C 5.132812 -0.570312 7.210938 -1.539062 9.921875 -2.03125 L 9.921875 -2.859375 C 8.460938 -3.742188 7.414062 -4.722656 6.78125 -5.796875 C 6.144531 -6.878906 5.828125 -8.140625 5.828125 -9.578125 C 5.828125 -13.035156 8.078125 -15.363281 12.578125 -16.5625 L 12.578125 -17.390625 C 10.265625 -18.710938 8.519531 -20.359375 7.34375 -22.328125 C 6.175781 -24.296875 5.59375 -26.671875 5.59375 -29.453125 C 5.59375 -32.316406 6.25 -34.835938 7.5625 -37.015625 C 8.875 -39.191406 10.800781 -40.882812 13.34375 -42.09375 C 15.882812 -43.300781 18.925781 -43.90625 22.46875 -43.90625 C 26.0625 -43.90625 28.925781 -43.28125 31.0625 -42.03125 C 32.382812 -43.957031 33.148438 -46.1875 33.359375 -48.71875 L 34.1875 -49.21875 L 41.953125 -47.3125 C 41.722656 -45.25 41.125 -43.519531 40.15625 -42.125 C 39.195312 -40.738281 37.703125 -39.5 35.671875 -38.40625 L 35.671875 -37.546875 C 38.085938 -35.410156 39.296875 -32.425781 39.296875 -28.59375 C 39.296875 -25.9375 38.628906 -23.550781 37.296875 -21.4375 C 35.972656 -19.332031 34.039062 -17.664062 31.5 -16.4375 C 28.96875 -15.21875 25.957031 -14.609375 22.46875 -14.609375 L 20.828125 -14.65625 C 19.785156 -14.707031 19.054688 -14.734375 18.640625 -14.734375 C 17.648438 -14.734375 16.875 -14.460938 16.3125 -13.921875 C 15.75 -13.390625 15.46875 -12.707031 15.46875 -11.875 C 15.46875 -10.96875 15.832031 -10.257812 16.5625 -9.75 C 17.289062 -9.238281 18.359375 -8.957031 19.765625 -8.90625 L 29.421875 -8.5625 C 38.953125 -8.269531 43.71875 -4.164062 43.71875 3.75 C 43.71875 6.539062 43.003906 9.019531 41.578125 11.1875 C 40.160156 13.363281 37.863281 15.085938 34.6875 16.359375 C 31.507812 17.640625 27.394531 18.28125 22.34375 18.28125 Z M 22.46875 -22.1875 C 24.550781 -22.1875 26.175781 -22.796875 27.34375 -24.015625 C 28.519531 -25.242188 29.109375 -26.992188 29.109375 -29.265625 C 29.109375 -31.523438 28.519531 -33.257812 27.34375 -34.46875 C 26.175781 -35.6875 24.550781 -36.296875 22.46875 -36.296875 C 20.351562 -36.296875 18.722656 -35.6875 17.578125 -34.46875 C 16.429688 -33.257812 15.859375 -31.523438 15.859375 -29.265625 C 15.859375 -26.972656 16.429688 -25.21875 17.578125 -24 C 18.722656 -22.789062 20.351562 -22.1875 22.46875 -22.1875 Z M 22.34375 10.4375 C 26.039062 10.4375 28.726562 9.914062 30.40625 8.875 C 32.09375 7.832031 32.9375 6.476562 32.9375 4.8125 C 32.9375 3.457031 32.503906 2.457031 31.640625 1.8125 C 30.785156 1.175781 29.421875 0.832031 27.546875 0.78125 L 19.03125 0.390625 C 18.738281 0.390625 18.46875 0.375 18.21875 0.34375 C 17.976562 0.320312 17.738281 0.3125 17.5 0.3125 C 15.675781 0.3125 14.289062 0.703125 13.34375 1.484375 C 12.394531 2.265625 11.921875 3.347656 11.921875 4.734375 C 11.921875 6.554688 12.789062 7.960938 14.53125 8.953125 C 16.28125 9.941406 18.882812 10.4375 22.34375 10.4375 Z M 22.34375 10.4375 "/></g></g></g><g fill="#ffffff" fill-opacity="1"><g transform="translate(883.030113, 159.249972)"><g><path d="M 6.21875 0 L 6.21875 -60.390625 L 17.03125 -60.390625 L 17.03125 -37.46875 L 17.859375 -37.3125 C 19.285156 -39.414062 21.039062 -41.039062 23.125 -42.1875 C 25.207031 -43.332031 27.722656 -43.90625 30.671875 -43.90625 C 40.171875 -43.90625 44.921875 -38.515625 44.921875 -27.734375 L 44.921875 0 L 34.109375 0 L 34.109375 -26.375 C 34.109375 -29.3125 33.519531 -31.441406 32.34375 -32.765625 C 31.175781 -34.097656 29.351562 -34.765625 26.875 -34.765625 C 23.851562 -34.765625 21.457031 -33.753906 19.6875 -31.734375 C 17.914062 -29.722656 17.03125 -26.582031 17.03125 -22.3125 L 17.03125 0 Z M 6.21875 0 "/></g></g></g><g fill="#ffffff" fill-opacity="1"><g transform="translate(933.493978, 159.249972)"><g/></g></g><g fill="#ffffff" fill-opacity="1"><g transform="translate(952.359333, 159.249972)"><g><path d="M 6.21875 17.46875 L 6.21875 -43.09375 L 17.03125 -43.09375 L 17.03125 -37.46875 L 17.859375 -37.3125 C 19.128906 -39.5 20.832031 -41.144531 22.96875 -42.25 C 25.101562 -43.351562 27.601562 -43.90625 30.46875 -43.90625 C 33.9375 -43.90625 36.960938 -43.082031 39.546875 -41.4375 C 42.140625 -39.800781 44.160156 -37.3125 45.609375 -33.96875 C 47.054688 -30.625 47.78125 -26.476562 47.78125 -21.53125 C 47.78125 -16.601562 47.015625 -12.472656 45.484375 -9.140625 C 43.960938 -5.804688 41.847656 -3.3125 39.140625 -1.65625 C 36.429688 0 33.304688 0.828125 29.765625 0.828125 C 27.085938 0.828125 24.769531 0.378906 22.8125 -0.515625 C 20.863281 -1.421875 19.210938 -2.828125 17.859375 -4.734375 L 17.03125 -4.578125 L 17.03125 17.46875 Z M 26.765625 -8.359375 C 29.992188 -8.359375 32.441406 -9.410156 34.109375 -11.515625 C 35.773438 -13.628906 36.609375 -16.96875 36.609375 -21.53125 C 36.609375 -26.082031 35.773438 -29.421875 34.109375 -31.546875 C 32.441406 -33.671875 29.992188 -34.734375 26.765625 -34.734375 C 23.742188 -34.734375 21.347656 -33.640625 19.578125 -31.453125 C 17.804688 -29.265625 16.921875 -25.957031 16.921875 -21.53125 C 16.921875 -17.125 17.804688 -13.828125 19.578125 -11.640625 C 21.347656 -9.453125 23.742188 -8.359375 26.765625 -8.359375 Z M 26.765625 -8.359375 "/></g></g></g><g fill="#ffffff" fill-opacity="1"><g transform="translate(1003.955888, 159.249972)"><g><path d="M 6.21875 0 L 6.21875 -43.09375 L 16.71875 -43.09375 L 16.71875 -36.6875 L 17.546875 -36.53125 C 18.585938 -38.925781 19.953125 -40.679688 21.640625 -41.796875 C 23.335938 -42.921875 25.394531 -43.484375 27.8125 -43.484375 C 30.257812 -43.484375 32.125 -43.066406 33.40625 -42.234375 L 31.5625 -32.890625 L 30.75 -32.734375 C 30.039062 -33.023438 29.359375 -33.234375 28.703125 -33.359375 C 28.054688 -33.492188 27.265625 -33.5625 26.328125 -33.5625 C 23.304688 -33.5625 21 -32.5 19.40625 -30.375 C 17.820312 -28.25 17.03125 -24.84375 17.03125 -20.15625 L 17.03125 0 Z M 6.21875 0 "/></g></g></g><g fill="#ffffff" fill-opacity="1"><g transform="translate(1037.741683, 159.249972)"><g><path d="M 16.796875 0.828125 C 14.035156 0.828125 11.640625 0.316406 9.609375 -0.703125 C 7.578125 -1.722656 6.015625 -3.210938 4.921875 -5.171875 C 3.828125 -7.140625 3.28125 -9.503906 3.28125 -12.265625 C 3.28125 -14.816406 3.828125 -16.957031 4.921875 -18.6875 C 6.015625 -20.425781 7.707031 -21.847656 10 -22.953125 C 12.289062 -24.054688 15.285156 -24.910156 18.984375 -25.515625 C 21.566406 -25.929688 23.523438 -26.382812 24.859375 -26.875 C 26.203125 -27.375 27.109375 -27.9375 27.578125 -28.5625 C 28.046875 -29.1875 28.28125 -29.976562 28.28125 -30.9375 C 28.28125 -32.320312 27.796875 -33.378906 26.828125 -34.109375 C 25.867188 -34.835938 24.269531 -35.203125 22.03125 -35.203125 C 19.632812 -35.203125 17.351562 -34.664062 15.1875 -33.59375 C 13.03125 -32.53125 11.160156 -31.125 9.578125 -29.375 L 8.796875 -29.375 L 4.265625 -36.21875 C 6.453125 -38.632812 9.117188 -40.519531 12.265625 -41.875 C 15.421875 -43.226562 18.859375 -43.90625 22.578125 -43.90625 C 28.285156 -43.90625 32.414062 -42.691406 34.96875 -40.265625 C 37.519531 -37.847656 38.796875 -34.414062 38.796875 -29.96875 L 38.796875 -11.25 C 38.796875 -9.320312 39.640625 -8.359375 41.328125 -8.359375 C 41.984375 -8.359375 42.625 -8.476562 43.25 -8.71875 L 43.796875 -8.5625 L 44.578125 -1.015625 C 43.972656 -0.628906 43.132812 -0.3125 42.0625 -0.0625 C 41 0.1875 39.832031 0.3125 38.5625 0.3125 C 35.976562 0.3125 33.960938 -0.179688 32.515625 -1.171875 C 31.078125 -2.160156 30.046875 -3.710938 29.421875 -5.828125 L 28.59375 -5.90625 C 26.488281 -1.414062 22.554688 0.828125 16.796875 0.828125 Z M 20.234375 -7.265625 C 22.734375 -7.265625 24.734375 -8.101562 26.234375 -9.78125 C 27.734375 -11.46875 28.484375 -13.804688 28.484375 -16.796875 L 28.484375 -21.171875 L 27.734375 -21.328125 C 27.085938 -20.804688 26.234375 -20.367188 25.171875 -20.015625 C 24.117188 -19.671875 22.601562 -19.328125 20.625 -18.984375 C 18.28125 -18.597656 16.59375 -17.925781 15.5625 -16.96875 C 14.539062 -16.019531 14.03125 -14.675781 14.03125 -12.9375 C 14.03125 -11.082031 14.578125 -9.671875 15.671875 -8.703125 C 16.765625 -7.742188 18.285156 -7.265625 20.234375 -7.265625 Z M 20.234375 -7.265625 "/></g></g></g><g fill="#ffffff" fill-opacity="1"><g transform="translate(1083.166944, 159.249972)"><g><path d="M 25.125 0.828125 C 20.957031 0.828125 17.269531 -0.0351562 14.0625 -1.765625 C 10.863281 -3.503906 8.363281 -6.050781 6.5625 -9.40625 C 4.769531 -12.769531 3.875 -16.8125 3.875 -21.53125 C 3.875 -26.269531 4.769531 -30.316406 6.5625 -33.671875 C 8.363281 -37.035156 10.851562 -39.582031 14.03125 -41.3125 C 17.207031 -43.039062 20.835938 -43.90625 24.921875 -43.90625 C 34.015625 -43.90625 39.835938 -40.613281 42.390625 -34.03125 L 34.96875 -28.71875 L 34.140625 -28.71875 C 33.253906 -30.75 32.101562 -32.257812 30.6875 -33.25 C 29.269531 -34.238281 27.347656 -34.734375 24.921875 -34.734375 C 21.796875 -34.734375 19.359375 -33.648438 17.609375 -31.484375 C 15.867188 -29.328125 15 -26.007812 15 -21.53125 C 15 -17.101562 15.882812 -13.800781 17.65625 -11.625 C 19.425781 -9.445312 21.914062 -8.359375 25.125 -8.359375 C 27.46875 -8.359375 29.453125 -8.988281 31.078125 -10.25 C 32.703125 -11.519531 33.867188 -13.335938 34.578125 -15.703125 L 35.390625 -15.78125 L 43.09375 -11.5625 C 42 -7.914062 39.972656 -4.9375 37.015625 -2.625 C 34.054688 -0.320312 30.09375 0.828125 25.125 0.828125 Z M 25.125 0.828125 "/></g></g></g><g fill="#ffffff" fill-opacity="1"><g transform="translate(1127.576701, 159.249972)"><g><path d="M 29.734375 -10.28125 L 32.546875 -2.265625 C 31.367188 -1.304688 29.894531 -0.550781 28.125 0 C 26.351562 0.550781 24.347656 0.828125 22.109375 0.828125 C 17.453125 0.828125 13.910156 -0.441406 11.484375 -2.984375 C 9.066406 -5.523438 7.859375 -9.21875 7.859375 -14.0625 L 7.859375 -34.53125 L 1.296875 -34.53125 L 1.296875 -43.125 L 7.859375 -43.125 L 7.859375 -51.53125 L 18.671875 -53.28125 L 18.671875 -43.125 L 30.90625 -43.125 L 30.90625 -34.53125 L 18.671875 -34.53125 L 18.671875 -14.84375 C 18.671875 -12.707031 19.113281 -11.148438 20 -10.171875 C 20.882812 -9.203125 22.175781 -8.71875 23.875 -8.71875 C 25.800781 -8.71875 27.476562 -9.238281 28.90625 -10.28125 Z M 29.734375 -10.28125 "/></g></g></g><g fill="#ffffff" fill-opacity="1"><g transform="translate(1161.050028, 159.249972)"><g><path d="M 11.609375 -48.25 C 9.648438 -48.25 8.054688 -48.835938 6.828125 -50.015625 C 5.609375 -51.203125 5 -52.734375 5 -54.609375 C 5 -56.460938 5.609375 -57.976562 6.828125 -59.15625 C 8.054688 -60.34375 9.648438 -60.9375 11.609375 -60.9375 C 12.910156 -60.9375 14.066406 -60.660156 15.078125 -60.109375 C 16.097656 -59.566406 16.882812 -58.820312 17.4375 -57.875 C 18 -56.925781 18.28125 -55.835938 18.28125 -54.609375 C 18.28125 -53.390625 18 -52.296875 17.4375 -51.328125 C 16.882812 -50.367188 16.097656 -49.613281 15.078125 -49.0625 C 14.066406 -48.519531 12.910156 -48.25 11.609375 -48.25 Z M 6.21875 0 L 6.21875 -43.09375 L 17.03125 -43.09375 L 17.03125 0 Z M 6.21875 0 "/></g></g></g><g fill="#ffffff" fill-opacity="1"><g transform="translate(1184.250862, 159.249972)"><g><path d="M 25.125 0.828125 C 20.957031 0.828125 17.269531 -0.0351562 14.0625 -1.765625 C 10.863281 -3.503906 8.363281 -6.050781 6.5625 -9.40625 C 4.769531 -12.769531 3.875 -16.8125 3.875 -21.53125 C 3.875 -26.269531 4.769531 -30.316406 6.5625 -33.671875 C 8.363281 -37.035156 10.851562 -39.582031 14.03125 -41.3125 C 17.207031 -43.039062 20.835938 -43.90625 24.921875 -43.90625 C 34.015625 -43.90625 39.835938 -40.613281 42.390625 -34.03125 L 34.96875 -28.71875 L 34.140625 -28.71875 C 33.253906 -30.75 32.101562 -32.257812 30.6875 -33.25 C 29.269531 -34.238281 27.347656 -34.734375 24.921875 -34.734375 C 21.796875 -34.734375 19.359375 -33.648438 17.609375 -31.484375 C 15.867188 -29.328125 15 -26.007812 15 -21.53125 C 15 -17.101562 15.882812 -13.800781 17.65625 -11.625 C 19.425781 -9.445312 21.914062 -8.359375 25.125 -8.359375 C 27.46875 -8.359375 29.453125 -8.988281 31.078125 -10.25 C 32.703125 -11.519531 33.867188 -13.335938 34.578125 -15.703125 L 35.390625 -15.78125 L 43.09375 -11.5625 C 42 -7.914062 39.972656 -4.9375 37.015625 -2.625 C 34.054688 -0.320312 30.09375 0.828125 25.125 0.828125 Z M 25.125 0.828125 "/></g></g></g><g fill="#ffffff" fill-opacity="1"><g transform="translate(1228.66062, 159.249972)"><g><path d="M 42.578125 -19.109375 L 14.890625 -19.109375 C 15.203125 -15.359375 16.269531 -12.628906 18.09375 -10.921875 C 19.914062 -9.210938 22.398438 -8.359375 25.546875 -8.359375 C 28.023438 -8.359375 30.03125 -8.820312 31.5625 -9.75 C 33.101562 -10.675781 34.34375 -12.078125 35.28125 -13.953125 L 36.09375 -13.953125 L 43.28125 -9.34375 C 41.875 -6.320312 39.75 -3.867188 36.90625 -1.984375 C 34.070312 -0.109375 30.285156 0.828125 25.546875 0.828125 C 21.097656 0.828125 17.25 -0.0195312 14 -1.71875 C 10.757812 -3.414062 8.257812 -5.9375 6.5 -9.28125 C 4.75 -12.625 3.875 -16.707031 3.875 -21.53125 C 3.875 -26.425781 4.796875 -30.550781 6.640625 -33.90625 C 8.492188 -37.269531 10.992188 -39.773438 14.140625 -41.421875 C 17.296875 -43.078125 20.835938 -43.90625 24.765625 -43.90625 C 30.859375 -43.90625 35.523438 -42.289062 38.765625 -39.0625 C 42.015625 -35.832031 43.640625 -31.09375 43.640625 -24.84375 C 43.640625 -22.582031 43.5625 -20.828125 43.40625 -19.578125 Z M 33.28125 -26.09375 C 33.175781 -29.375 32.414062 -31.765625 31 -33.265625 C 29.582031 -34.765625 27.503906 -35.515625 24.765625 -35.515625 C 19.296875 -35.515625 16.082031 -32.375 15.125 -26.09375 Z M 33.28125 -26.09375 "/></g></g></g><g fill="#ffffff" fill-opacity="1"><g transform="translate(1275.491947, 159.249972)"><g/></g></g><g fill="#ffffff" fill-opacity="1"><g transform="translate(1294.357302, 159.249972)"><g><path d="M 11.609375 -48.25 C 9.648438 -48.25 8.054688 -48.835938 6.828125 -50.015625 C 5.609375 -51.203125 5 -52.734375 5 -54.609375 C 5 -56.460938 5.609375 -57.976562 6.828125 -59.15625 C 8.054688 -60.34375 9.648438 -60.9375 11.609375 -60.9375 C 12.910156 -60.9375 14.066406 -60.660156 15.078125 -60.109375 C 16.097656 -59.566406 16.882812 -58.820312 17.4375 -57.875 C 18 -56.925781 18.28125 -55.835938 18.28125 -54.609375 C 18.28125 -53.390625 18 -52.296875 17.4375 -51.328125 C 16.882812 -50.367188 16.097656 -49.613281 15.078125 -49.0625 C 14.066406 -48.519531 12.910156 -48.25 11.609375 -48.25 Z M 6.21875 0 L 6.21875 -43.09375 L 17.03125 -43.09375 L 17.03125 0 Z M 6.21875 0 "/></g></g></g><g fill="#ffffff" fill-opacity="1"><g transform="translate(1317.558137, 159.249972)"><g><path d="M 6.21875 0 L 6.21875 -43.09375 L 16.609375 -43.09375 L 16.609375 -36.765625 L 17.421875 -36.5625 C 20.109375 -41.457031 24.457031 -43.90625 30.46875 -43.90625 C 35.445312 -43.90625 39.097656 -42.550781 41.421875 -39.84375 C 43.753906 -37.132812 44.921875 -33.191406 44.921875 -28.015625 L 44.921875 0 L 34.109375 0 L 34.109375 -26.6875 C 34.109375 -29.550781 33.535156 -31.613281 32.390625 -32.875 C 31.242188 -34.132812 29.40625 -34.765625 26.875 -34.765625 C 23.78125 -34.765625 21.363281 -33.757812 19.625 -31.75 C 17.894531 -29.75 17.03125 -26.601562 17.03125 -22.3125 L 17.03125 0 Z M 6.21875 0 "/></g></g></g><g fill="#ffffff" fill-opacity="1"><g transform="translate(106.69922, 270.999966)"><g><path d="M 6.21875 17.46875 L 6.21875 -43.09375 L 17.03125 -43.09375 L 17.03125 -37.46875 L 17.859375 -37.3125 C 19.128906 -39.5 20.832031 -41.144531 22.96875 -42.25 C 25.101562 -43.351562 27.601562 -43.90625 30.46875 -43.90625 C 33.9375 -43.90625 36.960938 -43.082031 39.546875 -41.4375 C 42.140625 -39.800781 44.160156 -37.3125 45.609375 -33.96875 C 47.054688 -30.625 47.78125 -26.476562 47.78125 -21.53125 C 47.78125 -16.601562 47.015625 -12.472656 45.484375 -9.140625 C 43.960938 -5.804688 41.847656 -3.3125 39.140625 -1.65625 C 36.429688 0 33.304688 0.828125 29.765625 0.828125 C 27.085938 0.828125 24.769531 0.378906 22.8125 -0.515625 C 20.863281 -1.421875 19.210938 -2.828125 17.859375 -4.734375 L 17.03125 -4.578125 L 17.03125 17.46875 Z M 26.765625 -8.359375 C 29.992188 -8.359375 32.441406 -9.410156 34.109375 -11.515625 C 35.773438 -13.628906 36.609375 -16.96875 36.609375 -21.53125 C 36.609375 -26.082031 35.773438 -29.421875 34.109375 -31.546875 C 32.441406 -33.671875 29.992188 -34.734375 26.765625 -34.734375 C 23.742188 -34.734375 21.347656 -33.640625 19.578125 -31.453125 C 17.804688 -29.265625 16.921875 -25.957031 16.921875 -21.53125 C 16.921875 -17.125 17.804688 -13.828125 19.578125 -11.640625 C 21.347656 -9.453125 23.742188 -8.359375 26.765625 -8.359375 Z M 26.765625 -8.359375 "/></g></g></g><g fill="#ffffff" fill-opacity="1"><g transform="translate(158.29574, 270.999966)"><g><path d="M 6.21875 0 L 6.21875 -43.09375 L 16.71875 -43.09375 L 16.71875 -36.6875 L 17.546875 -36.53125 C 18.585938 -38.925781 19.953125 -40.679688 21.640625 -41.796875 C 23.335938 -42.921875 25.394531 -43.484375 27.8125 -43.484375 C 30.257812 -43.484375 32.125 -43.066406 33.40625 -42.234375 L 31.5625 -32.890625 L 30.75 -32.734375 C 30.039062 -33.023438 29.359375 -33.234375 28.703125 -33.359375 C 28.054688 -33.492188 27.265625 -33.5625 26.328125 -33.5625 C 23.304688 -33.5625 21 -32.5 19.40625 -30.375 C 17.820312 -28.25 17.03125 -24.84375 17.03125 -20.15625 L 17.03125 0 Z M 6.21875 0 "/></g></g></g><g fill="#ffffff" fill-opacity="1"><g transform="translate(192.081501, 270.999966)"><g><path d="M 25.046875 0.828125 C 20.828125 0.828125 17.117188 -0.0351562 13.921875 -1.765625 C 10.734375 -3.503906 8.257812 -6.046875 6.5 -9.390625 C 4.75 -12.742188 3.875 -16.789062 3.875 -21.53125 C 3.875 -26.269531 4.75 -30.316406 6.5 -33.671875 C 8.257812 -37.035156 10.734375 -39.582031 13.921875 -41.3125 C 17.117188 -43.039062 20.828125 -43.90625 25.046875 -43.90625 C 29.265625 -43.90625 32.96875 -43.039062 36.15625 -41.3125 C 39.34375 -39.582031 41.820312 -37.035156 43.59375 -33.671875 C 45.363281 -30.316406 46.25 -26.269531 46.25 -21.53125 C 46.25 -16.789062 45.363281 -12.742188 43.59375 -9.390625 C 41.820312 -6.046875 39.34375 -3.503906 36.15625 -1.765625 C 32.96875 -0.0351562 29.265625 0.828125 25.046875 0.828125 Z M 25.046875 -8.359375 C 31.734375 -8.359375 35.078125 -12.75 35.078125 -21.53125 C 35.078125 -26.082031 34.21875 -29.421875 32.5 -31.546875 C 30.78125 -33.671875 28.296875 -34.734375 25.046875 -34.734375 C 18.347656 -34.734375 15 -30.332031 15 -21.53125 C 15 -12.75 18.347656 -8.359375 25.046875 -8.359375 Z M 25.046875 -8.359375 "/></g></g></g><g fill="#ffffff" fill-opacity="1"><g transform="translate(242.154734, 270.999966)"><g><path d="M 11.609375 -48.25 C 9.648438 -48.25 8.054688 -48.835938 6.828125 -50.015625 C 5.609375 -51.203125 5 -52.734375 5 -54.609375 C 5 -56.460938 5.609375 -57.976562 6.828125 -59.15625 C 8.054688 -60.34375 9.648438 -60.9375 11.609375 -60.9375 C 12.910156 -60.9375 14.066406 -60.660156 15.078125 -60.109375 C 16.097656 -59.566406 16.882812 -58.820312 17.4375 -57.875 C 18 -56.925781 18.28125 -55.835938 18.28125 -54.609375 C 18.28125 -53.390625 18 -52.296875 17.4375 -51.328125 C 16.882812 -50.367188 16.097656 -49.613281 15.078125 -49.0625 C 14.066406 -48.519531 12.910156 -48.25 11.609375 -48.25 Z M 3.359375 18.28125 C 0.179688 18.28125 -2.367188 17.863281 -4.296875 17.03125 L -2.96875 8.515625 L -2.234375 8.28125 C -1.191406 8.78125 0.0351562 9.03125 1.453125 9.03125 C 4.628906 9.03125 6.21875 7.15625 6.21875 3.40625 L 6.21875 -43.09375 L 17.03125 -43.09375 L 17.03125 3.09375 C 17.03125 8.113281 15.867188 11.898438 13.546875 14.453125 C 11.234375 17.003906 7.835938 18.28125 3.359375 18.28125 Z M 3.359375 18.28125 "/></g></g></g><g fill="#ffffff" fill-opacity="1"><g transform="translate(265.355592, 270.999966)"><g><path d="M 42.578125 -19.109375 L 14.890625 -19.109375 C 15.203125 -15.359375 16.269531 -12.628906 18.09375 -10.921875 C 19.914062 -9.210938 22.398438 -8.359375 25.546875 -8.359375 C 28.023438 -8.359375 30.03125 -8.820312 31.5625 -9.75 C 33.101562 -10.675781 34.34375 -12.078125 35.28125 -13.953125 L 36.09375 -13.953125 L 43.28125 -9.34375 C 41.875 -6.320312 39.75 -3.867188 36.90625 -1.984375 C 34.070312 -0.109375 30.285156 0.828125 25.546875 0.828125 C 21.097656 0.828125 17.25 -0.0195312 14 -1.71875 C 10.757812 -3.414062 8.257812 -5.9375 6.5 -9.28125 C 4.75 -12.625 3.875 -16.707031 3.875 -21.53125 C 3.875 -26.425781 4.796875 -30.550781 6.640625 -33.90625 C 8.492188 -37.269531 10.992188 -39.773438 14.140625 -41.421875 C 17.296875 -43.078125 20.835938 -43.90625 24.765625 -43.90625 C 30.859375 -43.90625 35.523438 -42.289062 38.765625 -39.0625 C 42.015625 -35.832031 43.640625 -31.09375 43.640625 -24.84375 C 43.640625 -22.582031 43.5625 -20.828125 43.40625 -19.578125 Z M 33.28125 -26.09375 C 33.175781 -29.375 32.414062 -31.765625 31 -33.265625 C 29.582031 -34.765625 27.503906 -35.515625 24.765625 -35.515625 C 19.296875 -35.515625 16.082031 -32.375 15.125 -26.09375 Z M 33.28125 -26.09375 "/></g></g></g><g fill="#ffffff" fill-opacity="1"><g transform="translate(312.186942, 270.999966)"><g><path d="M 25.125 0.828125 C 20.957031 0.828125 17.269531 -0.0351562 14.0625 -1.765625 C 10.863281 -3.503906 8.363281 -6.050781 6.5625 -9.40625 C 4.769531 -12.769531 3.875 -16.8125 3.875 -21.53125 C 3.875 -26.269531 4.769531 -30.316406 6.5625 -33.671875 C 8.363281 -37.035156 10.851562 -39.582031 14.03125 -41.3125 C 17.207031 -43.039062 20.835938 -43.90625 24.921875 -43.90625 C 34.015625 -43.90625 39.835938 -40.613281 42.390625 -34.03125 L 34.96875 -28.71875 L 34.140625 -28.71875 C 33.253906 -30.75 32.101562 -32.257812 30.6875 -33.25 C 29.269531 -34.238281 27.347656 -34.734375 24.921875 -34.734375 C 21.796875 -34.734375 19.359375 -33.648438 17.609375 -31.484375 C 15.867188 -29.328125 15 -26.007812 15 -21.53125 C 15 -17.101562 15.882812 -13.800781 17.65625 -11.625 C 19.425781 -9.445312 21.914062 -8.359375 25.125 -8.359375 C 27.46875 -8.359375 29.453125 -8.988281 31.078125 -10.25 C 32.703125 -11.519531 33.867188 -13.335938 34.578125 -15.703125 L 35.390625 -15.78125 L 43.09375 -11.5625 C 42 -7.914062 39.972656 -4.9375 37.015625 -2.625 C 34.054688 -0.320312 30.09375 0.828125 25.125 0.828125 Z M 25.125 0.828125 "/></g></g></g><g fill="#ffffff" fill-opacity="1"><g transform="translate(356.596653, 270.999966)"><g><path d="M 29.734375 -10.28125 L 32.546875 -2.265625 C 31.367188 -1.304688 29.894531 -0.550781 28.125 0 C 26.351562 0.550781 24.347656 0.828125 22.109375 0.828125 C 17.453125 0.828125 13.910156 -0.441406 11.484375 -2.984375 C 9.066406 -5.523438 7.859375 -9.21875 7.859375 -14.0625 L 7.859375 -34.53125 L 1.296875 -34.53125 L 1.296875 -43.125 L 7.859375 -43.125 L 7.859375 -51.53125 L 18.671875 -53.28125 L 18.671875 -43.125 L 30.90625 -43.125 L 30.90625 -34.53125 L 18.671875 -34.53125 L 18.671875 -14.84375 C 18.671875 -12.707031 19.113281 -11.148438 20 -10.171875 C 20.882812 -9.203125 22.175781 -8.71875 23.875 -8.71875 C 25.800781 -8.71875 27.476562 -9.238281 28.90625 -10.28125 Z M 29.734375 -10.28125 "/></g></g></g><g fill="#ffffff" fill-opacity="1"><g transform="translate(390.069933, 270.999966)"><g><path d="M 20.15625 0.828125 C 17.21875 0.828125 14.523438 0.484375 12.078125 -0.203125 C 9.628906 -0.898438 7.535156 -1.851562 5.796875 -3.0625 C 4.066406 -4.28125 2.785156 -5.671875 1.953125 -7.234375 L 7.96875 -13.71875 L 8.796875 -13.71875 C 10.222656 -11.789062 11.910156 -10.34375 13.859375 -9.375 C 15.816406 -8.414062 17.941406 -7.9375 20.234375 -7.9375 C 22.347656 -7.9375 23.9375 -8.3125 25 -9.0625 C 26.070312 -9.820312 26.609375 -10.90625 26.609375 -12.3125 C 26.609375 -13.40625 26.222656 -14.320312 25.453125 -15.0625 C 24.679688 -15.800781 23.4375 -16.378906 21.71875 -16.796875 L 16.015625 -18.171875 C 11.742188 -19.179688 8.625 -20.734375 6.65625 -22.828125 C 4.695312 -24.929688 3.71875 -27.597656 3.71875 -30.828125 C 3.71875 -33.503906 4.398438 -35.832031 5.765625 -37.8125 C 7.128906 -39.789062 9.054688 -41.300781 11.546875 -42.34375 C 14.035156 -43.382812 16.929688 -43.90625 20.234375 -43.90625 C 24.117188 -43.90625 27.335938 -43.34375 29.890625 -42.21875 C 32.441406 -41.101562 34.429688 -39.609375 35.859375 -37.734375 L 30.078125 -31.484375 L 29.296875 -31.484375 C 28.097656 -32.835938 26.75 -33.828125 25.25 -34.453125 C 23.757812 -35.078125 22.085938 -35.390625 20.234375 -35.390625 C 15.960938 -35.390625 13.828125 -34.0625 13.828125 -31.40625 C 13.828125 -30.289062 14.222656 -29.378906 15.015625 -28.671875 C 15.816406 -27.972656 17.21875 -27.398438 19.21875 -26.953125 L 24.53125 -25.78125 C 28.90625 -24.84375 32.101562 -23.335938 34.125 -21.265625 C 36.144531 -19.203125 37.15625 -16.425781 37.15625 -12.9375 C 37.15625 -10.195312 36.476562 -7.785156 35.125 -5.703125 C 33.769531 -3.617188 31.816406 -2.007812 29.265625 -0.875 C 26.710938 0.257812 23.675781 0.828125 20.15625 0.828125 Z M 20.15625 0.828125 "/></g></g></g><g fill="#ffffff" fill-opacity="1"><g transform="translate(429.792603, 270.999966)"><g><path d="M 1.5625 11.484375 C 3.851562 10.078125 5.90625 8.378906 7.71875 6.390625 C 9.53125 4.398438 10.5 2.375 10.625 0.3125 C 8.59375 0.3125 7 -0.289062 5.84375 -1.5 C 4.6875 -2.71875 4.109375 -4.289062 4.109375 -6.21875 C 4.109375 -7.4375 4.382812 -8.546875 4.9375 -9.546875 C 5.5 -10.554688 6.300781 -11.347656 7.34375 -11.921875 C 8.382812 -12.492188 9.582031 -12.78125 10.9375 -12.78125 C 13.125 -12.78125 14.867188 -12.0625 16.171875 -10.625 C 17.472656 -9.195312 18.125 -7.140625 18.125 -4.453125 C 18.125 0.210938 16.945312 4.265625 14.59375 7.703125 C 12.238281 11.140625 9.09375 14.039062 5.15625 16.40625 Z M 1.5625 11.484375 "/></g></g></g><g fill="#ffffff" fill-opacity="1"><g transform="translate(470.882338, 270.999966)"><g><path d="M 30.125 0.828125 C 24.625 0.828125 20.535156 -1.234375 17.859375 -5.359375 L 17.03125 -5.203125 L 17.03125 0 L 6.21875 0 L 6.21875 -60.390625 L 17.03125 -60.390625 L 17.03125 -38.015625 L 17.859375 -37.859375 C 19.335938 -39.910156 21.085938 -41.429688 23.109375 -42.421875 C 25.128906 -43.410156 27.546875 -43.90625 30.359375 -43.90625 C 33.847656 -43.90625 36.894531 -43.082031 39.5 -41.4375 C 42.101562 -39.800781 44.132812 -37.3125 45.59375 -33.96875 C 47.050781 -30.625 47.78125 -26.476562 47.78125 -21.53125 C 47.78125 -16.632812 47.023438 -12.507812 45.515625 -9.15625 C 44.003906 -5.8125 41.921875 -3.3125 39.265625 -1.65625 C 36.609375 0 33.5625 0.828125 30.125 0.828125 Z M 26.84375 -8.359375 C 30.019531 -8.359375 32.441406 -9.421875 34.109375 -11.546875 C 35.773438 -13.671875 36.609375 -17 36.609375 -21.53125 C 36.609375 -26.082031 35.773438 -29.421875 34.109375 -31.546875 C 32.441406 -33.671875 30.019531 -34.734375 26.84375 -34.734375 C 23.789062 -34.734375 21.375 -33.640625 19.59375 -31.453125 C 17.8125 -29.265625 16.921875 -25.957031 16.921875 -21.53125 C 16.921875 -17.101562 17.8125 -13.800781 19.59375 -11.625 C 21.375 -9.445312 23.789062 -8.359375 26.84375 -8.359375 Z M 26.84375 -8.359375 "/></g></g></g><g fill="#ffffff" fill-opacity="1"><g transform="translate(522.478847, 270.999966)"><g><path d="M 19.734375 0.828125 C 14.890625 0.828125 11.3125 -0.492188 9 -3.140625 C 6.695312 -5.785156 5.546875 -9.582031 5.546875 -14.53125 L 5.546875 -43.09375 L 16.375 -43.09375 L 16.375 -15.90625 C 16.375 -13.269531 16.9375 -11.347656 18.0625 -10.140625 C 19.195312 -8.929688 20.953125 -8.328125 23.328125 -8.328125 C 26.316406 -8.328125 28.644531 -9.304688 30.3125 -11.265625 C 31.976562 -13.234375 32.8125 -16.328125 32.8125 -20.546875 L 32.8125 -43.09375 L 43.640625 -43.09375 L 43.640625 0 L 33.25 0 L 33.25 -6.328125 L 32.421875 -6.53125 C 31.046875 -4.050781 29.359375 -2.203125 27.359375 -0.984375 C 25.367188 0.222656 22.828125 0.828125 19.734375 0.828125 Z M 19.734375 0.828125 "/></g></g></g><g fill="#ffffff" fill-opacity="1"><g transform="translate(572.317726, 270.999966)"><g><path d="M 29.734375 -10.28125 L 32.546875 -2.265625 C 31.367188 -1.304688 29.894531 -0.550781 28.125 0 C 26.351562 0.550781 24.347656 0.828125 22.109375 0.828125 C 17.453125 0.828125 13.910156 -0.441406 11.484375 -2.984375 C 9.066406 -5.523438 7.859375 -9.21875 7.859375 -14.0625 L 7.859375 -34.53125 L 1.296875 -34.53125 L 1.296875 -43.125 L 7.859375 -43.125 L 7.859375 -51.53125 L 18.671875 -53.28125 L 18.671875 -43.125 L 30.90625 -43.125 L 30.90625 -34.53125 L 18.671875 -34.53125 L 18.671875 -14.84375 C 18.671875 -12.707031 19.113281 -11.148438 20 -10.171875 C 20.882812 -9.203125 22.175781 -8.71875 23.875 -8.71875 C 25.800781 -8.71875 27.476562 -9.238281 28.90625 -10.28125 Z M 29.734375 -10.28125 "/></g></g></g><g fill="#ffffff" fill-opacity="1"><g transform="translate(624.656362, 270.999966)"><g><path d="M 11.609375 -48.25 C 9.648438 -48.25 8.054688 -48.835938 6.828125 -50.015625 C 5.609375 -51.203125 5 -52.734375 5 -54.609375 C 5 -56.460938 5.609375 -57.976562 6.828125 -59.15625 C 8.054688 -60.34375 9.648438 -60.9375 11.609375 -60.9375 C 12.910156 -60.9375 14.066406 -60.660156 15.078125 -60.109375 C 16.097656 -59.566406 16.882812 -58.820312 17.4375 -57.875 C 18 -56.925781 18.28125 -55.835938 18.28125 -54.609375 C 18.28125 -53.390625 18 -52.296875 17.4375 -51.328125 C 16.882812 -50.367188 16.097656 -49.613281 15.078125 -49.0625 C 14.066406 -48.519531 12.910156 -48.25 11.609375 -48.25 Z M 6.21875 0 L 6.21875 -43.09375 L 17.03125 -43.09375 L 17.03125 0 Z M 6.21875 0 "/></g></g></g><g fill="#ffffff" fill-opacity="1"><g transform="translate(647.857243, 270.999966)"><g><path d="M 29.734375 -10.28125 L 32.546875 -2.265625 C 31.367188 -1.304688 29.894531 -0.550781 28.125 0 C 26.351562 0.550781 24.347656 0.828125 22.109375 0.828125 C 17.453125 0.828125 13.910156 -0.441406 11.484375 -2.984375 C 9.066406 -5.523438 7.859375 -9.21875 7.859375 -14.0625 L 7.859375 -34.53125 L 1.296875 -34.53125 L 1.296875 -43.125 L 7.859375 -43.125 L 7.859375 -51.53125 L 18.671875 -53.28125 L 18.671875 -43.125 L 30.90625 -43.125 L 30.90625 -34.53125 L 18.671875 -34.53125 L 18.671875 -14.84375 C 18.671875 -12.707031 19.113281 -11.148438 20 -10.171875 C 20.882812 -9.203125 22.175781 -8.71875 23.875 -8.71875 C 25.800781 -8.71875 27.476562 -9.238281 28.90625 -10.28125 Z M 29.734375 -10.28125 "/></g></g></g><g fill="#ffffff" fill-opacity="1"><g transform="translate(700.195878, 270.999966)"><g><path d="M 23.125 0 L 11.796875 0 L 1.5625 -43.09375 L 11.609375 -43.09375 L 17.9375 -13.953125 L 18.75 -13.953125 L 26.953125 -43.09375 L 36.328125 -43.09375 L 44.8125 -13.953125 L 45.625 -13.953125 L 51.71875 -43.09375 L 61.484375 -43.09375 L 51.375 0 L 40 0 L 31.84375 -29.34375 L 31.015625 -29.34375 Z M 23.125 0 "/></g></g></g><g fill="#ffffff" fill-opacity="1"><g transform="translate(763.197523, 270.999966)"><g><path d="M 16.796875 0.828125 C 14.035156 0.828125 11.640625 0.316406 9.609375 -0.703125 C 7.578125 -1.722656 6.015625 -3.210938 4.921875 -5.171875 C 3.828125 -7.140625 3.28125 -9.503906 3.28125 -12.265625 C 3.28125 -14.816406 3.828125 -16.957031 4.921875 -18.6875 C 6.015625 -20.425781 7.707031 -21.847656 10 -22.953125 C 12.289062 -24.054688 15.285156 -24.910156 18.984375 -25.515625 C 21.566406 -25.929688 23.523438 -26.382812 24.859375 -26.875 C 26.203125 -27.375 27.109375 -27.9375 27.578125 -28.5625 C 28.046875 -29.1875 28.28125 -29.976562 28.28125 -30.9375 C 28.28125 -32.320312 27.796875 -33.378906 26.828125 -34.109375 C 25.867188 -34.835938 24.269531 -35.203125 22.03125 -35.203125 C 19.632812 -35.203125 17.351562 -34.664062 15.1875 -33.59375 C 13.03125 -32.53125 11.160156 -31.125 9.578125 -29.375 L 8.796875 -29.375 L 4.265625 -36.21875 C 6.453125 -38.632812 9.117188 -40.519531 12.265625 -41.875 C 15.421875 -43.226562 18.859375 -43.90625 22.578125 -43.90625 C 28.285156 -43.90625 32.414062 -42.691406 34.96875 -40.265625 C 37.519531 -37.847656 38.796875 -34.414062 38.796875 -29.96875 L 38.796875 -11.25 C 38.796875 -9.320312 39.640625 -8.359375 41.328125 -8.359375 C 41.984375 -8.359375 42.625 -8.476562 43.25 -8.71875 L 43.796875 -8.5625 L 44.578125 -1.015625 C 43.972656 -0.628906 43.132812 -0.3125 42.0625 -0.0625 C 41 0.1875 39.832031 0.3125 38.5625 0.3125 C 35.976562 0.3125 33.960938 -0.179688 32.515625 -1.171875 C 31.078125 -2.160156 30.046875 -3.710938 29.421875 -5.828125 L 28.59375 -5.90625 C 26.488281 -1.414062 22.554688 0.828125 16.796875 0.828125 Z M 20.234375 -7.265625 C 22.734375 -7.265625 24.734375 -8.101562 26.234375 -9.78125 C 27.734375 -11.46875 28.484375 -13.804688 28.484375 -16.796875 L 28.484375 -21.171875 L 27.734375 -21.328125 C 27.085938 -20.804688 26.234375 -20.367188 25.171875 -20.015625 C 24.117188 -19.671875 22.601562 -19.328125 20.625 -18.984375 C 18.28125 -18.597656 16.59375 -17.925781 15.5625 -16.96875 C 14.539062 -16.019531 14.03125 -14.675781 14.03125 -12.9375 C 14.03125 -11.082031 14.578125 -9.671875 15.671875 -8.703125 C 16.765625 -7.742188 18.285156 -7.265625 20.234375 -7.265625 Z M 20.234375 -7.265625 "/></g></g></g><g fill="#ffffff" fill-opacity="1"><g transform="translate(808.622783, 270.999966)"><g><path d="M 20.15625 0.828125 C 17.21875 0.828125 14.523438 0.484375 12.078125 -0.203125 C 9.628906 -0.898438 7.535156 -1.851562 5.796875 -3.0625 C 4.066406 -4.28125 2.785156 -5.671875 1.953125 -7.234375 L 7.96875 -13.71875 L 8.796875 -13.71875 C 10.222656 -11.789062 11.910156 -10.34375 13.859375 -9.375 C 15.816406 -8.414062 17.941406 -7.9375 20.234375 -7.9375 C 22.347656 -7.9375 23.9375 -8.3125 25 -9.0625 C 26.070312 -9.820312 26.609375 -10.90625 26.609375 -12.3125 C 26.609375 -13.40625 26.222656 -14.320312 25.453125 -15.0625 C 24.679688 -15.800781 23.4375 -16.378906 21.71875 -16.796875 L 16.015625 -18.171875 C 11.742188 -19.179688 8.625 -20.734375 6.65625 -22.828125 C 4.695312 -24.929688 3.71875 -27.597656 3.71875 -30.828125 C 3.71875 -33.503906 4.398438 -35.832031 5.765625 -37.8125 C 7.128906 -39.789062 9.054688 -41.300781 11.546875 -42.34375 C 14.035156 -43.382812 16.929688 -43.90625 20.234375 -43.90625 C 24.117188 -43.90625 27.335938 -43.34375 29.890625 -42.21875 C 32.441406 -41.101562 34.429688 -39.609375 35.859375 -37.734375 L 30.078125 -31.484375 L 29.296875 -31.484375 C 28.097656 -32.835938 26.75 -33.828125 25.25 -34.453125 C 23.757812 -35.078125 22.085938 -35.390625 20.234375 -35.390625 C 15.960938 -35.390625 13.828125 -34.0625 13.828125 -31.40625 C 13.828125 -30.289062 14.222656 -29.378906 15.015625 -28.671875 C 15.816406 -27.972656 17.21875 -27.398438 19.21875 -26.953125 L 24.53125 -25.78125 C 28.90625 -24.84375 32.101562 -23.335938 34.125 -21.265625 C 36.144531 -19.203125 37.15625 -16.425781 37.15625 -12.9375 C 37.15625 -10.195312 36.476562 -7.785156 35.125 -5.703125 C 33.769531 -3.617188 31.816406 -2.007812 29.265625 -0.875 C 26.710938 0.257812 23.675781 0.828125 20.15625 0.828125 Z M 20.15625 0.828125 "/></g></g></g><g fill="#ffffff" fill-opacity="1"><g transform="translate(867.210809, 270.999966)"><g><path d="M 42.578125 -19.109375 L 14.890625 -19.109375 C 15.203125 -15.359375 16.269531 -12.628906 18.09375 -10.921875 C 19.914062 -9.210938 22.398438 -8.359375 25.546875 -8.359375 C 28.023438 -8.359375 30.03125 -8.820312 31.5625 -9.75 C 33.101562 -10.675781 34.34375 -12.078125 35.28125 -13.953125 L 36.09375 -13.953125 L 43.28125 -9.34375 C 41.875 -6.320312 39.75 -3.867188 36.90625 -1.984375 C 34.070312 -0.109375 30.285156 0.828125 25.546875 0.828125 C 21.097656 0.828125 17.25 -0.0195312 14 -1.71875 C 10.757812 -3.414062 8.257812 -5.9375 6.5 -9.28125 C 4.75 -12.625 3.875 -16.707031 3.875 -21.53125 C 3.875 -26.425781 4.796875 -30.550781 6.640625 -33.90625 C 8.492188 -37.269531 10.992188 -39.773438 14.140625 -41.421875 C 17.296875 -43.078125 20.835938 -43.90625 24.765625 -43.90625 C 30.859375 -43.90625 35.523438 -42.289062 38.765625 -39.0625 C 42.015625 -35.832031 43.640625 -31.09375 43.640625 -24.84375 C 43.640625 -22.582031 43.5625 -20.828125 43.40625 -19.578125 Z M 33.28125 -26.09375 C 33.175781 -29.375 32.414062 -31.765625 31 -33.265625 C 29.582031 -34.765625 27.503906 -35.515625 24.765625 -35.515625 C 19.296875 -35.515625 16.082031 -32.375 15.125 -26.09375 Z M 33.28125 -26.09375 "/></g></g></g><g fill="#ffffff" fill-opacity="1"><g transform="translate(914.042135, 270.999966)"><g><path d="M 12.15625 0 L 0.75 0 L 13.046875 -22.34375 L 1.40625 -43.09375 L 12.96875 -43.09375 L 20.4375 -28.90625 L 21.328125 -28.90625 L 28.828125 -43.09375 L 40.046875 -43.09375 L 28.75 -22.34375 L 40.703125 0 L 29.1875 0 L 21.0625 -15.75 L 20.15625 -15.75 Z M 12.15625 0 "/></g></g></g><g fill="#ffffff" fill-opacity="1"><g transform="translate(955.483387, 270.999966)"><g><path d="M 6.21875 0 L 6.21875 -60.390625 L 17.03125 -60.390625 L 17.03125 -37.46875 L 17.859375 -37.3125 C 19.285156 -39.414062 21.039062 -41.039062 23.125 -42.1875 C 25.207031 -43.332031 27.722656 -43.90625 30.671875 -43.90625 C 40.171875 -43.90625 44.921875 -38.515625 44.921875 -27.734375 L 44.921875 0 L 34.109375 0 L 34.109375 -26.375 C 34.109375 -29.3125 33.519531 -31.441406 32.34375 -32.765625 C 31.175781 -34.097656 29.351562 -34.765625 26.875 -34.765625 C 23.851562 -34.765625 21.457031 -33.753906 19.6875 -31.734375 C 17.914062 -29.722656 17.03125 -26.582031 17.03125 -22.3125 L 17.03125 0 Z M 6.21875 0 "/></g></g></g><g fill="#ffffff" fill-opacity="1"><g transform="translate(1005.94716, 270.999966)"><g><path d="M 16.796875 0.828125 C 14.035156 0.828125 11.640625 0.316406 9.609375 -0.703125 C 7.578125 -1.722656 6.015625 -3.210938 4.921875 -5.171875 C 3.828125 -7.140625 3.28125 -9.503906 3.28125 -12.265625 C 3.28125 -14.816406 3.828125 -16.957031 4.921875 -18.6875 C 6.015625 -20.425781 7.707031 -21.847656 10 -22.953125 C 12.289062 -24.054688 15.285156 -24.910156 18.984375 -25.515625 C 21.566406 -25.929688 23.523438 -26.382812 24.859375 -26.875 C 26.203125 -27.375 27.109375 -27.9375 27.578125 -28.5625 C 28.046875 -29.1875 28.28125 -29.976562 28.28125 -30.9375 C 28.28125 -32.320312 27.796875 -33.378906 26.828125 -34.109375 C 25.867188 -34.835938 24.269531 -35.203125 22.03125 -35.203125 C 19.632812 -35.203125 17.351562 -34.664062 15.1875 -33.59375 C 13.03125 -32.53125 11.160156 -31.125 9.578125 -29.375 L 8.796875 -29.375 L 4.265625 -36.21875 C 6.453125 -38.632812 9.117188 -40.519531 12.265625 -41.875 C 15.421875 -43.226562 18.859375 -43.90625 22.578125 -43.90625 C 28.285156 -43.90625 32.414062 -42.691406 34.96875 -40.265625 C 37.519531 -37.847656 38.796875 -34.414062 38.796875 -29.96875 L 38.796875 -11.25 C 38.796875 -9.320312 39.640625 -8.359375 41.328125 -8.359375 C 41.984375 -8.359375 42.625 -8.476562 43.25 -8.71875 L 43.796875 -8.5625 L 44.578125 -1.015625 C 43.972656 -0.628906 43.132812 -0.3125 42.0625 -0.0625 C 41 0.1875 39.832031 0.3125 38.5625 0.3125 C 35.976562 0.3125 33.960938 -0.179688 32.515625 -1.171875 C 31.078125 -2.160156 30.046875 -3.710938 29.421875 -5.828125 L 28.59375 -5.90625 C 26.488281 -1.414062 22.554688 0.828125 16.796875 0.828125 Z M 20.234375 -7.265625 C 22.734375 -7.265625 24.734375 -8.101562 26.234375 -9.78125 C 27.734375 -11.46875 28.484375 -13.804688 28.484375 -16.796875 L 28.484375 -21.171875 L 27.734375 -21.328125 C 27.085938 -20.804688 26.234375 -20.367188 25.171875 -20.015625 C 24.117188 -19.671875 22.601562 -19.328125 20.625 -18.984375 C 18.28125 -18.597656 16.59375 -17.925781 15.5625 -16.96875 C 14.539062 -16.019531 14.03125 -14.675781 14.03125 -12.9375 C 14.03125 -11.082031 14.578125 -9.671875 15.671875 -8.703125 C 16.765625 -7.742188 18.285156 -7.265625 20.234375 -7.265625 Z M 20.234375 -7.265625 "/></g></g></g><g fill="#ffffff" fill-opacity="1"><g transform="translate(1051.37242, 270.999966)"><g><path d="M 19.734375 0.828125 C 14.890625 0.828125 11.3125 -0.492188 9 -3.140625 C 6.695312 -5.785156 5.546875 -9.582031 5.546875 -14.53125 L 5.546875 -43.09375 L 16.375 -43.09375 L 16.375 -15.90625 C 16.375 -13.269531 16.9375 -11.347656 18.0625 -10.140625 C 19.195312 -8.929688 20.953125 -8.328125 23.328125 -8.328125 C 26.316406 -8.328125 28.644531 -9.304688 30.3125 -11.265625 C 31.976562 -13.234375 32.8125 -16.328125 32.8125 -20.546875 L 32.8125 -43.09375 L 43.640625 -43.09375 L 43.640625 0 L 33.25 0 L 33.25 -6.328125 L 32.421875 -6.53125 C 31.046875 -4.050781 29.359375 -2.203125 27.359375 -0.984375 C 25.367188 0.222656 22.828125 0.828125 19.734375 0.828125 Z M 19.734375 0.828125 "/></g></g></g><g fill="#ffffff" fill-opacity="1"><g transform="translate(1101.211254, 270.999966)"><g><path d="M 20.15625 0.828125 C 17.21875 0.828125 14.523438 0.484375 12.078125 -0.203125 C 9.628906 -0.898438 7.535156 -1.851562 5.796875 -3.0625 C 4.066406 -4.28125 2.785156 -5.671875 1.953125 -7.234375 L 7.96875 -13.71875 L 8.796875 -13.71875 C 10.222656 -11.789062 11.910156 -10.34375 13.859375 -9.375 C 15.816406 -8.414062 17.941406 -7.9375 20.234375 -7.9375 C 22.347656 -7.9375 23.9375 -8.3125 25 -9.0625 C 26.070312 -9.820312 26.609375 -10.90625 26.609375 -12.3125 C 26.609375 -13.40625 26.222656 -14.320312 25.453125 -15.0625 C 24.679688 -15.800781 23.4375 -16.378906 21.71875 -16.796875 L 16.015625 -18.171875 C 11.742188 -19.179688 8.625 -20.734375 6.65625 -22.828125 C 4.695312 -24.929688 3.71875 -27.597656 3.71875 -30.828125 C 3.71875 -33.503906 4.398438 -35.832031 5.765625 -37.8125 C 7.128906 -39.789062 9.054688 -41.300781 11.546875 -42.34375 C 14.035156 -43.382812 16.929688 -43.90625 20.234375 -43.90625 C 24.117188 -43.90625 27.335938 -43.34375 29.890625 -42.21875 C 32.441406 -41.101562 34.429688 -39.609375 35.859375 -37.734375 L 30.078125 -31.484375 L 29.296875 -31.484375 C 28.097656 -32.835938 26.75 -33.828125 25.25 -34.453125 C 23.757812 -35.078125 22.085938 -35.390625 20.234375 -35.390625 C 15.960938 -35.390625 13.828125 -34.0625 13.828125 -31.40625 C 13.828125 -30.289062 14.222656 -29.378906 15.015625 -28.671875 C 15.816406 -27.972656 17.21875 -27.398438 19.21875 -26.953125 L 24.53125 -25.78125 C 28.90625 -24.84375 32.101562 -23.335938 34.125 -21.265625 C 36.144531 -19.203125 37.15625 -16.425781 37.15625 -12.9375 C 37.15625 -10.195312 36.476562 -7.785156 35.125 -5.703125 C 33.769531 -3.617188 31.816406 -2.007812 29.265625 -0.875 C 26.710938 0.257812 23.675781 0.828125 20.15625 0.828125 Z M 20.15625 0.828125 "/></g></g></g><g fill="#ffffff" fill-opacity="1"><g transform="translate(1140.93397, 270.999966)"><g><path d="M 29.734375 -10.28125 L 32.546875 -2.265625 C 31.367188 -1.304688 29.894531 -0.550781 28.125 0 C 26.351562 0.550781 24.347656 0.828125 22.109375 0.828125 C 17.453125 0.828125 13.910156 -0.441406 11.484375 -2.984375 C 9.066406 -5.523438 7.859375 -9.21875 7.859375 -14.0625 L 7.859375 -34.53125 L 1.296875 -34.53125 L 1.296875 -43.125 L 7.859375 -43.125 L 7.859375 -51.53125 L 18.671875 -53.28125 L 18.671875 -43.125 L 30.90625 -43.125 L 30.90625 -34.53125 L 18.671875 -34.53125 L 18.671875 -14.84375 C 18.671875 -12.707031 19.113281 -11.148438 20 -10.171875 C 20.882812 -9.203125 22.175781 -8.71875 23.875 -8.71875 C 25.800781 -8.71875 27.476562 -9.238281 28.90625 -10.28125 Z M 29.734375 -10.28125 "/></g></g></g><g fill="#ffffff" fill-opacity="1"><g transform="translate(1174.407296, 270.999966)"><g><path d="M 11.609375 -48.25 C 9.648438 -48.25 8.054688 -48.835938 6.828125 -50.015625 C 5.609375 -51.203125 5 -52.734375 5 -54.609375 C 5 -56.460938 5.609375 -57.976562 6.828125 -59.15625 C 8.054688 -60.34375 9.648438 -60.9375 11.609375 -60.9375 C 12.910156 -60.9375 14.066406 -60.660156 15.078125 -60.109375 C 16.097656 -59.566406 16.882812 -58.820312 17.4375 -57.875 C 18 -56.925781 18.28125 -55.835938 18.28125 -54.609375 C 18.28125 -53.390625 18 -52.296875 17.4375 -51.328125 C 16.882812 -50.367188 16.097656 -49.613281 15.078125 -49.0625 C 14.066406 -48.519531 12.910156 -48.25 11.609375 -48.25 Z M 6.21875 0 L 6.21875 -43.09375 L 17.03125 -43.09375 L 17.03125 0 Z M 6.21875 0 "/></g></g></g><g fill="#ffffff" fill-opacity="1"><g transform="translate(1197.608131, 270.999966)"><g><path d="M 6.21875 0 L 6.21875 -43.09375 L 16.609375 -43.09375 L 16.609375 -36.765625 L 17.421875 -36.5625 C 20.109375 -41.457031 24.457031 -43.90625 30.46875 -43.90625 C 35.445312 -43.90625 39.097656 -42.550781 41.421875 -39.84375 C 43.753906 -37.132812 44.921875 -33.191406 44.921875 -28.015625 L 44.921875 0 L 34.109375 0 L 34.109375 -26.6875 C 34.109375 -29.550781 33.535156 -31.613281 32.390625 -32.875 C 31.242188 -34.132812 29.40625 -34.765625 26.875 -34.765625 C 23.78125 -34.765625 21.363281 -33.757812 19.625 -31.75 C 17.894531 -29.75 17.03125 -26.601562 17.03125 -22.3125 L 17.03125 0 Z M 6.21875 0 "/></g></g></g><g fill="#ffffff" fill-opacity="1"><g transform="translate(1248.071904, 270.999966)"><g><path d="M 22.34375 18.28125 C 15.238281 18.28125 9.992188 17.238281 6.609375 15.15625 C 3.222656 13.070312 1.53125 10.171875 1.53125 6.453125 C 1.53125 4.179688 2.25 2.320312 3.6875 0.875 C 5.132812 -0.570312 7.210938 -1.539062 9.921875 -2.03125 L 9.921875 -2.859375 C 8.460938 -3.742188 7.414062 -4.722656 6.78125 -5.796875 C 6.144531 -6.878906 5.828125 -8.140625 5.828125 -9.578125 C 5.828125 -13.035156 8.078125 -15.363281 12.578125 -16.5625 L 12.578125 -17.390625 C 10.265625 -18.710938 8.519531 -20.359375 7.34375 -22.328125 C 6.175781 -24.296875 5.59375 -26.671875 5.59375 -29.453125 C 5.59375 -32.316406 6.25 -34.835938 7.5625 -37.015625 C 8.875 -39.191406 10.800781 -40.882812 13.34375 -42.09375 C 15.882812 -43.300781 18.925781 -43.90625 22.46875 -43.90625 C 26.0625 -43.90625 28.925781 -43.28125 31.0625 -42.03125 C 32.382812 -43.957031 33.148438 -46.1875 33.359375 -48.71875 L 34.1875 -49.21875 L 41.953125 -47.3125 C 41.722656 -45.25 41.125 -43.519531 40.15625 -42.125 C 39.195312 -40.738281 37.703125 -39.5 35.671875 -38.40625 L 35.671875 -37.546875 C 38.085938 -35.410156 39.296875 -32.425781 39.296875 -28.59375 C 39.296875 -25.9375 38.628906 -23.550781 37.296875 -21.4375 C 35.972656 -19.332031 34.039062 -17.664062 31.5 -16.4375 C 28.96875 -15.21875 25.957031 -14.609375 22.46875 -14.609375 L 20.828125 -14.65625 C 19.785156 -14.707031 19.054688 -14.734375 18.640625 -14.734375 C 17.648438 -14.734375 16.875 -14.460938 16.3125 -13.921875 C 15.75 -13.390625 15.46875 -12.707031 15.46875 -11.875 C 15.46875 -10.96875 15.832031 -10.257812 16.5625 -9.75 C 17.289062 -9.238281 18.359375 -8.957031 19.765625 -8.90625 L 29.421875 -8.5625 C 38.953125 -8.269531 43.71875 -4.164062 43.71875 3.75 C 43.71875 6.539062 43.003906 9.019531 41.578125 11.1875 C 40.160156 13.363281 37.863281 15.085938 34.6875 16.359375 C 31.507812 17.640625 27.394531 18.28125 22.34375 18.28125 Z M 22.46875 -22.1875 C 24.550781 -22.1875 26.175781 -22.796875 27.34375 -24.015625 C 28.519531 -25.242188 29.109375 -26.992188 29.109375 -29.265625 C 29.109375 -31.523438 28.519531 -33.257812 27.34375 -34.46875 C 26.175781 -35.6875 24.550781 -36.296875 22.46875 -36.296875 C 20.351562 -36.296875 18.722656 -35.6875 17.578125 -34.46875 C 16.429688 -33.257812 15.859375 -31.523438 15.859375 -29.265625 C 15.859375 -26.972656 16.429688 -25.21875 17.578125 -24 C 18.722656 -22.789062 20.351562 -22.1875 22.46875 -22.1875 Z M 22.34375 10.4375 C 26.039062 10.4375 28.726562 9.914062 30.40625 8.875 C 32.09375 7.832031 32.9375 6.476562 32.9375 4.8125 C 32.9375 3.457031 32.503906 2.457031 31.640625 1.8125 C 30.785156 1.175781 29.421875 0.832031 27.546875 0.78125 L 19.03125 0.390625 C 18.738281 0.390625 18.46875 0.375 18.21875 0.34375 C 17.976562 0.320312 17.738281 0.3125 17.5 0.3125 C 15.675781 0.3125 14.289062 0.703125 13.34375 1.484375 C 12.394531 2.265625 11.921875 3.347656 11.921875 4.734375 C 11.921875 6.554688 12.789062 7.960938 14.53125 8.953125 C 16.28125 9.941406 18.882812 10.4375 22.34375 10.4375 Z M 22.34375 10.4375 "/></g></g></g><g fill="#ffffff" fill-opacity="1"><g transform="translate(1292.872225, 270.999966)"><g><path d="M 13.28125 -20.984375 C 13.28125 -22.828125 13.4375 -24.367188 13.75 -25.609375 C 14.0625 -26.847656 14.609375 -27.976562 15.390625 -29 C 16.171875 -30.03125 17.289062 -31.132812 18.75 -32.3125 L 22.15625 -35.078125 C 23.820312 -36.429688 25 -37.664062 25.6875 -38.78125 C 26.375 -39.90625 26.71875 -41.1875 26.71875 -42.625 C 26.71875 -44.363281 26.097656 -45.75 24.859375 -46.78125 C 23.628906 -47.8125 21.828125 -48.328125 19.453125 -48.328125 C 17.085938 -48.328125 15.035156 -47.753906 13.296875 -46.609375 C 11.566406 -45.460938 10.039062 -43.832031 8.71875 -41.71875 L 7.8125 -41.5625 L 1.40625 -48.515625 C 3.570312 -51.617188 6.175781 -53.960938 9.21875 -55.546875 C 12.269531 -57.140625 15.90625 -57.9375 20.125 -57.9375 C 24.101562 -57.9375 27.441406 -57.328125 30.140625 -56.109375 C 32.835938 -54.898438 34.835938 -53.226562 36.140625 -51.09375 C 37.441406 -48.957031 38.09375 -46.523438 38.09375 -43.796875 C 38.09375 -40.796875 37.472656 -38.222656 36.234375 -36.078125 C 34.992188 -33.929688 33.097656 -31.84375 30.546875 -29.8125 L 26.765625 -26.796875 C 25.328125 -25.679688 24.367188 -24.671875 23.890625 -23.765625 C 23.410156 -22.867188 23.171875 -21.679688 23.171875 -20.203125 L 23.171875 -18.953125 L 13.28125 -18.953125 Z M 18.25 0.390625 C 16.894531 0.390625 15.703125 0.117188 14.671875 -0.421875 C 13.640625 -0.972656 12.84375 -1.726562 12.28125 -2.6875 C 11.726562 -3.65625 11.453125 -4.738281 11.453125 -5.9375 C 11.453125 -7.164062 11.726562 -8.265625 12.28125 -9.234375 C 12.84375 -10.210938 13.640625 -10.972656 14.671875 -11.515625 C 15.703125 -12.066406 16.894531 -12.34375 18.25 -12.34375 C 20.28125 -12.34375 21.910156 -11.742188 23.140625 -10.546875 C 24.378906 -9.347656 25 -7.828125 25 -5.984375 C 25 -4.128906 24.378906 -2.601562 23.140625 -1.40625 C 21.910156 -0.207031 20.28125 0.390625 18.25 0.390625 Z M 18.25 0.390625 "/></g></g></g></svg>