<svg xmlns="http://www.w3.org/2000/svg" xmlns:xlink="http://www.w3.org/1999/xlink" width="1920" zoomAndPan="magnify" viewBox="0 0 1440 809.999993" height="1080" preserveAspectRatio="xMidYMid meet" version="1.0"><defs><g/><clipPath id="d658b59247"><path d="M 883.554688 220.101562 L 980.203125 220.101562 L 980.203125 304.453125 L 883.554688 304.453125 Z M 883.554688 220.101562 " clip-rule="nonzero"/></clipPath><clipPath id="973a3a8986"><path d="M 872.96875 224.578125 L 967.96875 224.578125 L 967.96875 319.851562 L 872.96875 319.851562 Z M 872.96875 224.578125 " clip-rule="nonzero"/></clipPath></defs><rect x="-144" width="1728" fill="#ffffff" y="-80.999999" height="971.999992" fill-opacity="1"/><rect x="-144" width="1728" fill="#334155" y="-80.999999" height="971.999992" fill-opacity="1"/><g clip-path="url(#d658b59247)"><path fill="#299740" d="M 979.683594 221.367188 C 978.15625 220.96875 976.625 220.574219 975.09375 220.175781 C 974.976562 220.109375 974.832031 220.082031 974.660156 220.113281 C 974.582031 220.121094 974.511719 220.144531 974.445312 220.175781 C 974.148438 220.269531 973.855469 220.378906 973.5625 220.488281 C 972.566406 220.855469 971.585938 221.261719 970.617188 221.695312 C 969.160156 222.34375 967.738281 223.050781 966.339844 223.800781 C 964.460938 224.808594 962.628906 225.894531 960.847656 227.042969 C 958.625 228.476562 956.472656 230.007812 954.398438 231.617188 C 951.976562 233.5 949.65625 235.492188 947.445312 237.578125 C 944.898438 239.984375 942.488281 242.515625 940.222656 245.148438 C 937.648438 248.132812 935.25 251.242188 933.027344 254.460938 C 930.527344 258.085938 928.246094 261.839844 926.179688 265.691406 C 923.851562 270.027344 921.785156 274.484375 919.960938 279.019531 C 919.609375 279.902344 919.261719 280.789062 918.925781 281.675781 C 917.75 280.757812 916.574219 279.839844 915.398438 278.917969 C 912.3125 276.511719 909.226562 274.101562 906.144531 271.695312 C 903.308594 269.480469 900.476562 267.265625 897.640625 265.054688 C 896.917969 264.492188 896.199219 263.929688 895.480469 263.367188 C 895.296875 263.222656 895.132812 263.085938 894.90625 263 C 894.191406 262.730469 893.453125 262.378906 892.707031 262.191406 C 892.425781 262.117188 892.070312 262.214844 891.785156 262.261719 C 891.285156 262.335938 890.789062 262.414062 890.292969 262.488281 C 889.980469 262.539062 889.554688 262.535156 889.292969 262.722656 C 889.148438 262.824219 889.082031 262.953125 888.996094 263.09375 C 888.199219 264.398438 887.40625 265.699219 886.609375 267.003906 C 885.726562 268.453125 884.839844 269.90625 883.953125 271.355469 C 883.746094 271.695312 883.507812 271.976562 883.582031 272.386719 C 883.664062 272.863281 883.765625 273.335938 883.859375 273.8125 C 884.214844 275.625 884.570312 277.4375 884.925781 279.253906 C 885.035156 279.8125 885.121094 280.378906 885.253906 280.933594 C 885.332031 281.257812 885.574219 281.429688 885.894531 281.546875 C 886.175781 281.648438 886.453125 281.753906 886.734375 281.859375 C 886.832031 281.898438 886.933594 281.9375 887.03125 281.972656 C 887.085938 281.996094 887.140625 282.015625 887.195312 282.035156 C 887.222656 282.046875 887.25 282.058594 887.277344 282.070312 C 887.28125 282.070312 887.285156 282.070312 887.289062 282.074219 C 887.570312 282.183594 887.851562 282.292969 888.128906 282.402344 C 889.71875 283.035156 891.296875 283.695312 892.859375 284.378906 C 897.554688 286.433594 902.144531 288.695312 906.574219 291.203125 C 911.785156 294.152344 916.804688 297.445312 921.261719 301.3125 C 922.332031 302.238281 923.363281 303.199219 924.351562 304.199219 C 924.695312 304.542969 925.40625 304.378906 925.515625 303.917969 C 925.652344 303.332031 925.808594 302.75 925.964844 302.171875 C 926.402344 300.558594 926.878906 298.953125 927.378906 297.355469 C 928.140625 294.921875 928.960938 292.503906 929.835938 290.101562 C 930.949219 287.054688 932.144531 284.03125 933.425781 281.039062 C 934.902344 277.601562 936.492188 274.207031 938.210938 270.863281 C 940.09375 267.195312 942.125 263.589844 944.328125 260.074219 C 946.625 256.410156 949.105469 252.839844 951.804688 249.414062 C 954.546875 245.929688 957.519531 242.59375 960.75 239.480469 C 963.984375 236.359375 967.480469 233.449219 971.25 230.886719 C 973.15625 229.59375 975.128906 228.382812 977.167969 227.273438 C 977.636719 227.019531 978.339844 226.792969 978.5625 226.316406 C 978.636719 226.152344 978.691406 225.980469 978.753906 225.816406 C 979.046875 225.0625 979.339844 224.304688 979.628906 223.550781 C 979.8125 223.082031 979.992188 222.617188 980.171875 222.152344 C 980.296875 221.824219 980.027344 221.453125 979.683594 221.367188 " fill-opacity="1" fill-rule="nonzero"/></g><g clip-path="url(#973a3a8986)"><path fill="#299740" d="M 958.6875 243.992188 C 956.78125 246.03125 954.921875 248.195312 953.132812 250.46875 C 953.082031 250.53125 953.03125 250.597656 952.980469 250.660156 C 957.082031 256.851562 959.476562 264.273438 959.476562 272.246094 C 959.476562 293.8125 941.972656 311.359375 920.457031 311.359375 C 898.941406 311.359375 881.441406 293.8125 881.441406 272.246094 C 881.441406 250.675781 898.941406 233.128906 920.457031 233.128906 C 928.660156 233.128906 936.28125 235.683594 942.570312 240.035156 C 943.785156 238.765625 945.027344 237.53125 946.285156 236.34375 C 947.113281 235.5625 947.957031 234.792969 948.808594 234.042969 C 945.765625 231.769531 942.46875 229.875 938.945312 228.378906 C 933.085938 225.894531 926.867188 224.636719 920.457031 224.636719 C 914.046875 224.636719 907.828125 225.894531 901.96875 228.378906 C 896.316406 230.777344 891.238281 234.210938 886.875 238.582031 C 882.515625 242.953125 879.09375 248.042969 876.699219 253.710938 C 874.222656 259.582031 872.96875 265.820312 872.96875 272.246094 C 872.96875 278.667969 874.222656 284.90625 876.699219 290.777344 C 879.09375 296.445312 882.515625 301.535156 886.875 305.90625 C 891.234375 310.277344 896.316406 313.710938 901.96875 316.109375 C 907.828125 318.59375 914.046875 319.851562 920.457031 319.851562 C 926.867188 319.851562 933.085938 318.59375 938.945312 316.109375 C 944.601562 313.710938 949.679688 310.277344 954.039062 305.90625 C 958.398438 301.535156 961.824219 296.445312 964.214844 290.777344 C 966.691406 284.90625 967.949219 278.667969 967.949219 272.246094 C 967.949219 265.820312 966.691406 259.585938 964.214844 253.710938 C 962.75 250.246094 960.902344 246.992188 958.6875 243.992188 " fill-opacity="1" fill-rule="nonzero"/></g><g fill="#ffffff" fill-opacity="1"><g transform="translate(294.381203, 159.25009)"><g><path d="M 31.21875 0.828125 C 25.957031 0.828125 21.320312 -0.265625 17.3125 -2.453125 C 13.300781 -4.648438 10.160156 -7.941406 7.890625 -12.328125 C 5.628906 -16.710938 4.5 -22.125 4.5 -28.5625 C 4.5 -34.988281 5.628906 -40.394531 7.890625 -44.78125 C 10.160156 -49.175781 13.300781 -52.46875 17.3125 -54.65625 C 21.320312 -56.84375 25.957031 -57.9375 31.21875 -57.9375 C 36.707031 -57.9375 41.375 -56.859375 45.21875 -54.703125 C 49.0625 -52.554688 51.800781 -49.285156 53.4375 -44.890625 L 45.203125 -39.84375 L 44.21875 -39.890625 C 43 -42.859375 41.335938 -44.984375 39.234375 -46.265625 C 37.140625 -47.554688 34.46875 -48.203125 31.21875 -48.203125 C 26.476562 -48.203125 22.78125 -46.632812 20.125 -43.5 C 17.46875 -40.363281 16.140625 -35.382812 16.140625 -28.5625 C 16.140625 -21.757812 17.46875 -16.789062 20.125 -13.65625 C 22.78125 -10.519531 26.476562 -8.953125 31.21875 -8.953125 C 38.632812 -8.953125 43.175781 -12.554688 44.84375 -19.765625 L 45.828125 -19.765625 L 54.140625 -15.4375 C 52.578125 -10.019531 49.90625 -5.953125 46.125 -3.234375 C 42.351562 -0.523438 37.382812 0.828125 31.21875 0.828125 Z M 31.21875 0.828125 "/></g></g></g><g fill="#ffffff" fill-opacity="1"><g transform="translate(350.391354, 159.25009)"><g><path d="M 25.046875 0.828125 C 20.828125 0.828125 17.117188 -0.0351562 13.921875 -1.765625 C 10.734375 -3.503906 8.257812 -6.046875 6.5 -9.390625 C 4.75 -12.742188 3.875 -16.789062 3.875 -21.53125 C 3.875 -26.269531 4.75 -30.316406 6.5 -33.671875 C 8.257812 -37.035156 10.734375 -39.582031 13.921875 -41.3125 C 17.117188 -43.039062 20.828125 -43.90625 25.046875 -43.90625 C 29.265625 -43.90625 32.96875 -43.039062 36.15625 -41.3125 C 39.34375 -39.582031 41.820312 -37.035156 43.59375 -33.671875 C 45.363281 -30.316406 46.25 -26.269531 46.25 -21.53125 C 46.25 -16.789062 45.363281 -12.742188 43.59375 -9.390625 C 41.820312 -6.046875 39.34375 -3.503906 36.15625 -1.765625 C 32.96875 -0.0351562 29.265625 0.828125 25.046875 0.828125 Z M 25.046875 -8.359375 C 31.734375 -8.359375 35.078125 -12.75 35.078125 -21.53125 C 35.078125 -26.082031 34.21875 -29.421875 32.5 -31.546875 C 30.78125 -33.671875 28.296875 -34.734375 25.046875 -34.734375 C 18.347656 -34.734375 15 -30.332031 15 -21.53125 C 15 -12.75 18.347656 -8.359375 25.046875 -8.359375 Z M 25.046875 -8.359375 "/></g></g></g><g fill="#ffffff" fill-opacity="1"><g transform="translate(400.464587, 159.25009)"><g><path d="M 21.296875 0.828125 C 17.878906 0.828125 14.863281 0 12.25 -1.65625 C 9.632812 -3.3125 7.582031 -5.8125 6.09375 -9.15625 C 4.613281 -12.507812 3.875 -16.632812 3.875 -21.53125 C 3.875 -26.445312 4.632812 -30.578125 6.15625 -33.921875 C 7.675781 -37.273438 9.785156 -39.773438 12.484375 -41.421875 C 15.179688 -43.078125 18.300781 -43.90625 21.84375 -43.90625 C 24.519531 -43.90625 26.84375 -43.441406 28.8125 -42.515625 C 30.78125 -41.597656 32.441406 -40.160156 33.796875 -38.203125 L 34.609375 -38.40625 L 34.609375 -60.390625 L 45.4375 -60.390625 L 45.4375 0 L 34.609375 0 L 34.609375 -5.59375 L 33.796875 -5.75 C 32.597656 -3.71875 30.957031 -2.113281 28.875 -0.9375 C 26.789062 0.238281 24.265625 0.828125 21.296875 0.828125 Z M 24.8125 -8.359375 C 27.851562 -8.359375 30.257812 -9.445312 32.03125 -11.625 C 33.800781 -13.800781 34.6875 -17.101562 34.6875 -21.53125 C 34.6875 -25.957031 33.800781 -29.265625 32.03125 -31.453125 C 30.257812 -33.640625 27.851562 -34.734375 24.8125 -34.734375 C 21.632812 -34.734375 19.203125 -33.671875 17.515625 -31.546875 C 15.835938 -29.421875 15 -26.082031 15 -21.53125 C 15 -17 15.835938 -13.671875 17.515625 -11.546875 C 19.203125 -9.421875 21.632812 -8.359375 24.8125 -8.359375 Z M 24.8125 -8.359375 "/></g></g></g><g fill="#ffffff" fill-opacity="1"><g transform="translate(452.100166, 159.25009)"><g><path d="M 42.578125 -19.109375 L 14.890625 -19.109375 C 15.203125 -15.359375 16.269531 -12.628906 18.09375 -10.921875 C 19.914062 -9.210938 22.398438 -8.359375 25.546875 -8.359375 C 28.023438 -8.359375 30.03125 -8.820312 31.5625 -9.75 C 33.101562 -10.675781 34.34375 -12.078125 35.28125 -13.953125 L 36.09375 -13.953125 L 43.28125 -9.34375 C 41.875 -6.320312 39.75 -3.867188 36.90625 -1.984375 C 34.070312 -0.109375 30.285156 0.828125 25.546875 0.828125 C 21.097656 0.828125 17.25 -0.0195312 14 -1.71875 C 10.757812 -3.414062 8.257812 -5.9375 6.5 -9.28125 C 4.75 -12.625 3.875 -16.707031 3.875 -21.53125 C 3.875 -26.425781 4.796875 -30.550781 6.640625 -33.90625 C 8.492188 -37.269531 10.992188 -39.773438 14.140625 -41.421875 C 17.296875 -43.078125 20.835938 -43.90625 24.765625 -43.90625 C 30.859375 -43.90625 35.523438 -42.289062 38.765625 -39.0625 C 42.015625 -35.832031 43.640625 -31.09375 43.640625 -24.84375 C 43.640625 -22.582031 43.5625 -20.828125 43.40625 -19.578125 Z M 33.28125 -26.09375 C 33.175781 -29.375 32.414062 -31.765625 31 -33.265625 C 29.582031 -34.765625 27.503906 -35.515625 24.765625 -35.515625 C 19.296875 -35.515625 16.082031 -32.375 15.125 -26.09375 Z M 33.28125 -26.09375 "/></g></g></g><g fill="#ffffff" fill-opacity="1"><g transform="translate(498.931516, 159.25009)"><g/></g></g><g fill="#ffffff" fill-opacity="1"><g transform="translate(517.796872, 159.25009)"><g><path d="M 7.421875 0 L 7.421875 -57.109375 L 31.796875 -57.109375 C 35.316406 -57.109375 38.289062 -56.554688 40.71875 -55.453125 C 43.15625 -54.347656 45 -52.769531 46.25 -50.71875 C 47.5 -48.675781 48.125 -46.265625 48.125 -43.484375 C 48.125 -40.953125 47.507812 -38.722656 46.28125 -36.796875 C 45.0625 -34.867188 43.304688 -33.320312 41.015625 -32.15625 L 41.015625 -31.328125 C 44.609375 -30.390625 47.378906 -28.679688 49.328125 -26.203125 C 51.285156 -23.734375 52.265625 -20.703125 52.265625 -17.109375 C 52.265625 -11.640625 50.617188 -7.421875 47.328125 -4.453125 C 44.035156 -1.484375 39.144531 0 32.65625 0 Z M 29.453125 -34.34375 C 34.710938 -34.34375 37.34375 -36.710938 37.34375 -41.453125 C 37.34375 -43.867188 36.691406 -45.671875 35.390625 -46.859375 C 34.085938 -48.046875 32.109375 -48.640625 29.453125 -48.640625 L 18.71875 -48.640625 L 18.71875 -34.34375 Z M 31.53125 -8.953125 C 37.75 -8.953125 40.859375 -11.773438 40.859375 -17.421875 C 40.859375 -23.097656 37.75 -25.9375 31.53125 -25.9375 L 18.71875 -25.9375 L 18.71875 -8.953125 Z M 31.53125 -8.953125 "/></g></g></g><g fill="#ffffff" fill-opacity="1"><g transform="translate(573.650789, 159.25009)"><g><path d="M 9.53125 18.28125 C 7.6875 18.28125 6.015625 18.132812 4.515625 17.84375 C 3.015625 17.5625 1.796875 17.1875 0.859375 16.71875 L 2.578125 7.96875 L 3.28125 7.734375 C 3.9375 8.078125 4.742188 8.351562 5.703125 8.5625 C 6.671875 8.769531 7.660156 8.875 8.671875 8.875 C 10.421875 8.875 11.875 8.644531 13.03125 8.1875 C 14.1875 7.726562 15.164062 6.972656 15.96875 5.921875 C 16.78125 4.867188 17.5 3.40625 18.125 1.53125 L 0.9375 -43.09375 L 12.265625 -43.09375 L 22.96875 -13.125 L 23.90625 -13.125 L 34.34375 -43.09375 L 45.359375 -43.09375 L 28.046875 2.703125 C 26.671875 6.398438 25.15625 9.375 23.5 11.625 C 21.84375 13.875 19.890625 15.546875 17.640625 16.640625 C 15.390625 17.734375 12.6875 18.28125 9.53125 18.28125 Z M 9.53125 18.28125 "/></g></g></g><g fill="#ffffff" fill-opacity="1"><g transform="translate(619.89627, 159.25009)"><g><path d="M 29.734375 -10.28125 L 32.546875 -2.265625 C 31.367188 -1.304688 29.894531 -0.550781 28.125 0 C 26.351562 0.550781 24.347656 0.828125 22.109375 0.828125 C 17.453125 0.828125 13.910156 -0.441406 11.484375 -2.984375 C 9.066406 -5.523438 7.859375 -9.21875 7.859375 -14.0625 L 7.859375 -34.53125 L 1.296875 -34.53125 L 1.296875 -43.125 L 7.859375 -43.125 L 7.859375 -51.53125 L 18.671875 -53.28125 L 18.671875 -43.125 L 30.90625 -43.125 L 30.90625 -34.53125 L 18.671875 -34.53125 L 18.671875 -14.84375 C 18.671875 -12.707031 19.113281 -11.148438 20 -10.171875 C 20.882812 -9.203125 22.175781 -8.71875 23.875 -8.71875 C 25.800781 -8.71875 27.476562 -9.238281 28.90625 -10.28125 Z M 29.734375 -10.28125 "/></g></g></g><g fill="#ffffff" fill-opacity="1"><g transform="translate(653.369573, 159.25009)"><g><path d="M 42.578125 -19.109375 L 14.890625 -19.109375 C 15.203125 -15.359375 16.269531 -12.628906 18.09375 -10.921875 C 19.914062 -9.210938 22.398438 -8.359375 25.546875 -8.359375 C 28.023438 -8.359375 30.03125 -8.820312 31.5625 -9.75 C 33.101562 -10.675781 34.34375 -12.078125 35.28125 -13.953125 L 36.09375 -13.953125 L 43.28125 -9.34375 C 41.875 -6.320312 39.75 -3.867188 36.90625 -1.984375 C 34.070312 -0.109375 30.285156 0.828125 25.546875 0.828125 C 21.097656 0.828125 17.25 -0.0195312 14 -1.71875 C 10.757812 -3.414062 8.257812 -5.9375 6.5 -9.28125 C 4.75 -12.625 3.875 -16.707031 3.875 -21.53125 C 3.875 -26.425781 4.796875 -30.550781 6.640625 -33.90625 C 8.492188 -37.269531 10.992188 -39.773438 14.140625 -41.421875 C 17.296875 -43.078125 20.835938 -43.90625 24.765625 -43.90625 C 30.859375 -43.90625 35.523438 -42.289062 38.765625 -39.0625 C 42.015625 -35.832031 43.640625 -31.09375 43.640625 -24.84375 C 43.640625 -22.582031 43.5625 -20.828125 43.40625 -19.578125 Z M 33.28125 -26.09375 C 33.175781 -29.375 32.414062 -31.765625 31 -33.265625 C 29.582031 -34.765625 27.503906 -35.515625 24.765625 -35.515625 C 19.296875 -35.515625 16.082031 -32.375 15.125 -26.09375 Z M 33.28125 -26.09375 "/></g></g></g><g fill="#ffffff" fill-opacity="1"><g transform="translate(700.200946, 159.25009)"><g><path d="M 20.15625 0.828125 C 17.21875 0.828125 14.523438 0.484375 12.078125 -0.203125 C 9.628906 -0.898438 7.535156 -1.851562 5.796875 -3.0625 C 4.066406 -4.28125 2.785156 -5.671875 1.953125 -7.234375 L 7.96875 -13.71875 L 8.796875 -13.71875 C 10.222656 -11.789062 11.910156 -10.34375 13.859375 -9.375 C 15.816406 -8.414062 17.941406 -7.9375 20.234375 -7.9375 C 22.347656 -7.9375 23.9375 -8.3125 25 -9.0625 C 26.070312 -9.820312 26.609375 -10.90625 26.609375 -12.3125 C 26.609375 -13.40625 26.222656 -14.320312 25.453125 -15.0625 C 24.679688 -15.800781 23.4375 -16.378906 21.71875 -16.796875 L 16.015625 -18.171875 C 11.742188 -19.179688 8.625 -20.734375 6.65625 -22.828125 C 4.695312 -24.929688 3.71875 -27.597656 3.71875 -30.828125 C 3.71875 -33.503906 4.398438 -35.832031 5.765625 -37.8125 C 7.128906 -39.789062 9.054688 -41.300781 11.546875 -42.34375 C 14.035156 -43.382812 16.929688 -43.90625 20.234375 -43.90625 C 24.117188 -43.90625 27.335938 -43.34375 29.890625 -42.21875 C 32.441406 -41.101562 34.429688 -39.609375 35.859375 -37.734375 L 30.078125 -31.484375 L 29.296875 -31.484375 C 28.097656 -32.835938 26.75 -33.828125 25.25 -34.453125 C 23.757812 -35.078125 22.085938 -35.390625 20.234375 -35.390625 C 15.960938 -35.390625 13.828125 -34.0625 13.828125 -31.40625 C 13.828125 -30.289062 14.222656 -29.378906 15.015625 -28.671875 C 15.816406 -27.972656 17.21875 -27.398438 19.21875 -26.953125 L 24.53125 -25.78125 C 28.90625 -24.84375 32.101562 -23.335938 34.125 -21.265625 C 36.144531 -19.203125 37.15625 -16.425781 37.15625 -12.9375 C 37.15625 -10.195312 36.476562 -7.785156 35.125 -5.703125 C 33.769531 -3.617188 31.816406 -2.007812 29.265625 -0.875 C 26.710938 0.257812 23.675781 0.828125 20.15625 0.828125 Z M 20.15625 0.828125 "/></g></g></g><g fill="#ffffff" fill-opacity="1"><g transform="translate(739.923615, 159.25009)"><g/></g></g><g fill="#ffffff" fill-opacity="1"><g transform="translate(758.788971, 159.25009)"><g><path d="M 11.609375 -48.25 C 9.648438 -48.25 8.054688 -48.835938 6.828125 -50.015625 C 5.609375 -51.203125 5 -52.734375 5 -54.609375 C 5 -56.460938 5.609375 -57.976562 6.828125 -59.15625 C 8.054688 -60.34375 9.648438 -60.9375 11.609375 -60.9375 C 12.910156 -60.9375 14.066406 -60.660156 15.078125 -60.109375 C 16.097656 -59.566406 16.882812 -58.820312 17.4375 -57.875 C 18 -56.925781 18.28125 -55.835938 18.28125 -54.609375 C 18.28125 -53.390625 18 -52.296875 17.4375 -51.328125 C 16.882812 -50.367188 16.097656 -49.613281 15.078125 -49.0625 C 14.066406 -48.519531 12.910156 -48.25 11.609375 -48.25 Z M 6.21875 0 L 6.21875 -43.09375 L 17.03125 -43.09375 L 17.03125 0 Z M 6.21875 0 "/></g></g></g><g fill="#ffffff" fill-opacity="1"><g transform="translate(781.989852, 159.25009)"><g><path d="M 20.15625 0.828125 C 17.21875 0.828125 14.523438 0.484375 12.078125 -0.203125 C 9.628906 -0.898438 7.535156 -1.851562 5.796875 -3.0625 C 4.066406 -4.28125 2.785156 -5.671875 1.953125 -7.234375 L 7.96875 -13.71875 L 8.796875 -13.71875 C 10.222656 -11.789062 11.910156 -10.34375 13.859375 -9.375 C 15.816406 -8.414062 17.941406 -7.9375 20.234375 -7.9375 C 22.347656 -7.9375 23.9375 -8.3125 25 -9.0625 C 26.070312 -9.820312 26.609375 -10.90625 26.609375 -12.3125 C 26.609375 -13.40625 26.222656 -14.320312 25.453125 -15.0625 C 24.679688 -15.800781 23.4375 -16.378906 21.71875 -16.796875 L 16.015625 -18.171875 C 11.742188 -19.179688 8.625 -20.734375 6.65625 -22.828125 C 4.695312 -24.929688 3.71875 -27.597656 3.71875 -30.828125 C 3.71875 -33.503906 4.398438 -35.832031 5.765625 -37.8125 C 7.128906 -39.789062 9.054688 -41.300781 11.546875 -42.34375 C 14.035156 -43.382812 16.929688 -43.90625 20.234375 -43.90625 C 24.117188 -43.90625 27.335938 -43.34375 29.890625 -42.21875 C 32.441406 -41.101562 34.429688 -39.609375 35.859375 -37.734375 L 30.078125 -31.484375 L 29.296875 -31.484375 C 28.097656 -32.835938 26.75 -33.828125 25.25 -34.453125 C 23.757812 -35.078125 22.085938 -35.390625 20.234375 -35.390625 C 15.960938 -35.390625 13.828125 -34.0625 13.828125 -31.40625 C 13.828125 -30.289062 14.222656 -29.378906 15.015625 -28.671875 C 15.816406 -27.972656 17.21875 -27.398438 19.21875 -26.953125 L 24.53125 -25.78125 C 28.90625 -24.84375 32.101562 -23.335938 34.125 -21.265625 C 36.144531 -19.203125 37.15625 -16.425781 37.15625 -12.9375 C 37.15625 -10.195312 36.476562 -7.785156 35.125 -5.703125 C 33.769531 -3.617188 31.816406 -2.007812 29.265625 -0.875 C 26.710938 0.257812 23.675781 0.828125 20.15625 0.828125 Z M 20.15625 0.828125 "/></g></g></g><g fill="#ffffff" fill-opacity="1"><g transform="translate(821.712521, 159.25009)"><g/></g></g><g fill="#ffffff" fill-opacity="1"><g transform="translate(840.577877, 159.25009)"><g><path d="M 7.546875 0 L 7.546875 -34.53125 L 1.453125 -34.53125 L 1.453125 -43.125 L 7.546875 -43.125 C 7.097656 -44.945312 6.875 -46.65625 6.875 -48.25 C 6.875 -50.976562 7.5 -53.3125 8.75 -55.25 C 10 -57.195312 11.796875 -58.675781 14.140625 -59.6875 C 16.484375 -60.707031 19.269531 -61.21875 22.5 -61.21875 C 27.269531 -61.21875 30.828125 -60.394531 33.171875 -58.75 L 30.625 -50.78125 L 29.8125 -50.625 C 28.195312 -51.769531 26.125 -52.34375 23.59375 -52.34375 C 21.644531 -52.34375 20.179688 -51.867188 19.203125 -50.921875 C 18.222656 -49.972656 17.734375 -48.675781 17.734375 -47.03125 C 17.734375 -46.332031 17.78125 -45.6875 17.875 -45.09375 C 17.96875 -44.507812 18.128906 -43.851562 18.359375 -43.125 L 30.671875 -43.125 L 30.671875 -34.53125 L 18.359375 -34.53125 L 18.359375 0 Z M 7.546875 0 "/></g></g></g><g fill="#ffffff" fill-opacity="1"><g transform="translate(871.668589, 159.25009)"><g><path d="M 25.046875 0.828125 C 20.828125 0.828125 17.117188 -0.0351562 13.921875 -1.765625 C 10.734375 -3.503906 8.257812 -6.046875 6.5 -9.390625 C 4.75 -12.742188 3.875 -16.789062 3.875 -21.53125 C 3.875 -26.269531 4.75 -30.316406 6.5 -33.671875 C 8.257812 -37.035156 10.734375 -39.582031 13.921875 -41.3125 C 17.117188 -43.039062 20.828125 -43.90625 25.046875 -43.90625 C 29.265625 -43.90625 32.96875 -43.039062 36.15625 -41.3125 C 39.34375 -39.582031 41.820312 -37.035156 43.59375 -33.671875 C 45.363281 -30.316406 46.25 -26.269531 46.25 -21.53125 C 46.25 -16.789062 45.363281 -12.742188 43.59375 -9.390625 C 41.820312 -6.046875 39.34375 -3.503906 36.15625 -1.765625 C 32.96875 -0.0351562 29.265625 0.828125 25.046875 0.828125 Z M 25.046875 -8.359375 C 31.734375 -8.359375 35.078125 -12.75 35.078125 -21.53125 C 35.078125 -26.082031 34.21875 -29.421875 32.5 -31.546875 C 30.78125 -33.671875 28.296875 -34.734375 25.046875 -34.734375 C 18.347656 -34.734375 15 -30.332031 15 -21.53125 C 15 -12.75 18.347656 -8.359375 25.046875 -8.359375 Z M 25.046875 -8.359375 "/></g></g></g><g fill="#ffffff" fill-opacity="1"><g transform="translate(921.741798, 159.25009)"><g><path d="M 6.21875 0 L 6.21875 -43.09375 L 16.71875 -43.09375 L 16.71875 -36.6875 L 17.546875 -36.53125 C 18.585938 -38.925781 19.953125 -40.679688 21.640625 -41.796875 C 23.335938 -42.921875 25.394531 -43.484375 27.8125 -43.484375 C 30.257812 -43.484375 32.125 -43.066406 33.40625 -42.234375 L 31.5625 -32.890625 L 30.75 -32.734375 C 30.039062 -33.023438 29.359375 -33.234375 28.703125 -33.359375 C 28.054688 -33.492188 27.265625 -33.5625 26.328125 -33.5625 C 23.304688 -33.5625 21 -32.5 19.40625 -30.375 C 17.820312 -28.25 17.03125 -24.84375 17.03125 -20.15625 L 17.03125 0 Z M 6.21875 0 "/></g></g></g><g fill="#ffffff" fill-opacity="1"><g transform="translate(955.527547, 159.25009)"><g/></g></g><g fill="#ffffff" fill-opacity="1"><g transform="translate(974.392903, 159.25009)"><g><path d="M 9.53125 18.28125 C 7.6875 18.28125 6.015625 18.132812 4.515625 17.84375 C 3.015625 17.5625 1.796875 17.1875 0.859375 16.71875 L 2.578125 7.96875 L 3.28125 7.734375 C 3.9375 8.078125 4.742188 8.351562 5.703125 8.5625 C 6.671875 8.769531 7.660156 8.875 8.671875 8.875 C 10.421875 8.875 11.875 8.644531 13.03125 8.1875 C 14.1875 7.726562 15.164062 6.972656 15.96875 5.921875 C 16.78125 4.867188 17.5 3.40625 18.125 1.53125 L 0.9375 -43.09375 L 12.265625 -43.09375 L 22.96875 -13.125 L 23.90625 -13.125 L 34.34375 -43.09375 L 45.359375 -43.09375 L 28.046875 2.703125 C 26.671875 6.398438 25.15625 9.375 23.5 11.625 C 21.84375 13.875 19.890625 15.546875 17.640625 16.640625 C 15.390625 17.734375 12.6875 18.28125 9.53125 18.28125 Z M 9.53125 18.28125 "/></g></g></g><g fill="#ffffff" fill-opacity="1"><g transform="translate(1020.638385, 159.25009)"><g><path d="M 25.046875 0.828125 C 20.828125 0.828125 17.117188 -0.0351562 13.921875 -1.765625 C 10.734375 -3.503906 8.257812 -6.046875 6.5 -9.390625 C 4.75 -12.742188 3.875 -16.789062 3.875 -21.53125 C 3.875 -26.269531 4.75 -30.316406 6.5 -33.671875 C 8.257812 -37.035156 10.734375 -39.582031 13.921875 -41.3125 C 17.117188 -43.039062 20.828125 -43.90625 25.046875 -43.90625 C 29.265625 -43.90625 32.96875 -43.039062 36.15625 -41.3125 C 39.34375 -39.582031 41.820312 -37.035156 43.59375 -33.671875 C 45.363281 -30.316406 46.25 -26.269531 46.25 -21.53125 C 46.25 -16.789062 45.363281 -12.742188 43.59375 -9.390625 C 41.820312 -6.046875 39.34375 -3.503906 36.15625 -1.765625 C 32.96875 -0.0351562 29.265625 0.828125 25.046875 0.828125 Z M 25.046875 -8.359375 C 31.734375 -8.359375 35.078125 -12.75 35.078125 -21.53125 C 35.078125 -26.082031 34.21875 -29.421875 32.5 -31.546875 C 30.78125 -33.671875 28.296875 -34.734375 25.046875 -34.734375 C 18.347656 -34.734375 15 -30.332031 15 -21.53125 C 15 -12.75 18.347656 -8.359375 25.046875 -8.359375 Z M 25.046875 -8.359375 "/></g></g></g><g fill="#ffffff" fill-opacity="1"><g transform="translate(1070.711639, 159.25009)"><g><path d="M 19.734375 0.828125 C 14.890625 0.828125 11.3125 -0.492188 9 -3.140625 C 6.695312 -5.785156 5.546875 -9.582031 5.546875 -14.53125 L 5.546875 -43.09375 L 16.375 -43.09375 L 16.375 -15.90625 C 16.375 -13.269531 16.9375 -11.347656 18.0625 -10.140625 C 19.195312 -8.929688 20.953125 -8.328125 23.328125 -8.328125 C 26.316406 -8.328125 28.644531 -9.304688 30.3125 -11.265625 C 31.976562 -13.234375 32.8125 -16.328125 32.8125 -20.546875 L 32.8125 -43.09375 L 43.640625 -43.09375 L 43.640625 0 L 33.25 0 L 33.25 -6.328125 L 32.421875 -6.53125 C 31.046875 -4.050781 29.359375 -2.203125 27.359375 -0.984375 C 25.367188 0.222656 22.828125 0.828125 19.734375 0.828125 Z M 19.734375 0.828125 "/></g></g></g><g fill="#ffffff" fill-opacity="1"><g transform="translate(1120.550473, 159.25009)"><g><path d="M 17.421875 -18.953125 L 7.65625 -18.953125 L 6.875 -57.109375 L 18.203125 -57.109375 Z M 12.546875 0.390625 C 11.191406 0.390625 10 0.117188 8.96875 -0.421875 C 7.9375 -0.972656 7.140625 -1.726562 6.578125 -2.6875 C 6.023438 -3.65625 5.75 -4.738281 5.75 -5.9375 C 5.75 -7.164062 6.023438 -8.265625 6.578125 -9.234375 C 7.140625 -10.210938 7.9375 -10.972656 8.96875 -11.515625 C 10 -12.066406 11.191406 -12.34375 12.546875 -12.34375 C 14.578125 -12.34375 16.207031 -11.742188 17.4375 -10.546875 C 18.675781 -9.347656 19.296875 -7.828125 19.296875 -5.984375 C 19.296875 -4.128906 18.675781 -2.601562 17.4375 -1.40625 C 16.207031 -0.207031 14.578125 0.390625 12.546875 0.390625 Z M 12.546875 0.390625 "/></g></g></g><g fill="#ffffff" fill-opacity="1"><g transform="translate(228.175, 296.250005)"><g><path d="M 16.375 0 L 6.5 0 L 6.5 -49.96875 L 16.375 -49.96875 Z M 16.375 0 "/></g></g></g><g fill="#ffffff" fill-opacity="1"><g transform="translate(251.074112, 296.250005)"><g><path d="M 5.4375 0 L 5.4375 -37.703125 L 14.53125 -37.703125 L 14.53125 -32.15625 L 15.25 -32 C 17.59375 -36.28125 21.394531 -38.421875 26.65625 -38.421875 C 31.007812 -38.421875 34.207031 -37.234375 36.25 -34.859375 C 38.289062 -32.492188 39.3125 -29.039062 39.3125 -24.5 L 39.3125 0 L 29.84375 0 L 29.84375 -23.34375 C 29.84375 -25.851562 29.335938 -27.660156 28.328125 -28.765625 C 27.328125 -29.867188 25.722656 -30.421875 23.515625 -30.421875 C 20.804688 -30.421875 18.691406 -29.539062 17.171875 -27.78125 C 15.660156 -26.03125 14.90625 -23.273438 14.90625 -19.515625 L 14.90625 0 Z M 5.4375 0 "/></g></g></g><g fill="#ffffff" fill-opacity="1"><g transform="translate(295.231802, 296.250005)"><g/></g></g><g fill="#ffffff" fill-opacity="1"><g transform="translate(311.739674, 296.250005)"><g><path d="M 6.5 0 L 6.5 -49.96875 L 27.828125 -49.96875 C 30.898438 -49.96875 33.5 -49.484375 35.625 -48.515625 C 37.757812 -47.546875 39.375 -46.164062 40.46875 -44.375 C 41.5625 -42.59375 42.109375 -40.484375 42.109375 -38.046875 C 42.109375 -35.835938 41.570312 -33.890625 40.5 -32.203125 C 39.425781 -30.515625 37.890625 -29.15625 35.890625 -28.125 L 35.890625 -27.40625 C 39.035156 -26.59375 41.460938 -25.101562 43.171875 -22.9375 C 44.878906 -20.769531 45.734375 -18.113281 45.734375 -14.96875 C 45.734375 -10.1875 44.289062 -6.492188 41.40625 -3.890625 C 38.519531 -1.296875 34.242188 0 28.578125 0 Z M 25.765625 -30.046875 C 30.367188 -30.046875 32.671875 -32.117188 32.671875 -36.265625 C 32.671875 -38.378906 32.101562 -39.953125 30.96875 -40.984375 C 29.832031 -42.023438 28.097656 -42.546875 25.765625 -42.546875 L 16.375 -42.546875 L 16.375 -30.046875 Z M 27.578125 -7.828125 C 33.023438 -7.828125 35.75 -10.300781 35.75 -15.25 C 35.75 -20.21875 33.023438 -22.703125 27.578125 -22.703125 L 16.375 -22.703125 L 16.375 -7.828125 Z M 27.578125 -7.828125 "/></g></g></g><g fill="#ffffff" fill-opacity="1"><g transform="translate(360.613897, 296.250005)"><g><path d="M 5.4375 0 L 5.4375 -37.703125 L 14.625 -37.703125 L 14.625 -32.09375 L 15.34375 -31.953125 C 16.257812 -34.054688 17.457031 -35.597656 18.9375 -36.578125 C 20.414062 -37.554688 22.21875 -38.046875 24.34375 -38.046875 C 26.476562 -38.046875 28.101562 -37.679688 29.21875 -36.953125 L 27.625 -28.78125 L 26.90625 -28.640625 C 26.289062 -28.890625 25.695312 -29.070312 25.125 -29.1875 C 24.550781 -29.300781 23.851562 -29.359375 23.03125 -29.359375 C 20.394531 -29.359375 18.378906 -28.429688 16.984375 -26.578125 C 15.597656 -24.722656 14.90625 -21.742188 14.90625 -17.640625 L 14.90625 0 Z M 5.4375 0 "/></g></g></g><g fill="#ffffff" fill-opacity="1"><g transform="translate(390.177682, 296.250005)"><g><path d="M 21.90625 0.71875 C 18.21875 0.71875 14.976562 -0.0351562 12.1875 -1.546875 C 9.394531 -3.066406 7.226562 -5.289062 5.6875 -8.21875 C 4.15625 -11.144531 3.390625 -14.679688 3.390625 -18.828125 C 3.390625 -22.972656 4.15625 -26.515625 5.6875 -29.453125 C 7.226562 -32.398438 9.394531 -34.628906 12.1875 -36.140625 C 14.976562 -37.660156 18.21875 -38.421875 21.90625 -38.421875 C 25.601562 -38.421875 28.847656 -37.660156 31.640625 -36.140625 C 34.429688 -34.628906 36.597656 -32.398438 38.140625 -29.453125 C 39.691406 -26.515625 40.46875 -22.972656 40.46875 -18.828125 C 40.46875 -14.679688 39.691406 -11.144531 38.140625 -8.21875 C 36.597656 -5.289062 34.429688 -3.066406 31.640625 -1.546875 C 28.847656 -0.0351562 25.601562 0.71875 21.90625 0.71875 Z M 21.90625 -7.3125 C 27.757812 -7.3125 30.6875 -11.148438 30.6875 -18.828125 C 30.6875 -22.816406 29.9375 -25.738281 28.4375 -27.59375 C 26.9375 -29.457031 24.757812 -30.390625 21.90625 -30.390625 C 16.050781 -30.390625 13.125 -26.535156 13.125 -18.828125 C 13.125 -11.148438 16.050781 -7.3125 21.90625 -7.3125 Z M 21.90625 -7.3125 "/></g></g></g><g fill="#ffffff" fill-opacity="1"><g transform="translate(433.993594, 296.250005)"><g><path d="M 20.234375 0 L 10.328125 0 L 1.375 -37.703125 L 10.15625 -37.703125 L 15.6875 -12.203125 L 16.40625 -12.203125 L 23.578125 -37.703125 L 31.78125 -37.703125 L 39.203125 -12.203125 L 39.921875 -12.203125 L 45.25 -37.703125 L 53.796875 -37.703125 L 44.953125 0 L 35 0 L 27.859375 -25.671875 L 27.140625 -25.671875 Z M 20.234375 0 "/></g></g></g><g fill="#ffffff" fill-opacity="1"><g transform="translate(489.122345, 296.250005)"><g><path d="M 17.640625 0.71875 C 15.066406 0.71875 12.707031 0.414062 10.5625 -0.1875 C 8.414062 -0.789062 6.582031 -1.617188 5.0625 -2.671875 C 3.550781 -3.734375 2.429688 -4.953125 1.703125 -6.328125 L 6.96875 -12 L 7.6875 -12 C 8.945312 -10.3125 10.429688 -9.046875 12.140625 -8.203125 C 13.847656 -7.359375 15.703125 -6.9375 17.703125 -6.9375 C 19.546875 -6.9375 20.9375 -7.265625 21.875 -7.921875 C 22.8125 -8.585938 23.28125 -9.535156 23.28125 -10.765625 C 23.28125 -11.722656 22.941406 -12.523438 22.265625 -13.171875 C 21.597656 -13.828125 20.507812 -14.335938 19 -14.703125 L 14.015625 -15.890625 C 10.273438 -16.785156 7.546875 -18.148438 5.828125 -19.984375 C 4.109375 -21.816406 3.25 -24.144531 3.25 -26.96875 C 3.25 -29.3125 3.847656 -31.347656 5.046875 -33.078125 C 6.242188 -34.816406 7.925781 -36.140625 10.09375 -37.046875 C 12.269531 -37.960938 14.804688 -38.421875 17.703125 -38.421875 C 21.097656 -38.421875 23.910156 -37.929688 26.140625 -36.953125 C 28.378906 -35.972656 30.125 -34.660156 31.375 -33.015625 L 26.3125 -27.546875 L 25.640625 -27.546875 C 24.585938 -28.734375 23.40625 -29.597656 22.09375 -30.140625 C 20.78125 -30.691406 19.316406 -30.96875 17.703125 -30.96875 C 13.960938 -30.96875 12.09375 -29.804688 12.09375 -27.484375 C 12.09375 -26.503906 12.441406 -25.707031 13.140625 -25.09375 C 13.835938 -24.476562 15.0625 -23.972656 16.8125 -23.578125 L 21.46875 -22.5625 C 25.289062 -21.738281 28.082031 -20.421875 29.84375 -18.609375 C 31.613281 -16.796875 32.5 -14.363281 32.5 -11.3125 C 32.5 -8.914062 31.90625 -6.804688 30.71875 -4.984375 C 29.539062 -3.160156 27.832031 -1.753906 25.59375 -0.765625 C 23.363281 0.222656 20.710938 0.71875 17.640625 0.71875 Z M 17.640625 0.71875 "/></g></g></g><g fill="#ffffff" fill-opacity="1"><g transform="translate(523.881163, 296.250005)"><g><path d="M 37.25 -16.71875 L 13.015625 -16.71875 C 13.296875 -13.4375 14.234375 -11.046875 15.828125 -9.546875 C 17.421875 -8.054688 19.597656 -7.3125 22.359375 -7.3125 C 24.515625 -7.3125 26.265625 -7.710938 27.609375 -8.515625 C 28.960938 -9.328125 30.046875 -10.554688 30.859375 -12.203125 L 31.578125 -12.203125 L 37.875 -8.171875 C 36.644531 -5.523438 34.785156 -3.378906 32.296875 -1.734375 C 29.816406 -0.0976562 26.503906 0.71875 22.359375 0.71875 C 18.460938 0.71875 15.09375 -0.0195312 12.25 -1.5 C 9.414062 -2.976562 7.226562 -5.179688 5.6875 -8.109375 C 4.15625 -11.046875 3.390625 -14.617188 3.390625 -18.828125 C 3.390625 -23.117188 4.195312 -26.734375 5.8125 -29.671875 C 7.425781 -32.609375 9.613281 -34.800781 12.375 -36.25 C 15.132812 -37.695312 18.234375 -38.421875 21.671875 -38.421875 C 27.003906 -38.421875 31.085938 -37.003906 33.921875 -34.171875 C 36.753906 -31.347656 38.171875 -27.203125 38.171875 -21.734375 C 38.171875 -19.753906 38.101562 -18.21875 37.96875 -17.125 Z M 29.125 -22.828125 C 29.03125 -25.703125 28.363281 -27.789062 27.125 -29.09375 C 25.882812 -30.40625 24.066406 -31.0625 21.671875 -31.0625 C 16.890625 -31.0625 14.078125 -28.316406 13.234375 -22.828125 Z M 29.125 -22.828125 "/></g></g></g><g fill="#ffffff" fill-opacity="1"><g transform="translate(564.860324, 296.250005)"><g><path d="M 5.4375 0 L 5.4375 -37.703125 L 14.625 -37.703125 L 14.625 -32.09375 L 15.34375 -31.953125 C 16.257812 -34.054688 17.457031 -35.597656 18.9375 -36.578125 C 20.414062 -37.554688 22.21875 -38.046875 24.34375 -38.046875 C 26.476562 -38.046875 28.101562 -37.679688 29.21875 -36.953125 L 27.625 -28.78125 L 26.90625 -28.640625 C 26.289062 -28.890625 25.695312 -29.070312 25.125 -29.1875 C 24.550781 -29.300781 23.851562 -29.359375 23.03125 -29.359375 C 20.394531 -29.359375 18.378906 -28.429688 16.984375 -26.578125 C 15.597656 -24.722656 14.90625 -21.742188 14.90625 -17.640625 L 14.90625 0 Z M 5.4375 0 "/></g></g></g><g fill="#ffffff" fill-opacity="1"><g transform="translate(594.424097, 296.250005)"><g/></g></g><g fill="#ffffff" fill-opacity="1"><g transform="translate(610.931969, 296.250005)"><g><path d="M 16.375 0 L 6.5 0 L 6.5 -49.96875 L 16.375 -49.96875 Z M 16.375 0 "/></g></g></g><g fill="#ffffff" fill-opacity="1"><g transform="translate(633.831093, 296.250005)"><g><path d="M 18.625 0.71875 C 15.644531 0.71875 13.007812 -0.00390625 10.71875 -1.453125 C 8.425781 -2.898438 6.628906 -5.085938 5.328125 -8.015625 C 4.035156 -10.941406 3.390625 -14.546875 3.390625 -18.828125 C 3.390625 -23.140625 4.054688 -26.757812 5.390625 -29.6875 C 6.722656 -32.613281 8.566406 -34.800781 10.921875 -36.25 C 13.273438 -37.695312 16.003906 -38.421875 19.109375 -38.421875 C 21.453125 -38.421875 23.484375 -38.015625 25.203125 -37.203125 C 26.921875 -36.390625 28.375 -35.128906 29.5625 -33.421875 L 30.28125 -33.59375 L 30.28125 -52.84375 L 39.75 -52.84375 L 39.75 0 L 30.28125 0 L 30.28125 -4.890625 L 29.5625 -5.03125 C 28.519531 -3.25 27.085938 -1.84375 25.265625 -0.8125 C 23.441406 0.207031 21.226562 0.71875 18.625 0.71875 Z M 21.703125 -7.3125 C 24.367188 -7.3125 26.476562 -8.257812 28.03125 -10.15625 C 29.582031 -12.0625 30.359375 -14.953125 30.359375 -18.828125 C 30.359375 -22.703125 29.582031 -25.597656 28.03125 -27.515625 C 26.476562 -29.429688 24.367188 -30.390625 21.703125 -30.390625 C 18.921875 -30.390625 16.796875 -29.457031 15.328125 -27.59375 C 13.859375 -25.738281 13.125 -22.816406 13.125 -18.828125 C 13.125 -14.867188 13.859375 -11.957031 15.328125 -10.09375 C 16.796875 -8.238281 18.921875 -7.3125 21.703125 -7.3125 Z M 21.703125 -7.3125 "/></g></g></g><g fill="#ffffff" fill-opacity="1"><g transform="translate(679.014105, 296.250005)"><g><path d="M 37.25 -16.71875 L 13.015625 -16.71875 C 13.296875 -13.4375 14.234375 -11.046875 15.828125 -9.546875 C 17.421875 -8.054688 19.597656 -7.3125 22.359375 -7.3125 C 24.515625 -7.3125 26.265625 -7.710938 27.609375 -8.515625 C 28.960938 -9.328125 30.046875 -10.554688 30.859375 -12.203125 L 31.578125 -12.203125 L 37.875 -8.171875 C 36.644531 -5.523438 34.785156 -3.378906 32.296875 -1.734375 C 29.816406 -0.0976562 26.503906 0.71875 22.359375 0.71875 C 18.460938 0.71875 15.09375 -0.0195312 12.25 -1.5 C 9.414062 -2.976562 7.226562 -5.179688 5.6875 -8.109375 C 4.15625 -11.046875 3.390625 -14.617188 3.390625 -18.828125 C 3.390625 -23.117188 4.195312 -26.734375 5.8125 -29.671875 C 7.425781 -32.609375 9.613281 -34.800781 12.375 -36.25 C 15.132812 -37.695312 18.234375 -38.421875 21.671875 -38.421875 C 27.003906 -38.421875 31.085938 -37.003906 33.921875 -34.171875 C 36.753906 -31.347656 38.171875 -27.203125 38.171875 -21.734375 C 38.171875 -19.753906 38.101562 -18.21875 37.96875 -17.125 Z M 29.125 -22.828125 C 29.03125 -25.703125 28.363281 -27.789062 27.125 -29.09375 C 25.882812 -30.40625 24.066406 -31.0625 21.671875 -31.0625 C 16.890625 -31.0625 14.078125 -28.316406 13.234375 -22.828125 Z M 29.125 -22.828125 "/></g></g></g></svg>