<svg width="15" height="45" viewBox="0 0 15 45" fill="none" xmlns="http://www.w3.org/2000/svg">
<path d="M14.6136 22.2045V24.3182C12.7159 24.3182 11.3864 24.7159 10.625 25.5114C9.875 26.3068 9.5 27.6364 9.5 29.5V34.9545C9.5 36.5227 9.34659 37.8807 9.03977 39.0284C8.74432 40.1761 8.25568 41.125 7.57386 41.875C6.89205 42.625 5.98295 43.1818 4.84659 43.5455C3.71023 43.9091 2.30682 44.0909 0.636364 44.0909V40.75C1.95455 40.75 2.98864 40.5398 3.73864 40.1193C4.5 39.7102 5.03409 39.0795 5.34091 38.2273C5.65909 37.375 5.81818 36.2841 5.81818 34.9545V28.1364C5.81818 27.25 5.93182 26.4432 6.15909 25.7159C6.39773 24.9886 6.82955 24.3636 7.45455 23.8409C8.07955 23.3182 8.96591 22.9148 10.1136 22.6307C11.2727 22.3466 12.7727 22.2045 14.6136 22.2045ZM0.636364 0.454543C2.30682 0.454543 3.71023 0.636362 4.84659 1C5.98295 1.36364 6.89205 1.92045 7.57386 2.67045C8.25568 3.42045 8.74432 4.36932 9.03977 5.51704C9.34659 6.66477 9.5 8.02273 9.5 9.59091V15.0455C9.5 16.9091 9.875 18.2386 10.625 19.0341C11.3864 19.8295 12.7159 20.2273 14.6136 20.2273V22.3409C12.7727 22.3409 11.2727 22.1989 10.1136 21.9148C8.96591 21.6307 8.07955 21.2273 7.45455 20.7045C6.82955 20.1818 6.39773 19.5568 6.15909 18.8295C5.93182 18.1023 5.81818 17.2955 5.81818 16.4091V9.59091C5.81818 8.26136 5.65909 7.17045 5.34091 6.31818C5.03409 5.45455 4.5 4.81818 3.73864 4.40909C2.98864 4 1.95455 3.79545 0.636364 3.79545V0.454543ZM14.6136 20.2273V24.3182H10.5909V20.2273H14.6136Z" fill="#343434"/>
</svg>
